<?xml version="1.0" standalone="no"?>
<!DOCTYPE svg PUBLIC "-//W3C//DTD SVG 1.1//EN" "http://www.w3.org/Graphics/SVG/1.1/DTD/svg11.dtd" >
<svg xmlns="http://www.w3.org/2000/svg">
<metadata></metadata>
<defs>
<font id="sloganregular" horiz-adv-x="874" >
<font-face units-per-em="2048" ascent="1638" descent="-410" />
<missing-glyph horiz-adv-x="512" />
<glyph horiz-adv-x="0" />
<glyph unicode="&#xd;" horiz-adv-x="0" />
<glyph unicode=" "  horiz-adv-x="512" />
<glyph unicode="&#x09;" horiz-adv-x="512" />
<glyph unicode="&#xa0;" horiz-adv-x="512" />
<glyph unicode="!" horiz-adv-x="541" d="M168 213q0 16 47 57q21 17 45 41q9 13 19 13q14 0 34 -33q28 -39 32 -43.5t30 -24.5q8 -8 8 -16q0 -14 -52.5 -46t-74.5 -32q-21 0 -54.5 31.5t-33.5 52.5zM293 414q73 166 123 295q79 208 113.5 288.5t48.5 89.5q15 10 67 21.5t82 11.5q23 0 23 -18q0 -48 -93.5 -210 t-230.5 -355q-22 -36 -61 -103z" />
<glyph unicode="&#x22;" horiz-adv-x="578" d="M223 688q0 10 4 19l4 16q20 75 35 117q31 94 45 129l9.5 28.5t9.5 32.5q10 40 19.5 50.5t51.5 25.5l23 8q12 6 18 6q15 0 15 -14l-4 -16l-2 -21q-31 -108 -82 -254q-1 -4 -6 -19.5t-9 -31.5q-3 -9 -4 -10.5t-4 -16.5q-5 -24 -14 -30l-23 -11l-30 -12l-29 -12 q-6 -2 -12 -2q-15 0 -15 18zM446 688q0 10 5 19l4 16q17 70 34 117q38 108 46 129q9 18 18 61q10 40 20.5 51t51.5 25l22 8q12 6 19 6t10.5 -4t3.5 -10l-4 -16l-2 -21q-31 -108 -82 -254q-6 -22 -11 -38.5t-12 -39.5q-5 -24 -14 -30l-23 -11l-30 -12l-29 -12q-6 -2 -12 -2 q-15 0 -15 18z" />
<glyph unicode="#" d="M84 334q0 3 27 41l18 26q14 23 33 23q16 0 26 -2l33 -4l35 -2l4 20l23 86q-142 8 -142 29q0 2 39 61q14 22 20 26.5t19 4.5q17 0 27 -2l35 -4l32 -2l9 18l6 21q33 87 45 200q5 41 12.5 56t28.5 26q70 39 78 39q12 0 12 -18q0 -11 -6 -25l-11 -55l-4 -27q-19 -93 -55 -245 q21 -2 49 -4t49 -5l6 21l15 37q33 90 45 200q5 41 12.5 56t28.5 26q70 39 78 39q12 0 12 -18q0 -11 -6 -25q-8 -24 -15 -82q-2 -18 -14 -65q-4 -23 -31 -133q-2 -9 -5 -23t-9 -39h35q112 0 143 11q6 2 19 2q12 0 12 -7q2 0 -6 -8q-8 -5 -17 -16q-49 -46 -94.5 -64 t-116.5 -20l-6 -25l-6 -24l-8 -33l-8 -35h28q109 0 144 10q6 2 18 2q13 0 13 -6q0 -1 -3 -3.5t-4 -2.5l-16 -18q-50 -46 -95.5 -64.5t-111.5 -19.5q-44 -169 -55 -228q-11 -54 -21 -65q-11 -9 -55 -33q-23 -6 -31 -16q-12 -4 -10 -4q-14 0 -14 26q0 23 67 320q-18 1 -47 3 t-51 3q-55 -220 -55 -234q-11 -53 -23 -65q-7 -7 -53 -33q-9 -3 -33 -16l-8 -4q-14 0 -14 26q0 12 1 19t14.5 71.5t24 111.5t29.5 132q-145 8 -145 31zM375 406q24 -2 41 -4t55 -5q6 27 10.5 46.5t8 32t8.5 32.5q-15 1 -25.5 1.5t-30 2t-41.5 2.5q-6 -24 -13.5 -56 t-12.5 -52z" />
<glyph unicode="$" d="M8 244q0 76 47.5 132.5t122.5 74.5l15 -31q-64 -25 -87.5 -51t-23.5 -70q0 -112 201 -149l112 290q-73 18 -111 66t-38 121q0 74 40 133t115.5 98.5t173.5 52.5l31 78q7 22 23 29q37 18 41 18q7 0 10.5 -3.5t3.5 -10.5q0 -4 -6 -21l-35 -88q41 0 59.5 -6.5t40.5 -25.5 q16 6 23 6q32 0 39 -43q4 -23 20 -37q11 -7 11 -19t-15 -24q-15 -14 -34.5 -39.5t-22.5 -36.5q-9 -20 -23 -20q-11 0 -22 14q-16 13 -23 18q-10 5 -34 13q-21 6 -21 24q0 21 25 56q18 27 18 45q0 16 -11.5 22.5t-47.5 9.5l-113 -278l35 2l84 6h24q116 0 170 -34.5t54 -108.5 q0 -62 -46.5 -137.5t-127.5 -139.5q-178 -143 -383 -143h-35l-43 -103q-6 -20 -21 -20q-20 0 -20 20q0 9 4 21l35 86q-234 33 -234 203zM330 143h49q205 0 344 115q70 55 70 109q0 40 -30 56.5t-99 16.5q-8 0 -70 -4q-90 -4 -94 -4q-27 0 -51 2zM338 676q0 -38 28 -58.5 t87 -25.5l106 274q-94 -15 -157.5 -69.5t-63.5 -120.5z" />
<glyph unicode="%" horiz-adv-x="1004" d="M158 -14l14 28l594 1145q32 61 46 78.5t40 32.5q30 16 82.5 33.5t69.5 17.5q7 0 13.5 -4.5t6.5 -11.5t-12 -27l-768 -1272q-14 -24 -21 -24q-47 -7 -49 -7q-16 0 -16 11zM195 950q0 74 30.5 149.5t81.5 127.5q39 41 94 69.5t93 28.5q29 0 48 -12.5t19 -32.5t-29 -37 q93 -48 93 -145q0 -55 -25 -121t-65 -115q-78 -98 -187 -98q-70 0 -111.5 51t-41.5 135zM256 924q0 -57 26 -94t64 -37q80 0 156 131q67 117 67 194q0 23 -12.5 50t-30 44t-34.5 17q-18 0 -59 -26t-75 -58q-48 -46 -75 -105.5t-27 -115.5zM483 172q0 74 31 150t82 129 q41 43 94 70.5t92 27.5q30 0 50 -12.5t20 -32.5t-29 -37q48 -25 70 -60.5t22 -87.5q0 -83 -39.5 -160.5t-104 -125t-132.5 -47.5q-72 0 -114 50t-42 136zM545 145q0 -55 26 -93t64 -38q77 0 158 131q67 122 67 197q0 23 -12.5 49.5t-31.5 44t-36 17.5q-14 0 -56 -26.5 t-75 -57.5q-49 -47 -76.5 -106t-27.5 -118z" />
<glyph unicode="&#x26;" horiz-adv-x="1118" d="M117 131q0 66 47.5 131.5t148 136t260.5 152.5q29 87 63 143.5t87 114.5q121 133 221 133q38 0 61 -22t23 -56q0 -44 -31.5 -84.5t-102.5 -86t-202 -111.5q1 -122 36.5 -226t95 -163.5t128.5 -59.5q75 0 152 41q12 8 38 25.5t32 21.5q-3 -16 -16 -31t-73 -71 q-145 -133 -260 -133q-49 0 -97.5 27t-82.5 73q-16 20 -45 74q-197 -172 -334 -172q-64 0 -106.5 40.5t-42.5 102.5zM332 197q0 -44 25.5 -74.5t62.5 -30.5q33 0 64.5 16t105.5 72q-33 109 -33 217q0 53 10 119q-110 -63 -172.5 -147.5t-62.5 -171.5zM692 616q71 35 89 45 t46 33q44 35 65 66t21 59q0 22 -13.5 36.5t-33.5 14.5q-44 0 -92 -57q-36 -42 -53 -83t-29 -114z" />
<glyph unicode="'" horiz-adv-x="354" d="M223 688q0 10 4 19l4 16q20 75 35 117q31 94 45 129l9.5 28.5t9.5 32.5q10 40 19.5 50.5t51.5 25.5l23 8q12 6 18 6q15 0 15 -14l-4 -16l-2 -21q-31 -108 -82 -254q-1 -4 -6 -19.5t-9 -31.5q-3 -9 -4 -10.5t-4 -16.5q-5 -24 -14 -30l-23 -11l-30 -12l-29 -12 q-6 -2 -12 -2q-15 0 -15 18z" />
<glyph unicode="(" horiz-adv-x="672" d="M-55 -414q0 37 14.5 99t38.5 120l248 596q56 135 172 336t219 342q105 143 195 224t145 81q15 0 25 -8.5t10 -19.5q0 -15 -33 -80q-10 -23 -16.5 -30t-20.5 -13q-66 -28 -137 -91.5t-145 -160t-142.5 -215t-132.5 -258.5q-71 -157 -135 -331.5t-105 -317.5t-41 -203 q0 -35 50 -55q26 -16 26 -31q0 -36 -43 -98q-17 -27 -41 -27q-17 0 -50.5 12.5t-53.5 26.5q-47 33 -47 102z" />
<glyph unicode=")" horiz-adv-x="672" d="M-328 -526q0 14 33 80q9 20 16.5 28.5t20.5 14.5q88 38 184 137t191.5 249t181.5 339q50 109 99 236t92.5 257t66.5 224t23 135q0 34 -50 55q-26 14 -26 31q0 38 43 98q17 26 41 26q18 0 50 -11.5t54 -26.5q47 -35 47 -103q0 -37 -15.5 -102.5t-37.5 -116.5l-248 -596 q-37 -88 -102.5 -210t-138.5 -240.5t-150 -227.5q-51 -71 -97.5 -124t-94 -95.5t-85 -64t-63.5 -21.5q-13 0 -24 8.5t-11 20.5z" />
<glyph unicode="*" d="M408 1010l6 82l215 -76l-8 239l98 -38l-12 -205l204 84l21 -80l-205 -68l137 -186l-73 -21l-129 164l-123 -166l-84 15l153 198z" />
<glyph unicode="+" d="M125 442q0 10 14 41l11 27q10 22 28 22q17 0 27 -2q-12 0 153 -14q19 0 43 -2v47q0 42 -8 121q-4 46 -4 59q0 22 7.5 32.5t31.5 21.5q42 16 49 16q16 0 19 -29l6 -53q5 -45 14 -223q99 -6 127 -6q105 0 141 12q7 2 17 2q14 0 14 -6q0 -7 -22.5 -32.5t-42.5 -41.5 q-30 -21 -67 -29t-116 -8q-24 0 -49 2q3 -146 8 -202q2 -9 2 -23q0 -19 -22 -31l-29 -10l-26 -12q-7 -2 -11 -2q-12 0 -18.5 14.5t-9.5 52.5q-11 121 -11 187v30q-157 11 -190 15q-60 7 -73 10.5t-13 13.5z" />
<glyph unicode="," horiz-adv-x="471" d="M55 -100q98 141 125 194t27 101q0 35 -21 86q34 19 71 33t50 14q20 0 32.5 -28.5t12.5 -78.5q0 -29 -53.5 -100t-169.5 -199z" />
<glyph unicode="-" horiz-adv-x="379" d="M14 268q0 4 2 11q8 11 15 36q14 51 21.5 61.5t31.5 10.5q7 0 49 -14q16 -5 88 -12t105 -7q7 0 49 4h4q16 0 16 -10l-4 -8q-4 -6 -8.5 -12.5t-7.5 -10.5q-36 -57 -70 -74.5t-104 -17.5q-85 0 -136 11.5t-51 31.5z" />
<glyph unicode="." horiz-adv-x="471" d="M158 213q0 16 47 57q12 11 25.5 23t19.5 18q9 13 20 13q9 0 13.5 -4.5t19.5 -28.5q14 -21 23.5 -33.5t15.5 -18t20 -16.5q11 -6 11 -16q0 -14 -52.5 -46t-74.5 -32q-21 0 -54.5 31.5t-33.5 52.5z" />
<glyph unicode="/" horiz-adv-x="858" d="M-145 -541q0 8 6 17l6 12l919 1737q35 65 51 83t50 33q19 10 74.5 26.5t68.5 16.5q19 0 19 -20q0 -15 -9 -29q-20 -32 -30 -51l-1024 -1739q-43 -71 -59 -85.5t-52 -14.5q-20 0 -20 14z" />
<glyph unicode="0" d="M100 295q0 87 26 176t72.5 169t114.5 148q66 64 154 107t156 43q46 0 78 -23.5t32 -58.5q0 -22 -12.5 -35t-42.5 -26q65 -23 96 -56q34 -32 54 -82.5t20 -105.5q0 -78 -28 -163.5t-78 -164.5t-109 -131q-120 -102 -266 -102q-122 0 -194.5 83.5t-72.5 221.5zM195 231 q0 -82 48 -137t117 -55q135 0 246 170q73 109 113.5 204.5t40.5 155.5q0 47 -16 89t-48 71q-46 41 -80 41q-23 0 -95 -37.5t-118 -77.5q-90 -77 -149 -196.5t-59 -227.5z" />
<glyph unicode="1" d="M242 8q0 35 116 283q42 85 56 111.5t66.5 123t70.5 129.5q30 55 42.5 77.5t20.5 37t15.5 28t11.5 21.5q-39 -24 -164 -108q-76 -49 -98 -49q-25 0 -25 38q0 58 101 95q130 46 268 133q15 12 25 12q8 0 15 -5t7 -11q0 -9 -8 -25q-23 -43 -33 -80q-53 -128 -65 -160 q-87 -216 -128 -346t-59 -247q-5 -33 -9.5 -42t-18.5 -14q-7 -3 -31 -8q10 0 -76 -8l-61 -8q-7 -2 -15 -2q-24 0 -24 24z" />
<glyph unicode="2" d="M72 20q0 22 15.5 55t35.5 54q31 34 68.5 46t115.5 15q85 67 195 181q73 78 106 142t33 130q0 52 -26 95t-70.5 67t-98.5 24q-139 0 -157 -127q26 -1 36.5 -16t10.5 -51q0 -59 -19.5 -93t-54.5 -34q-33 0 -54.5 25.5t-21.5 64.5q0 44 23.5 100t62.5 101q56 63 137.5 98 t170.5 35q109 0 178 -52.5t69 -136.5q0 -67 -42.5 -143t-136.5 -173t-257 -234q47 0 76 -3.5t154 -23.5q98 -16 167 -16h25q-18 -50 -40.5 -88.5t-45 -59t-43.5 -20.5q-14 0 -72 14q-66 17 -119.5 24t-115.5 7q-99 0 -209 -21q-65 -10 -68 -10q-28 0 -28 24z" />
<glyph unicode="3" d="M47 158q0 45 21.5 87t44.5 42q11 0 18.5 -6.5t7.5 -16.5q0 -8 -10 -37q-12 -27 -12 -49q0 -57 56.5 -93t148.5 -36q97 0 170 51t73 119q0 29 -13 48.5t-87 97.5q-28 28 -37.5 47t-9.5 41q0 25 6.5 37t37 34t103.5 68q44 30 62 53.5t18 52.5q0 45 -34 76t-83 31 q-35 0 -74 -18.5t-69 -51.5q-10 -10 -51 -78q-16 -22 -33 -22q-22 0 -22 22q0 19 22 57t55 70q54 56 130 89.5t147 33.5q77 0 131.5 -44t54.5 -107q0 -49 -25 -78.5t-116 -87.5q-32 -21 -47 -38.5t-15 -33.5q0 -12 15.5 -27t60.5 -51q84 -62 84 -141q0 -77 -63.5 -151 t-166 -120t-206.5 -46q-82 0 -149 23.5t-105.5 64t-38.5 88.5z" />
<glyph unicode="4" d="M23 297q0 20 33 59.5t130 135.5q99 96 236.5 208.5t243.5 182.5q71 47 106 47q27 0 43 -17.5t16 -50.5q0 -19 -8 -47q-12 -35 -28 -86l-133 -356h34q44 0 209 6q-46 -63 -110.5 -91t-151.5 -28l-27 -2l-67 -176q-15 -41 -29.5 -59.5t-36.5 -24.5q-8 -2 -57 -8t-59 -6 q-19 0 -19 16q0 13 23 68l78 184h-56l-145 -4q-23 -2 -68 -2q-104 0 -125 10q-11 4 -21.5 17t-10.5 24zM236 410q0 -39 118 -39q15 0 142 2l129 336q20 56 20 71q0 5 -4 9t-8 4q-16 0 -73 -42t-126 -105.5t-123 -121.5q-75 -81 -75 -114z" />
<glyph unicode="5" d="M47 147q0 56 32 113t60 57q25 0 25 -20q0 -6 -17 -35q-24 -39 -24 -69q0 -33 33 -67.5t85 -56.5t105 -22q63 0 120.5 32t92.5 83.5t35 107.5q0 83 -86 148q-47 32 -148 74q-47 19 -47 40q0 20 25 72l149 305q132 -4 164 -4q124 0 262 15q-50 -83 -73.5 -113t-48.5 -41 q-40 -16 -195 -16q-37 0 -137 2l-35 -76q-23 -53 -23 -66q0 -26 50 -26q167 -2 247 -50.5t80 -146.5q0 -92 -75.5 -186t-194.5 -155.5t-232 -61.5q-98 0 -163.5 47t-65.5 116z" />
<glyph unicode="6" d="M145 303q0 129 69.5 266t188.5 246q69 61 137.5 95t125.5 34q48 0 83 -28.5t35 -67.5q0 -59 -104 -68q-97 -9 -195 -78q-78 -53 -135 -129.5t-76 -152.5q90 86 166.5 122t165.5 36q92 0 145.5 -57.5t53.5 -155.5q0 -95 -52.5 -183t-139.5 -142t-183 -54q-127 0 -206 87.5 t-79 229.5zM246 238q0 -61 23.5 -106.5t66.5 -71t98 -25.5q56 0 110.5 38.5t89 99.5t34.5 124q0 81 -48.5 128.5t-132.5 47.5q-100 0 -170.5 -68.5t-70.5 -166.5z" />
<glyph unicode="7" d="M246 754q0 87 41 139q20 30 53 40.5t111 10.5q14 0 120 -4q154 -10 217 -10q80 0 103 4h8q21 0 21 -12q0 -9 -5.5 -15.5t-35.5 -34.5q-205 -208 -308.5 -392t-103.5 -335q0 -51 -2.5 -64.5t-13.5 -35.5q-13 -28 -37 -42.5t-56 -14.5q-42 0 -72 28t-30 68q0 42 34.5 120.5 t82.5 147.5q211 305 256 361q22 30 22 47q0 45 -168 45q-67 0 -120.5 -11.5t-116.5 -39.5z" />
<glyph unicode="8" d="M76 244q0 70 42 132.5t113 94.5q49 25 162 45q-56 35 -78 72t-22 92q0 67 37 125t101.5 90.5t143.5 32.5q116 0 185 -55.5t69 -147.5q0 -151 -196 -229q98 -39 138 -77.5t40 -92.5q0 -86 -55 -165t-147 -126t-191 -47q-90 0 -169.5 35.5t-126 94.5t-46.5 126zM266 205 q0 -71 38.5 -119.5t96.5 -48.5q89 0 156 102q59 89 59 178q0 71 -43.5 118.5t-107.5 47.5q-52 0 -98.5 -37.5t-73.5 -101.5t-27 -139zM438 616q0 -96 90 -96q66 0 109 76q20 35 34.5 88.5t14.5 97.5q0 50 -23 78.5t-63 28.5q-42 0 -79 -37t-60 -99.5t-23 -136.5z" />
<glyph unicode="9" d="M164 557q0 70 34.5 149t92.5 138q107 104 250 104q84 0 149 -39.5t100 -111.5t35 -168q0 -86 -36 -185t-100 -189.5t-146 -156.5q-59 -46 -124 -75t-116 -29q-49 0 -83 26t-34 64q0 63 97 72q136 11 251.5 111t161.5 245q-102 -86 -176 -121t-158 -35q-56 0 -101.5 25.5 t-71 71.5t-25.5 104zM303 633q0 -79 47 -124.5t129 -45.5q70 0 126 31.5t87 86.5t31 124q0 85 -50.5 139.5t-129.5 54.5q-61 0 -116.5 -38t-89.5 -100t-34 -128z" />
<glyph unicode=":" horiz-adv-x="471" d="M158 213q0 16 47 57q30 28 45 41q9 13 20 13q13 0 33 -33q28 -39 32 -43.5t30 -24.5q8 -8 8 -16q0 -14 -52.5 -46t-74.5 -32q-21 0 -54.5 31.5t-33.5 52.5zM158 487q0 16 47 58q22 17 45 41q10 12 20 12q13 0 33 -33q28 -39 34.5 -45.5t27.5 -21.5q8 -8 8 -17 q0 -13 -52.5 -45.5t-74.5 -32.5t-55 31t-33 53z" />
<glyph unicode=";" horiz-adv-x="471" d="M55 -100q98 141 125 194t27 101q0 35 -21 86q34 19 71 33t50 14q20 0 32.5 -28.5t12.5 -78.5q0 -29 -53.5 -100t-169.5 -199zM96 487q0 16 47 58q20 14 45 41q11 12 19 12q10 0 15.5 -5t19.5 -28q24 -35 32 -43.5t29 -23.5q8 -8 8 -17q0 -13 -52.5 -45.5t-74.5 -32.5 q-23 0 -55.5 31.5t-32.5 52.5z" />
<glyph unicode="&#x3c;" horiz-adv-x="1024" d="M193 702v15l849 543v-82l-624 -406l624 -418v-221z" />
<glyph unicode="=" d="M102 334q0 10 15 41q8 16 12 26q7 20 29 23q14 0 24 -2q29 -6 214.5 -18.5t224.5 -12.5q101 0 143 10q6 2 16 2q15 0 15 -6q0 -9 -23.5 -34t-42.5 -37q-31 -23 -68.5 -30t-113.5 -7q-47 0 -180 6.5t-179 13.5q-60 7 -73 10.5t-13 14.5zM131 553q0 9 14 41l13 27 q4 12 10 16t18 6q15 0 25 -2q29 -6 213.5 -18.5t224.5 -12.5q105 0 144 11q6 2 16 2q14 0 14 -7q0 -9 -23 -33.5t-42 -37.5q-31 -23 -68.5 -30t-114.5 -7q-48 0 -133.5 4t-132 7t-92.5 9q-21 3 -37 5t-30.5 5.5t-16.5 6t-2 8.5z" />
<glyph unicode="&#x3e;" horiz-adv-x="1024" d="M193 133v84l624 404l-624 417v222l849 -570v-12z" />
<glyph unicode="?" horiz-adv-x="676" d="M256 213q0 16 47 57q21 17 45 41q9 13 19 13q14 0 34 -33q28 -39 32 -43.5t30 -24.5q8 -8 8 -16q0 -14 -52.5 -46t-74.5 -32q-21 0 -54.5 31.5t-33.5 52.5zM276 471q0 48 25 94q20 35 35 50t80 67q93 76 137.5 146t44.5 143q0 50 -30 82t-76 32q-42 0 -72.5 -24 t-30.5 -55q0 -33 45 -45l-74 -119q-79 12 -79 80q0 47 51 114q43 55 109.5 87t133.5 32q61 0 114 -24t84.5 -64.5t31.5 -85.5q0 -109 -105 -188q-43 -31 -202 -125q-105 -61 -105 -127q0 -24 25 -60l-119 -82q-23 37 -23 72z" />
<glyph unicode="@" horiz-adv-x="1370" d="M137 526q0 154 64.5 298.5t178.5 255.5t261.5 173t308.5 62q195 0 320 -101q66 -52 109.5 -133t43.5 -153q0 -100 -65 -209.5t-164 -177.5q-104 -74 -184 -74q-21 0 -40.5 14.5t-19.5 34.5q0 27 45 96q29 44 29 64q0 15 -18 35q-85 -100 -181 -169t-153 -69 q-46 0 -72.5 26.5t-26.5 69.5q0 51 29 100t81 90.5t114.5 65t124.5 23.5q28 0 51 -4q40 65 84 65q20 0 34.5 -14.5t14.5 -32.5q0 -23 -27 -69q74 -44 74 -111q0 -31 -6 -55q-2 -6 -2 -15q0 -6 5 -11t11 -5q20 0 51 29q52 46 83.5 105t31.5 108q0 64 -48.5 134t-119.5 113 q-74 45 -165.5 68t-190.5 23q-229 0 -371 -136q-46 -44 -82 -104t-53.5 -124t-17.5 -134q0 -117 49.5 -217t140.5 -168q94 -70 213 -109t238 -39q88 0 164 20.5t139 60.5t106 96q26 30 41 30q10 0 16.5 -6.5t6.5 -15.5q0 -21 -46.5 -71.5t-111.5 -96.5q-98 -73 -217 -110.5 t-254 -37.5q-137 0 -251.5 37t-200 107t-130.5 164t-45 204zM768 678q0 -24 19 -40.5t44 -16.5q32 0 62.5 22.5t83.5 85.5q-27 20 -27 51q0 18 11 35q-11 2 -23 2q-65 0 -117.5 -42.5t-52.5 -96.5z" />
<glyph unicode="A" horiz-adv-x="2003" d="M-96 96q0 25 13 45t46 47l78 64q32 29 86 72q60 48 72 59l215 182q-95 38 -95 74q0 11 3 15.5t22 23.5l72 65q10 12 16 17.5t10 5.5q6 0 25 -12q50 -30 106 -47q31 26 162 133q127 105 246 190t266 178q149 95 221 95q57 0 95.5 -44t72 -155t66.5 -297q36 -200 51 -275.5 t29.5 -115t30 -48t51.5 -8.5q31 0 108 39q20 12 41 21q12 6 17.5 8.5t15.5 7.5q12 6 16 6q9 0 9 -6q0 -11 -97 -92q-206 -182 -309 -182q-39 0 -63 17.5t-40 62t-28 123.5q-12 80 -43 407q-19 191 -66 281t-127 90q-39 0 -107.5 -35t-153 -94.5t-182 -141t-204.5 -184.5 q236 -53 627 -53q44 0 152 6q-102 -71 -250 -108t-336 -37q-182 0 -348 45q-33 -45 -213 -267q-93 -114 -174.5 -173.5t-141.5 -59.5q-27 0 -45 15.5t-18 39.5z" />
<glyph unicode="B" horiz-adv-x="1931" d="M96 313q0 74 46.5 148.5t172.5 200.5q83 85 164 147q64 129 85.5 200t21.5 144q0 62 -17 100t-59 68q-27 18 -27 31q0 16 19 16q20 0 46 -19t44 -46q41 -68 41 -168q0 -37 -6 -74t-19 -77t-41 -110q139 114 242.5 187t224.5 143q149 87 244.5 120.5t189.5 33.5 q103 0 161.5 -46.5t58.5 -127.5q0 -48 -20.5 -90t-61 -81t-119.5 -91q-83 -51 -211 -115q-35 -17 -35 -27q0 -6 21 -6q11 0 79 -4t136.5 -10.5t124.5 -14.5q135 -19 207.5 -82t72.5 -161q0 -3 -4 -51q56 -4 72 -8.5t16 -16.5q0 -16 -39 -16l-39 2q-10 0 -20 -2 q-38 -87 -105.5 -155t-181.5 -138q-168 -103 -357.5 -163t-346.5 -60q-72 0 -132 16.5t-93.5 45.5t-33.5 67q0 34 24.5 66.5t74 63t136 65.5t183.5 65q75 23 206.5 56.5t251.5 58t192 34.5q-19 47 -63 69t-139.5 31.5t-299.5 12.5q-88 2 -119 5t-53 13q-41 20 -41 70 q0 33 18 59t62 51.5t135 65.5q131 56 216.5 110.5t129 108.5t43.5 109q0 71 -48.5 118.5t-119.5 47.5q-74 0 -157.5 -35.5t-175 -104.5t-191.5 -174q-219 -229 -402 -489q-43 -63 -81.5 -127t-94.5 -168q-24 -46 -41.5 -63t-40.5 -17q-40 0 -83.5 63.5t-43.5 124.5zM760 41 q0 -45 40.5 -72.5t108.5 -27.5q70 0 152 17t176.5 52.5t179.5 81.5q277 145 277 273q0 6 -4 34q-76 -7 -175.5 -27.5t-219 -52t-244.5 -73.5q-158 -52 -224.5 -99t-66.5 -106z" />
<glyph unicode="C" horiz-adv-x="1630" d="M117 500q0 177 116 332t340 280q144 80 307.5 129t282.5 49q152 0 152 -73q0 -14 -7.5 -30.5t-31.5 -58.5h31q42 0 84.5 -17t42.5 -36q0 -5 -3.5 -10t-9.5 -11.5t-22.5 -20.5t-38.5 -32t-96 -81q-88 -86 -265 -263q-68 -71 -139 -71q-46 0 -74 30t-28 78q0 30 11.5 61 t37 67.5t57.5 66.5q86 83 161 132.5t155 76.5l32 53q23 38 23 57q0 49 -78 49q-62 0 -157 -27t-192 -70t-183 -99q-148 -96 -225.5 -213.5t-77.5 -249.5q0 -90 48 -167.5t130 -119.5q68 -35 153 -59t181 -35.5t208 -11.5q175 0 325 35.5t218 93.5q34 29 54 76.5t20 99.5 q0 16 -2 22q-4 22 -4 21q0 16 12 16q23 0 23 -67q0 -146 -112 -263.5t-311.5 -184t-447.5 -66.5q-162 0 -293 35.5t-221 102t-138 162.5t-48 212z" />
<glyph unicode="D" horiz-adv-x="1989" d="M68 600q0 53 42 99.5t114.5 73t156.5 26.5q66 0 119.5 -14t107.5 -47t125 -95q41 -34 271 -244q182 -163 295.5 -226.5t216.5 -63.5q99 0 186.5 52t140.5 140t53 184q0 25 -2 45q-111 -55 -270 -55q-257 0 -469 166q-114 90 -180 201t-66 215q0 83 44.5 150t123 106 t174.5 39q95 0 191 -34.5t184 -96t158 -145.5t106 -175h19q48 0 79 -48t31 -120q0 -50 -14.5 -89t-50.5 -83q4 -48 4 -55q0 -78 -29.5 -160t-79.5 -145q-77 -98 -196 -152.5t-260 -54.5q-276 0 -521 184q-68 51 -116.5 93.5t-155.5 142.5q-165 161 -247 218.5t-144 57.5 q-43 0 -69.5 -27.5t-26.5 -70.5q0 -47 34.5 -95t121 -113.5t227.5 -154.5q26 -14 26 -30q0 -15 -12 -15q-21 0 -129 60q-163 96 -238 182t-75 174zM1081 1112q0 -85 70 -180t197 -180q110 -73 218 -112.5t203 -39.5q70 0 123 33q-18 88 -48 166t-73 145t-100 127 q-57 62 -127.5 109t-142 73.5t-135.5 26.5q-77 0 -131 -50t-54 -118z" />
<glyph unicode="E" horiz-adv-x="1538" d="M121 838q0 33 45 135q62 -26 127 -47t132.5 -38.5t119.5 -25.5q85 148 197 259t238.5 174.5t254.5 72.5l4 -25q-108 -16 -213.5 -84t-194 -175t-153.5 -246q103 -23 291.5 -38t412.5 -16q-90 -70 -202.5 -99.5t-282.5 -29.5q-142 0 -291 21q-18 -75 -18 -123 q0 -75 39.5 -147t107.5 -123q88 -66 205.5 -106t230.5 -40q85 0 155.5 32.5t112 90t46.5 129.5q3 29 16 29q17 0 17 -39q0 -37 -18.5 -88t-47.5 -90q-82 -110 -222.5 -178t-287.5 -68q-225 0 -371 139q-50 47 -79.5 97.5t-44.5 114t-15 134.5q0 128 45 256q-208 28 -299 72 q-38 20 -47.5 32.5t-9.5 37.5zM1231 1112q0 51 11.5 100.5t30 85t38.5 45.5q7 5 98 5q27 2 47 2h10q16 -28 41 -62l-8 -22q-37 -102 -37 -144q0 -18 5.5 -27t25.5 -19.5t45 -20.5q-84 -29 -213 -29q-94 0 -94 86z" />
<glyph unicode="F" horiz-adv-x="1331" d="M68 1362q76 -31 137 -49.5t128.5 -28.5t172.5 -18q85 -6 219 -10t231 -5h64l49 84l70 11l-56 -95q107 0 189 -2h94q78 0 143 6q-64 -144 -102 -159q-28 -15 -152 -23q-278 -16 -292 -16l-154 -273q88 -33 187 -54t212 -31.5t246 -12.5q-75 -71 -166 -104t-217 -33 q-182 0 -371 59q1 -32 3 -59t2 -41q0 -156 -35.5 -278.5t-126.5 -284.5q-42 -75 -87.5 -154.5t-62.5 -104.5t-26 -31.5t-25 -6.5q-39 0 -63.5 49.5t-24.5 130.5q0 78 40.5 171t147.5 259l93 143q36 54 57 82q39 58 39 92q0 24 -10.5 38t-36.5 28q-54 29 -70 40.5t-16 23.5 t24 59q47 96 74 96q8 0 139 -49l25 -8l143 250l-61 -4q-166 -13 -273 -13q-114 0 -224.5 38t-180.5 100q-42 40 -64 83t-32 105z" />
<glyph unicode="G" horiz-adv-x="1520" d="M-111 -78q0 105 88 197q28 29 52 47t34 18q7 0 12 -4t5 -10q0 -4 -14 -20q-54 -61 -54 -144q0 -86 48 -154.5t132.5 -106.5t188.5 -38q159 0 304.5 84t299.5 266q64 77 110 140.5t82 125t70 136.5q-158 -96 -215 -123q-243 -119 -454 -119q-101 0 -184 45.5t-130 126 t-47 178.5q0 221 199 420q110 107 247.5 169.5t260.5 62.5q14 0 26 -2q0 60 23 96t74 53q95 -73 160 -111.5t159 -76.5q18 -9 18 -19q0 -47 -79 -149q-16 -19 -26 -24t-30 -5q-27 0 -86 38.5t-112 90.5q-48 47 -70 59.5t-53 12.5q-90 0 -170.5 -38t-145.5 -112 q-75 -86 -117 -192.5t-42 -210.5q0 -94 37.5 -164.5t108.5 -109t163 -38.5q177 0 393 132q64 39 89.5 60.5t51.5 63.5q39 64 74 89q28 17 65 27.5t70 10.5q37 0 37 -32q0 -26 -26.5 -96.5t-68.5 -154.5t-77 -138q-68 -108 -137.5 -188.5t-152 -147.5t-181.5 -121t-209 -94 q-70 -26 -131 -42.5t-117 -24t-123 -7.5q-133 0 -231 31.5t-148.5 91.5t-50.5 145z" />
<glyph unicode="H" horiz-adv-x="2261" d="M41 33q0 103 80 215t219 198q114 73 226 115.5t292 81.5l33 8q25 47 27 51q26 60 57 117l57 111l27 55q-77 -46 -99 -55.5t-49 -9.5q-71 0 -118 73q-35 57 -35 97q0 18 12 18q8 0 12 -2q26 -4 39 -4q29 0 60.5 20t95.5 78l98 88l31 29q17 14 27 14q8 0 26 -10l31 -14 q100 -52 100 -72q0 -10 -57 -82q-23 -30 -75 -118.5t-106.5 -193.5t-82.5 -171q136 30 477 92q54 95 130 182.5t179 177.5q127 109 258.5 178.5t212.5 69.5q39 0 64.5 -23.5t25.5 -62.5q0 -65 -40 -157.5t-103 -172.5q-58 -71 -123 -126.5t-146.5 -103t-160.5 -77.5 q-114 -43 -303 -76q-23 -71 -23 -137q0 -182 148 -305q67 -58 147 -90.5t150 -32.5q100 0 180.5 76.5t122.5 214.5q5 18 18 18q19 0 19 -16t-15 -61q-29 -78 -88 -165t-123 -147q-130 -121 -286 -121q-108 0 -194.5 55.5t-134.5 154t-48 223.5q0 154 63 325 q-72 -14 -278 -47q-144 -20 -230 -37q-94 -180 -212 -321.5t-238 -220t-219 -78.5q-67 0 -112.5 49.5t-45.5 124.5zM90 29q0 -50 36.5 -83.5t92.5 -33.5q62 0 143.5 47t157.5 125q90 92 162 192.5t117 194.5q-87 -9 -198 -36t-187 -58q-140 -55 -232 -153.5t-92 -194.5z M1518 778q257 37 436 107q85 34 149 85t99.5 112.5t35.5 119.5q0 37 -19.5 57.5t-55.5 20.5q-61 0 -159.5 -52t-215.5 -149q-90 -73 -147.5 -137.5t-122.5 -163.5z" />
<glyph unicode="I" horiz-adv-x="1106" d="M178 872q0 88 26.5 178.5t67.5 137.5q45 51 109.5 81.5t165 45t231.5 14.5q251 0 362 -40.5t111 -135.5q0 -100 -141 -446q-46 -113 -88 -200.5t-94 -179t-117 -196.5q-62 -96 -117.5 -140t-115.5 -44q-75 0 -156 51q-49 33 -71.5 64.5t-22.5 72.5q0 93 106 197 q62 -81 104.5 -110t98.5 -29q57 0 105.5 27.5t93.5 85.5t96 155q135 264 135 477q0 67 -27 110t-75 56q-46 12 -185 12q-190 0 -303.5 -16.5t-171.5 -52.5q-27 -16 -43.5 -38t-26.5 -53.5t-16 -81.5q-6 -36 -20 -36q-21 0 -21 34z" />
<glyph unicode="J" horiz-adv-x="1206" d="M164 963q0 104 48.5 188t123.5 113q103 36 358 36q141 0 284 -14t198 -33q45 -13 72.5 -43.5t27.5 -66.5q0 -32 -10.5 -87t-28.5 -116.5t-45 -132.5q-43 -112 -82.5 -195.5t-144.5 -277.5q-23 -43 -29 -60q204 95 334 132q-14 -10 -26.5 -18.5t-24.5 -16.5l-154 -92 q-102 -63 -188 -149.5t-138 -180.5q-118 -194 -203.5 -277.5t-166.5 -83.5q-46 0 -76.5 25.5t-30.5 64.5q0 53 47.5 126.5t126.5 150.5t184.5 151t213.5 127q101 166 163.5 291.5t93.5 224.5t31 175q0 62 -34 109t-91 65q-45 12 -149 12q-173 0 -330.5 -23.5t-224.5 -58.5 q-50 -27 -71.5 -61t-24.5 -86q0 -25 -15 -25q-10 0 -14 23t-4 84z" />
<glyph unicode="K" horiz-adv-x="1747" d="M82 119q0 22 27 61q34 56 71 123q137 249 174 326q-68 -17 -84 -23q-8 -4 -14 -4q-10 0 -10 12q0 31 80 54q25 9 65 20q77 147 139 270q89 175 138 263.5t59 97.5q20 14 83 29.5t103 15.5q48 0 48 -27q0 -13 -13 -34t-127 -185l-268 -397q32 -8 51 -14q258 93 325 120 t187 86q146 72 178.5 91t32.5 34q0 9 -8 17q-10 13 -10 18q0 17 39 41q42 29 76 59.5t124 122.5q136 -15 182 -28.5t46 -34.5q0 -35 -46.5 -82t-115 -86t-133.5 -53q-14 -2 -39 -19q-104 -51 -234.5 -106.5t-269 -105t-281.5 -93.5q83 -32 119.5 -51.5t78 -58t167.5 -168.5 q90 -93 157 -154.5t122 -98.5t102.5 -53t93.5 -16q90 0 151.5 57t61.5 140q0 14 -12 59v4q0 19 16 19q12 0 21.5 -24.5t9.5 -61.5q0 -135 -113.5 -228.5t-275.5 -93.5q-237 0 -445 225q-32 37 -178 234q-80 112 -132.5 157t-117.5 54q-18 -29 -114 -189q-109 -178 -187 -295 q-38 -61 -65 -61q-13 0 -24 11t-11 24z" />
<glyph unicode="L" horiz-adv-x="1628" d="M63 274q0 59 36 109t97.5 78t137.5 28q111 0 258 -77q77 74 183 204.5t118 167.5q-107 13 -170 115q114 0 205.5 33t166 101t136.5 173q32 49 50 62.5t50 13.5q33 0 59.5 -23t41 -61.5t14.5 -87.5q0 -176 -229 -281q-106 -46 -218 -49q-41 -60 -149.5 -170.5 t-226.5 -214.5q41 -20 97 -50t144 -75q113 -59 218 -88.5t202 -29.5q95 0 174 39t123.5 105.5t44.5 147.5q0 31 -2 52q-2 6 -2 18q0 16 12 16q27 0 27 -86q0 -57 -23.5 -117t-66 -114t-98.5 -94q-55 -38 -121 -67t-137.5 -45.5t-131.5 -16.5q-55 0 -114.5 14.5t-142.5 50 t-179 84.5q-29 15 -94 51q-20 12 -47.5 27.5t-42.5 24.5q-76 -63 -135.5 -91t-114.5 -28q-62 0 -106 44t-44 107zM96 260q0 -45 32.5 -76.5t78.5 -31.5q50 0 100 25.5t117 86.5q-150 98 -227 98q-28 0 -51 -14t-36.5 -37t-13.5 -51z" />
<glyph unicode="M" horiz-adv-x="2503" d="M109 57q0 31 30 91t121 206q130 205 195 316.5t92.5 175.5t27.5 104q0 46 -41.5 75.5t-105.5 29.5q-52 0 -133 -33l55 115q27 59 39 71q6 7 34 15t50 8q58 0 108 -27t77.5 -74t27.5 -106q0 -42 -24 -110.5t-64 -141.5q-83 -149 -137 -250q-36 -67 -82 -147h10 q41 49 90 108q175 217 363 394q160 148 277.5 216t217.5 68q71 0 111.5 -39.5t40.5 -107.5q0 -82 -62 -236t-190 -393h8q23 24 74 88l135 172q98 124 205.5 223t201.5 157t152 58q57 0 101.5 -47.5t66.5 -134.5q17 -58 32.5 -160.5t45.5 -337.5q10 -93 32.5 -130t61.5 -37 q68 0 156 69l6 -8q-73 -88 -162 -162q-62 -53 -105 -75.5t-83 -22.5q-49 0 -74.5 38.5t-42 151.5t-31.5 328q-12 170 -23.5 243t-33.5 109q-14 29 -40 46.5t-54 17.5q-40 0 -114 -72.5t-200.5 -237t-322.5 -444.5q-62 -86 -97 -113.5t-85 -27.5q-43 0 -69 15.5t-26 43.5 q0 31 15 60t114 190q105 172 164.5 283.5t90 194.5t30.5 136q0 43 -29 72t-73 29q-69 0 -159 -61.5t-199 -184.5t-237 -308.5t-274 -430.5q-47 -79 -86 -107t-100 -28q-46 0 -73 21t-27 56z" />
<glyph unicode="N" horiz-adv-x="1796" d="M96 59q0 33 37 95.5t189 285.5q160 234 219 348t59 183q0 45 -37 73.5t-98 28.5q-58 0 -137 -22l39 94q24 59 53 83.5t74 24.5q34 0 74.5 -14t70.5 -39q84 -63 84 -162q0 -46 -24 -105t-101 -204q-100 -179 -192 -323h10q133 152 158 180.5t63 70.5t75 79t62 61 q104 98 199.5 166.5t176.5 102.5t144 34q53 0 96 -28.5t66 -76.5q12 -23 19 -50t12.5 -55t15.5 -91t27 -197q27 -199 37 -246t28 -71q21 -27 62 -27q23 0 41.5 7t89.5 46l22 13q-29 -51 -56 -80.5t-93 -85.5q-69 -58 -112 -81.5t-83 -23.5q-80 0 -104 94q-1 3 -10 80 t-25 197l-33 330q-12 131 -26 172q-12 40 -39 64t-58 24q-50 0 -114 -46.5t-157 -152t-203 -258.5t-257 -377q-51 -79 -83 -116t-62.5 -50.5t-75.5 -13.5q-123 0 -123 59z" />
<glyph unicode="O" horiz-adv-x="1655" d="M137 504q0 155 69.5 303.5t201.5 277.5q121 115 248 177.5t239 62.5q74 0 110.5 -32t55.5 -113q112 24 199 24q99 0 182.5 -28t143 -80t92 -122.5t32.5 -158.5q0 -90 -36.5 -192t-103.5 -200.5t-157 -182.5q-61 -57 -139 -106t-161.5 -82t-170 -49.5t-170.5 -16.5 q-140 0 -257 38t-201 107t-130.5 165t-46.5 208zM362 625q0 -121 33.5 -203t106.5 -141q80 -65 186.5 -100.5t220.5 -35.5q160 0 324 62q83 31 159.5 91t135.5 138q94 127 94 250q0 100 -54.5 174.5t-154 115t-231.5 40.5q-171 0 -342 -71t-283 -189q-112 -120 -151 -271 l-21 4q1 45 19.5 102.5t51 119.5t76.5 125q94 129 210 205.5t292 129.5q-15 52 -33 74q-35 43 -112 43q-88 0 -184 -52t-175 -142q-81 -96 -124.5 -216.5t-43.5 -252.5z" />
<glyph unicode="P" horiz-adv-x="1968" d="M-98 -193q0 41 37 110.5t129 195.5q50 66 109.5 133.5t217.5 236.5l183 453q-55 -34 -97 -48t-88 -14q-39 0 -72.5 17t-61 54.5t-46.5 88.5q37 -12 63 -12q56 0 137 46.5t162.5 121.5t145.5 166q51 -114 51 -213q0 -56 -27.5 -96t-91.5 -80l-161 -379q21 21 77 73.5 t119 114.5q132 126 267.5 226t270.5 173t255.5 109.5t224.5 36.5q116 0 210.5 -46.5t148 -127t53.5 -182.5q0 -85 -30.5 -176t-89.5 -179t-138 -163.5t-179 -137.5q-286 -174 -606 -174q-126 0 -255.5 35.5t-211.5 92t-82 112.5q0 30 25 55t53 25q22 -2 55.5 -19.5 t63.5 -46.5q15 -13 20.5 -26.5t8.5 -47.5q1 -23 7.5 -40t20 -29.5t31.5 -22.5q81 -43 256 -43q146 0 283 49t268 148q95 72 160.5 151.5t99 161.5t33.5 164q0 105 -66 174q-51 57 -128.5 88t-162.5 31q-104 0 -219.5 -32t-231 -93t-214.5 -143q-284 -233 -449 -416 q-124 -393 -256 -629q-43 -77 -77.5 -108t-75.5 -31q-52 0 -90.5 33.5t-38.5 78.5z" />
<glyph unicode="Q" horiz-adv-x="1683" d="M141 504q0 155 69.5 303.5t201.5 277.5q121 115 248.5 177.5t238.5 62.5q74 0 110.5 -32t55.5 -113q112 24 199 24q100 0 182.5 -28t142 -80t91.5 -124.5t32 -158.5q0 -77 -26.5 -163t-74 -168.5t-106.5 -145.5l39 -37q61 -55 98 -55q41 0 74 35q14 14 21 14q14 0 14 -12 q0 -15 -70 -84q-55 -53 -80.5 -74.5t-43.5 -30t-37 -8.5q-28 0 -80 49l-66 68q-76 -54 -168 -109q-93 -51 -206 -78.5t-224 -27.5q-140 0 -257 38t-201 107t-130.5 165t-46.5 208zM367 625q0 -120 33 -202.5t106 -141.5q79 -66 184.5 -101t222.5 -35q98 0 204 26t202 73 l-96 96q-37 37 -37 55t51.5 69.5t69.5 51.5q14 0 24.5 -8t46.5 -45l92 -94q154 153 154 317q0 74 -30.5 135t-88.5 104.5t-138 67t-181 23.5q-171 0 -342 -71t-283 -189q-113 -121 -151 -271l-21 4q6 145 148 347q63 86 132 146.5t160.5 106.5t208.5 82q-15 51 -32 74 q-37 43 -113 43q-88 0 -184.5 -52.5t-173.5 -141.5q-168 -199 -168 -469z" />
<glyph unicode="R" horiz-adv-x="2107" d="M82 133q0 41 65 154q66 110 213 321q21 30 49 71t66 97q19 28 19 41v8q-13 -2 -33 -2q-24 0 -47 14t-56 48q-65 77 -65 110q0 23 26 23q9 0 46 -12q20 -5 34 -5q39 0 114 47.5t165.5 127.5t181.5 182q25 -46 25 -90q0 -177 -164 -332q-34 -32 -125 -100 q-49 -41 -74.5 -69.5t-66.5 -88.5q-78 -113 -131 -182q-84 -119 -84 -138q0 -10 12 -10q7 0 41 21q58 35 82.5 50.5t67.5 46.5t98.5 73t210.5 161q106 82 218 162t210 144.5t192 119.5q127 74 222 121.5t156 66.5t110 19q39 0 73.5 -21t54 -58.5t19.5 -82.5 q0 -87 -53.5 -179.5t-141.5 -157.5q-131 -102 -325 -156q-121 -37 -193 -37l-92 4q-22 0 -22 -12q0 -28 135 -191q146 -179 258.5 -254t234.5 -75q77 0 137.5 32t95 88t34.5 125q0 36 -13 74q-4 20 -4 25q0 16 17 16q34 0 34 -123q0 -55 -24 -112.5t-64 -100.5 q-115 -123 -335 -123q-93 0 -177 20.5t-160 64.5t-147 110q-48 45 -85.5 89t-70 92.5t-81.5 133.5q-15 29 -15 37q0 16 33 37l104 57q47 27 76 27q8 0 39 -4q8 -2 39 -2q150 0 274.5 44t193.5 121t69 173q0 46 -19 83.5t-52.5 58t-78.5 20.5q-66 0 -131 -29t-203 -117 q-55 -36 -106 -72t-103 -77.5t-96 -79.5q-107 -95 -170.5 -160t-263.5 -283q-58 -63 -124 -124t-138 -117q-78 -60 -129 -60q-35 0 -58.5 22.5t-23.5 53.5z" />
<glyph unicode="S" horiz-adv-x="1663" d="M35 129q0 126 81.5 227t213.5 136l10 -25q-117 -48 -161 -98t-44 -136q0 -146 174 -229q92 -41 191 -60.5t223 -19.5q167 0 306.5 36t264.5 114q232 145 232 284q0 82 -61 118t-201 36q-56 0 -136 -8q-117 -8 -186 -8q-84 0 -155 11t-122 34t-87 61q-42 42 -65.5 103.5 t-23.5 132.5q0 140 95.5 259t261 187t364.5 68q79 0 120.5 -14t78.5 -52q32 12 43 12q49 0 61 -63q8 -37 14 -47.5t32 -32.5q12 -7 12 -18q0 -18 -21 -33q-34 -29 -71 -75.5t-45 -70.5q-12 -26 -25 -26q-10 0 -31 20q-17 18 -24.5 23.5t-22.5 13.5q-22 8 -67 23 q-27 9 -27 30q0 32 45 93q27 37 34 52.5t7 41.5q0 44 -38 62t-128 18q-135 0 -257 -53.5t-196.5 -142t-74.5 -185.5q0 -84 71.5 -130t202.5 -46q69 0 156 6q135 10 192 10q204 0 289 -49q52 -30 81.5 -81t29.5 -114q0 -73 -39 -160t-112.5 -174.5t-172.5 -164.5 q-89 -69 -173 -116.5t-177 -80.5t-186.5 -48.5t-184.5 -15.5q-177 0 -306.5 43.5t-197 125.5t-67.5 196z" />
<glyph unicode="T" horiz-adv-x="1440" d="M68 993q0 11 9.5 25t28.5 35l109 114q35 35 43.5 42t20.5 10q29 6 119 10t173 4q102 0 195.5 -5t189.5 -14q44 58 103 125l94 19q-58 -67 -109 -150q233 -22 408 -59q43 -6 43 -25q0 -22 -23 -53t-38 -31h-15q-35 4 -147 7.5t-160 3.5l-172 -4l-25 -3 q-91 -124 -149.5 -223t-84.5 -173.5t-26 -139.5q0 -62 26 -110.5t76.5 -83t120.5 -52.5t160 -18q130 0 221 31t158 98q11 14 25 14q10 0 10 -14t-49 -66q-97 -103 -178 -162.5t-161.5 -84.5t-180.5 -25q-128 0 -221 41.5t-143 119t-50 183.5q0 58 18.5 121t61 142t109.5 175 t169 227q-124 -2 -202 -6.5t-237 -23t-284 -35.5q-8 -2 -18 -2q-18 0 -18 16z" />
<glyph unicode="U" horiz-adv-x="2017" d="M170 315q0 76 64 218t169 301q-14 -3 -34 -3q-102 0 -154 113q46 0 99.5 25t113.5 72t135.5 121.5t165.5 180.5q10 17 21 17q13 0 24.5 -41t11.5 -92q0 -75 -34 -149t-95 -132q-32 -31 -57 -46.5t-102 -53.5q-54 -27 -82 -72q-117 -180 -117 -270q0 -103 86 -166 q46 -32 101 -45.5t141 -13.5q164 0 308.5 49t273 150t243.5 255q54 72 64.5 98t15.5 91q5 86 39 108q36 23 77.5 41.5t57.5 18.5q17 0 24.5 -19.5t10.5 -75.5l16 -327q8 -198 19 -238q8 -34 31.5 -56t52.5 -22q52 0 196 99l8 -11q-118 -111 -233.5 -189.5t-161.5 -78.5 q-69 0 -96 96q-26 95 -37 506q-88 -143 -328 -379q-102 -99 -221.5 -169.5t-245 -108t-245.5 -37.5q-97 0 -171.5 29.5t-114.5 83t-40 122.5z" />
<glyph unicode="V" horiz-adv-x="2003" d="M195 506q0 200 190 452q-53 8 -80 24.5t-57 59.5q-39 63 -39 84q0 15 12 15q8 0 17 -8q14 -10 20.5 -12.5t17.5 -2.5q34 0 102.5 33t152 88.5t143.5 108.5q17 14 26 14q16 0 41 -62t25 -102q0 -104 -205 -184q-109 -46 -137 -72q-53 -51 -90 -129.5t-37 -138.5 q0 -40 9 -69t39.5 -82t92.5 -148q169 268 255.5 378.5t232.5 241.5q121 109 242 182t245 111.5t240 38.5q135 0 246.5 -52t173 -142.5t61.5 -204.5q0 -97 -44.5 -207t-127 -216t-195.5 -196q-97 -80 -210.5 -137t-230 -87t-230.5 -30q-83 0 -173 30.5t-153 80.5 q-41 28 -41 67q0 27 20.5 46.5t49.5 19.5q38 0 69 -29q10 -7 24.5 -18.5t25.5 -20.5q12 -9 12 -20v-2q-1 -9 -2 -14t-2 -7q0 -8 16 -28q46 -62 178 -62q140 0 287.5 60t273.5 170q124 109 189 235t65 260q0 199 -172 275q-113 51 -245 51q-122 0 -264.5 -48t-264.5 -128 q-130 -87 -268.5 -257.5t-253.5 -383.5q40 -67 62 -147.5t22 -153.5q0 -70 -29 -112t-76 -42q-46 0 -77 49.5t-31 124.5q0 54 22 131q-75 80 -120 168t-45 156z" />
<glyph unicode="W" horiz-adv-x="2834" d="M162 354q0 53 65 160q36 59 55 86t177 238q19 24 49 65h-37q-159 0 -180 197q35 -10 61 -10q42 0 94.5 15.5t110.5 45.5q46 23 99.5 57.5t97 69.5t61.5 55q18 15 21 15q10 0 16 -23t6 -65q0 -201 -192 -304q-67 -35 -97 -63l-16 -16q-70 -70 -166 -213q-53 -74 -53 -129 q0 -50 37.5 -83.5t93.5 -33.5q33 0 62 10.5t74.5 38.5t152.5 102q127 88 169.5 117.5t100.5 73.5q48 100 101 184t114 160q76 100 131 100q31 0 48.5 -16.5t17.5 -46.5q0 -64 -66.5 -146t-177.5 -153q-76 -164 -76 -197q0 -40 64 -127q109 -156 116.5 -166t51.5 -67 q68 307 243 544q86 114 204.5 220.5t232.5 173.5q108 63 213.5 94t218.5 31q149 0 265.5 -55.5t180.5 -155t64 -226.5q0 -158 -116 -333t-304 -302q-128 -87 -267.5 -133.5t-275.5 -46.5q-129 0 -222 36t-93 83q0 35 24.5 59.5t55.5 24.5q19 0 106 -39q14 -5 23 -15.5 t24 -39.5q14 -23 59.5 -42.5t86.5 -19.5q122 0 274 69t250 169q64 66 105 132.5t63 137.5t22 144q0 109 -52 190t-149 124.5t-229 43.5q-151 0 -302.5 -56t-278.5 -160t-211 -239q-74 -115 -116.5 -244.5t-47.5 -252.5q44 -65 73 -156.5t29 -167.5q0 -41 -15.5 -66.5 t-39.5 -25.5q-29 0 -58.5 45t-49 114.5t-19.5 135.5q0 18 2 35q-70 56 -128 108.5t-97 94t-80 92.5t-57.5 79.5t-16.5 51.5q0 33 53 161q-139 -117 -364 -272q-245 -164 -369 -164q-43 0 -71.5 25.5t-28.5 62.5z" />
<glyph unicode="X" horiz-adv-x="1466" d="M-164 33q0 52 27.5 86.5t99.5 73.5q59 30 275 172q194 126 217.5 142t91.5 66q-19 170 -19 299q0 113 6.5 155t26.5 60q32 32 82 54t84 22q39 0 39 -51q0 -9 -4 -53q-19 -127 -19 -273v-67q113 99 228.5 206.5t169.5 164.5q18 85 34 125.5t39 66.5q62 68 222 68 q12 0 86 -4q-81 -93 -134 -207t-53 -195q0 -25 5.5 -41.5t25.5 -50.5q-36 -4 -43 -4q-81 0 -135 45q-18 15 -27 31.5t-20 50.5q-66 -68 -129 -123q-183 -151 -242 -201l-22 -20q1 -85 13.5 -174t35 -175t51.5 -155q75 -186 225 -186q52 0 117 32t106 76q60 65 105 144 q14 20 22 20q19 0 19 -23q0 -17 -72 -116q-69 -95 -162.5 -151t-183.5 -56q-109 0 -202 68.5t-158 199.5q-65 133 -107 361q-31 -25 -138.5 -103t-214 -154.5t-163.5 -115.5q-168 -117 -182 -117q-12 0 -17.5 6.5t-5.5 20.5z" />
<glyph unicode="Y" horiz-adv-x="1495" d="M0 -74q0 60 45 118.5t131.5 108.5t202.5 85q151 47 324 72.5t333 25.5q58 0 107 -2q48 103 89 211t60 187t19 128q0 51 -41 51q-23 0 -47 -22q-105 -84 -238 -176q-149 -100 -262.5 -144.5t-210.5 -44.5q-77 0 -139 33t-96.5 91.5t-34.5 135.5q0 92 53.5 212.5 t148.5 240.5q47 58 81.5 85.5t64.5 27.5q22 0 38.5 -15.5t16.5 -38.5q0 -26 -17.5 -54.5t-45.5 -48t-54 -22.5q-28 -3 -38 -7.5t-29 -20.5q-45 -40 -65.5 -82t-20.5 -96q0 -76 43 -140t120 -99.5t171 -35.5q70 0 140.5 21t148.5 67.5t171 125.5t191 177q67 68 106.5 104.5 t57.5 45t43 8.5q55 0 55 -65q0 -62 -59 -232q-103 -281 -324 -612q118 -7 151 -12t33 -21q0 -18 -20 -18q-7 0 -31 4q-123 9 -153 12q-107 -171 -330 -344q-136 -103 -288.5 -160t-291.5 -57q-87 0 -158 25t-111 68.5t-40 98.5zM133 -14q0 -72 71 -115t191 -43 q60 0 122 10.5t123 32t119 53t107 68.5q75 56 130.5 121.5t131.5 185.5h-51q-324 0 -614 -84q-175 -47 -252.5 -101.5t-77.5 -127.5z" />
<glyph unicode="Z" horiz-adv-x="1714" d="M20 96q0 69 51 137.5t138 121.5t197 83.5t227 30.5q121 0 325 -27q153 134 207 201q-25 10 -62.5 26t-45.5 23t-8 15q0 26 40 84.5t56 58.5q8 0 47 -19q63 -26 104 -40q181 212 181 286q0 35 -27 52.5t-92.5 24.5t-186.5 7q-191 0 -359 -21t-269 -59 q-66 -24 -122.5 -77.5t-88.5 -122.5q-8 -21 -21 -21q-10 0 -10 17v18q0 112 21 209q19 87 114.5 143.5t271 83.5t437.5 27q92 0 163 -4.5t136 -12t114 -18.5t80 -25q28 -10 43 -29t15 -44q0 -35 -52 -109.5t-186 -230.5q-41 -47 -94 -111q19 -5 102 -8h9q5 0 7.5 -3t2.5 -7 q0 -11 -35 -54q-80 -92 -147 -92q-15 0 -74 15l-10 4q-55 -55 -96 -93.5t-70 -65t-39 -36.5q269 -44 408 -78.5t208 -76.5q25 -14 32 -29.5t7 -59.5q0 -47 -7 -131t-15 -118q-3 -17 -17 -17q-12 0 -12 19q-7 53 -32.5 84t-92.5 67q-102 51 -278 102t-384 93 q-76 -67 -167.5 -131t-186.5 -113q-93 -50 -155 -70t-125 -20q-80 0 -128.5 39.5t-48.5 101.5zM57 94q0 -43 40 -70.5t104 -27.5q51 0 111 19.5t151 64.5q102 52 165 96t150 125q-201 41 -299 41q-152 0 -266 -51q-44 -21 -79.5 -53t-56 -69.5t-20.5 -74.5z" />
<glyph unicode="[" horiz-adv-x="891" d="M31 -389q0 48 28 141t86.5 234t131.5 293t174 348q121 236 194 355t264 394q60 -41 142 -41q72 0 153 37q28 12 37 12q29 0 29 -41t-27.5 -74.5t-76.5 -53t-109 -19.5q-99 0 -146 47q-86 -121 -164 -248.5t-161 -281t-156 -307.5q-274 -578 -274 -711q0 -34 23.5 -62.5 t62.5 -40.5q31 -10 102 -14q37 -3 48 -8.5t11 -22.5q0 -43 -17.5 -72.5t-41.5 -29.5q-20 0 -89.5 11.5t-115.5 23.5q-50 15 -79 49.5t-29 81.5z" />
<glyph unicode="\" horiz-adv-x="858" d="M172 1358q0 26 23 26q19 0 74 -18.5t69 -28.5q27 -13 40 -34.5t32 -77.5l604 -1737l4 -12q4 -12 4 -15q0 -16 -25 -16t-36 5.5t-22 24t-34 70.5l-708 1739l-11 27q-14 30 -14 47z" />
<glyph unicode="]" horiz-adv-x="891" d="M-446 -514q0 41 28 75t77.5 53t107.5 19q52 0 87 -12t58 -35q129 184 251 396.5t230 441.5q275 580 275 711q0 36 -24 64t-62 38q-33 10 -103 14q-38 3 -48.5 8.5t-10.5 22.5q0 40 17.5 71t41.5 31q25 0 95 -12t110 -22q49 -15 79 -50t30 -81q0 -48 -27.5 -140.5 t-84.5 -229.5t-133 -296.5t-175 -349.5q-82 -156 -117.5 -220.5t-74.5 -128.5t-111.5 -171.5t-157.5 -229.5q-58 41 -139 41q-79 0 -154 -37q-27 -12 -37 -12q-28 0 -28 41z" />
<glyph unicode="^" horiz-adv-x="1024" d="M53 584l570 850h14l545 -850h-84l-406 624l-418 -624h-221z" />
<glyph unicode="_" horiz-adv-x="1024" d="M150 -182h937v-94h-937v94z" />
<glyph unicode="`" horiz-adv-x="1024" d="M567 831q0 28 23 48t53 20t51 -16t21 -39q0 -8 -2 -17v-14q0 -40 32.5 -80.5t77.5 -58.5q19 -9 19 -17q0 -10 -15 -10q-20 0 -59.5 12.5t-73.5 30.5q-58 31 -92.5 70t-34.5 71z" />
<glyph unicode="a" horiz-adv-x="967" d="M47 121q0 63 40.5 129t106.5 117t146 81.5t162 30.5q20 0 78 -2q52 86 104 86q24 0 38.5 -16t14.5 -43q0 -20 -3 -28t-21 -40l-13 -22q105 -52 105 -144q0 -26 -6 -59q-6 -35 -6 -37q0 -33 30 -33q16 0 53.5 15.5t174.5 79.5q-67 -63 -164 -127q-113 -72 -168 -97.5 t-96 -25.5q-27 0 -48.5 19.5t-21.5 43.5q1 21 8 35t49 86q41 64 41 94q0 33 -37 55q-132 -145 -253.5 -233t-192.5 -88q-58 0 -89.5 32.5t-31.5 90.5zM287 266q0 -39 26.5 -64.5t67.5 -25.5q31 0 63.5 15t68 48.5t83.5 92.5q-37 36 -37 69q0 16 8 60q-22 2 -45 2 q-58 0 -113 -28t-88.5 -74t-33.5 -95z" />
<glyph unicode="b" horiz-adv-x="696" d="M74 190q0 31 22.5 95.5t72.5 168.5t108.5 209.5t132.5 229.5q66 112 96 150t51 38q39 0 39 -133q0 -166 -111 -289q-29 -33 -137 -135q-83 -80 -119 -130.5t-36 -84.5q0 -46 114 -112q109 -68 164 -68q49 0 82 42t33 103q0 5 -4 25q-183 6 -183 68q0 14 7 27t47 83 q13 22 21.5 30.5t23.5 8.5q22 0 38.5 -12.5t65.5 -67.5q47 -49 86 -73t78 -27q-70 -28 -137 -35l-27 -2v-16q0 -74 -39 -141.5t-105 -107.5t-139 -40q-64 0 -120.5 27.5t-90.5 73t-34 95.5z" />
<glyph unicode="c" horiz-adv-x="606" d="M63 164q0 91 70.5 167.5t208.5 135.5q134 57 225 57q35 0 55.5 -15t20.5 -38q0 -47 -61 -47q-40 0 -82 16q-51 21 -82 21q-44 0 -84 -24t-64 -64t-24 -84q0 -68 39 -109t106 -41q60 0 146.5 32t154.5 79l6 -8q-149 -119 -278 -189.5t-195 -70.5q-65 0 -113.5 55 t-48.5 127z" />
<glyph unicode="d" horiz-adv-x="971" d="M63 137q0 107 67.5 195.5t191.5 144.5q50 23 131.5 41.5t121.5 18.5q23 0 23 -13q0 -10 -29 -12q-135 -12 -225 -76t-90 -145q0 -46 30.5 -78.5t73.5 -32.5t95.5 31t154.5 117q117 334 344 659q59 82 90 82q39 0 39 -115q0 -113 -37 -189.5t-147 -186.5 q-136 -136 -185.5 -196t-49.5 -89q0 -35 34 -69.5t88.5 -57.5t104.5 -23q31 0 53.5 11t75.5 55q9 8 41 31q-54 -77 -166 -174q-54 -49 -93.5 -69t-86.5 -20q-69 0 -110.5 40.5t-41.5 111.5q0 60 25 160q-107 -111 -181.5 -179t-122.5 -95t-89 -27q-63 0 -96.5 39t-33.5 110z " />
<glyph unicode="e" horiz-adv-x="586" d="M55 172q0 73 43.5 146.5t118.5 132.5q62 49 145 85.5t132 36.5q32 0 52.5 -19.5t20.5 -49.5q0 -54 -60.5 -112t-146.5 -89q-52 -19 -208 -37q1 -40 24 -62t86 -42q47 -13 95.5 -22t70.5 -9q56 0 110 25.5t132 87.5l6 -11q-88 -87 -165.5 -146t-140.5 -87.5t-114 -28.5 q-54 0 -100 27t-73.5 73.5t-27.5 100.5zM158 297q243 15 243 117q0 63 -59 63q-34 0 -71.5 -24t-68 -66t-44.5 -90z" />
<glyph unicode="f" horiz-adv-x="610" d="M39 -360q0 84 21 186.5t62.5 217t102.5 237.5l-18 30q-154 3 -154 39q0 11 22 31t49.5 36.5t39.5 16.5q-1 0 94 -18l31 -6q34 59 55 106q38 81 78 184q118 272 196 392q27 43 48 43q22 0 31.5 -17.5t9.5 -60.5q0 -128 -2.5 -178.5t-8.5 -69.5q-13 -53 -47 -100 q-19 -30 -35.5 -47.5t-91.5 -86.5q-83 -78 -109 -109t-42 -69q47 -6 100 -6q52 0 99.5 3.5t107.5 11.5q-42 -35 -87.5 -55.5t-98 -31t-121.5 -10.5q-33 0 -58 2l-18 -30q24 -93 24 -172q0 -101 -38.5 -244t-100.5 -268q-27 -55 -45.5 -77t-36.5 -22q-30 0 -44.5 35 t-14.5 107z" />
<glyph unicode="g" horiz-adv-x="870" d="M43 115q0 88 66 173.5t172 139t211 53.5q38 0 69 -2q31 50 43 64.5t23 21t28 6.5q56 0 56 -51q0 -31 -35 -100q69 -82 69 -164q0 -39 -36 -129q-3 -9 -10 -26.5t-11 -26.5q143 93 260 164l4 -11l-321 -288q-24 -85 -101 -201t-162.5 -201.5t-129.5 -85.5q-24 0 -42 33.5 t-18 79.5q0 40 15 68.5t57 72.5q190 187 297 272q57 43 73.5 65t16.5 52q0 39 -19 83t-51 73h-37q-73 -87 -136 -141.5t-123.5 -83.5t-110.5 -29q-51 0 -84 33t-33 86zM274 281q0 -49 26 -77t73 -28q41 0 73.5 20t67.5 64q-14 41 -14 57q0 68 55 148q-16 2 -37 2 q-67 0 -123.5 -24.5t-88.5 -67t-32 -94.5z" />
<glyph unicode="h" horiz-adv-x="954" d="M55 141q0 50 59.5 184t176.5 351q130 238 250 385q23 35 45 35t31.5 -21.5t9.5 -73.5q0 -80 -20 -141.5t-66 -122.5q-82 -108 -222 -241q-74 -68 -99 -102t-25 -64q0 -49 31 -91t65 -42q22 0 43 14t67 63q33 37 96.5 97.5t88.5 79.5q39 36 80 36q33 0 53 -36 q8 -17 18 -154q9 -111 23 -143q16 -37 49 -37q46 0 225 114l6 -8q-148 -137 -203 -184.5t-87.5 -63.5t-69.5 -16q-36 0 -56.5 21.5t-32 76t-20.5 162.5q-5 64 -17.5 89.5t-41.5 25.5q-20 0 -36 -11.5t-42 -39.5q-20 -21 -118 -117t-126 -119q-48 -41 -73 -41t-43.5 40.5 t-18.5 94.5z" />
<glyph unicode="i" horiz-adv-x="500" d="M66 154q0 50 25 112t71 117q35 42 71.5 86t53.5 60t26.5 19t26.5 3q23 0 39 -13.5t16 -33.5q0 -47 -116 -137q-47 -37 -64.5 -60.5t-17.5 -48.5q0 -43 51.5 -73.5t124.5 -30.5q65 0 117.5 19t113.5 65l4 -7q-118 -97 -188 -148t-116 -72t-83 -21q-65 0 -110 48t-45 116z M403 735q0 20 39 58l21 20l10 12q19 23 31 23q7 0 16 -12q25 -40 43.5 -59.5t57.5 -45.5q-46 -39 -67.5 -49t-57.5 -10q-38 0 -65.5 18.5t-27.5 44.5z" />
<glyph unicode="j" horiz-adv-x="489" d="M-14 -426q0 66 31.5 149.5t82.5 151.5q71 91 166 172q10 64 10 105q0 59 -21.5 110t-59 82t-82.5 31q-41 0 -105 -43l176 149q67 58 103 58q48 0 79 -47t31 -119q0 -35 -13 -77t-79 -222q39 27 52 37t100 77q67 55 145 111l-319 -360q-32 -132 -55 -195t-60 -129 q-32 -56 -68 -86.5t-69 -30.5q-45 0 -45 76zM319 735q0 20 39 58q16 10 31 32q19 23 31 23q7 0 16 -12q25 -40 43.5 -59.5t57.5 -45.5q-46 -39 -67.5 -49t-57.5 -10q-38 0 -65.5 18.5t-27.5 44.5z" />
<glyph unicode="k" horiz-adv-x="856" d="M57 117q0 67 47 190.5t154 339.5q121 245 270 424q23 29 41 29q41 0 41 -96q0 -97 -19.5 -159.5t-77.5 -133.5t-198 -211q-81 -79 -117 -124.5t-36 -66.5q0 -39 76 -108q132 139 184.5 193.5t80.5 79.5t68 54q115 86 168 86q27 0 44.5 -19.5t17.5 -47.5 q0 -35 -31.5 -67.5t-83.5 -47.5q-33 -10 -141 -10h-17h-22q-35 0 -35 -21q0 -20 92 -151q29 -42 53 -70.5t40 -37.5t36 -9q48 0 152 60q28 14 51.5 27t46.5 24q-120 -119 -215.5 -187.5t-138.5 -68.5q-20 0 -36 11t-42.5 44.5t-63.5 87.5l-106 158q-46 -46 -74 -83.5 t-80 -123.5q-36 -57 -67 -57q-25 0 -43.5 27.5t-18.5 64.5z" />
<glyph unicode="l" horiz-adv-x="514" d="M66 150q0 89 71.5 253.5t237.5 448.5q54 93 84.5 140t50.5 65t41 18q24 0 30.5 -21.5t6.5 -95.5q0 -84 -15.5 -141t-58 -114t-135.5 -150q-25 -25 -44 -43.5t-32 -32.5l-90 -90q-32 -30 -43.5 -48t-11.5 -38q0 -47 89 -96t171 -49q42 0 73.5 10t79.5 43l47 29 q-117 -117 -220.5 -182.5t-172.5 -65.5q-46 0 -82 20.5t-56.5 56.5t-20.5 83z" />
<glyph unicode="m" horiz-adv-x="1413" d="M61 92q0 116 31 196.5t98 143.5q117 111 181 111q26 0 26 -21q0 -12 -14 -39q-100 -176 -100 -245q0 -27 24 -27q16 0 29.5 9t46.5 38q51 46 133.5 111t147.5 106q58 41 92 41q29 0 47 -17t18 -46q0 -17 -1.5 -24t-18.5 -52q-6 -19 -31 -88q-16 -45 -16 -56q0 -26 22 -26 q14 0 28 10.5t77 67.5q199 182 258 182q33 0 48.5 -34.5t33.5 -145.5q14 -77 29.5 -105t45.5 -28q19 0 35.5 5.5t95.5 43.5q44 20 70 35q-67 -59 -114.5 -97.5t-116.5 -87.5q-58 -42 -78 -51.5t-41 -9.5q-28 0 -42.5 18.5t-27 65.5t-41.5 192q-15 64 -53 64q-21 0 -49 -19.5 t-84 -74.5q-131 -130 -195 -182t-90 -52q-19 0 -32 10t-13 27q0 23 23 76q71 175 71 211q0 17 -12 31t-27 14q-30 0 -114.5 -68.5t-265.5 -234.5q-42 -37 -58 -47.5t-31 -10.5q-45 0 -45 80z" />
<glyph unicode="n" horiz-adv-x="934" d="M55 78q0 99 28.5 173.5t94.5 143.5q52 55 105.5 90t85.5 35q13 0 19.5 -6t6.5 -16q0 -20 -30 -74q-34 -59 -58 -122t-24 -89q0 -27 18 -27q12 0 26 10t50 44q83 83 192 176q62 53 111 53q51 0 68 -68q2 -8 4 -32q2 -20 16 -125q4 -48 18.5 -68t42.5 -20q27 0 54.5 10 t101.5 47q3 2 35 18q-118 -111 -212.5 -177t-133.5 -66q-50 0 -66 47q-9 27 -18 123q-12 106 -25 139q-14 31 -45 31q-23 0 -47 -19t-119 -112q-71 -72 -204 -193q-33 -29 -48 -29q-47 0 -47 103z" />
<glyph unicode="o" horiz-adv-x="776" d="M61 164q0 87 69.5 171.5t188.5 143.5q44 22 93.5 41t62.5 19q6 0 6 -4q0 -9 -16 -15q-44 -12 -121 -61q-96 -59 -96 -148q0 -66 60.5 -112.5t142.5 -46.5q87 0 147 50t72 130q-31 -4 -82 -4q-107 0 -107 49q0 3 33 123q11 37 39 37q21 0 55 -37q84 -90 191 -90q3 0 53 4 q-18 -24 -63 -45.5t-97 -30.5q-10 -92 -72 -174.5t-155.5 -131t-192.5 -48.5q-92 0 -151.5 51t-59.5 129z" />
<glyph unicode="p" horiz-adv-x="932" d="M-27 -475q0 41 17 85t66 124t124 188l43 74q4 48 4 55q0 51 -18.5 118.5t-40.5 106.5q-12 24 -31 38t-37 14q-28 0 -108 -52q15 19 33.5 36t64.5 55q58 47 105 88q68 55 98 55q47 0 47 -78q0 -55 -13.5 -135t-31.5 -147q-10 -44 -19 -68l-10 -55q12 13 47 65 q113 166 147.5 209.5t96.5 104.5q130 122 229 122q56 0 90.5 -37t34.5 -96q0 -72 -60 -164t-157 -165q-126 -97 -215 -97q-59 0 -59 45q0 35 23 65t51 30q8 0 55 -15q48 -18 72 -18q55 0 92 50.5t37 125.5q0 54 -28 85.5t-77 31.5q-64 0 -123 -53t-119 -164 q-43 -83 -68.5 -149t-76.5 -232q-15 -50 -45 -117.5t-57 -112.5q-26 -44 -57.5 -70t-61.5 -26q-25 0 -44.5 23.5t-19.5 56.5z" />
<glyph unicode="q" horiz-adv-x="758" d="M49 137q0 75 61.5 152.5t160.5 131.5t204 64l2 -6q-112 -35 -168.5 -88t-56.5 -123q0 -52 32 -86.5t83 -34.5q53 0 96.5 43.5t103.5 155.5q-37 58 -45 79t-8 56q0 44 20.5 71.5t53.5 27.5q26 0 42.5 -19.5t16.5 -50.5q0 -12 -10 -45l-6 -21l14 -18q44 -58 58 -86t14 -61 q0 -26 -10.5 -60t-44.5 -115q-50 -110 -96.5 -202t-98.5 -183q-24 -42 -32 -61t-10.5 -40t-2.5 -71l-170 -84q-41 -20 -62 -20t-34 11t-13 30q0 28 37.5 84t249.5 350q85 117 120.5 171t49.5 90t14 67q0 45 -39 92q-50 -98 -96 -160q-58 -78 -140.5 -129t-148.5 -51 q-58 0 -99.5 40.5t-41.5 98.5z" />
<glyph unicode="r" horiz-adv-x="606" d="M86 283l53 61q33 35 33 45q0 6 -6 12q-8 13 -8 19q0 15 24 37l146 127q14 14 26 14q14 0 27.5 -9.5t13.5 -17.5q0 -10 -12 -22q-29 -27 -29 -39q0 -10 8 -18t39 -25q66 -35 82.5 -48t16.5 -30q0 -10 -5.5 -17t-29.5 -30q-71 -70 -96 -101.5t-25 -52.5q0 -23 20 -42 t44 -19q81 0 247 100l45 29q-76 -87 -239 -217q-99 -74 -146 -74q-46 0 -97.5 33.5t-51.5 62.5q0 12 6.5 26.5t20.5 31.5t40 43q57 57 71.5 77t14.5 42q0 32 -61 65l-25 12q-13 9 -20 9q-12 0 -45 -27z" />
<glyph unicode="s" horiz-adv-x="604" d="M96 100q0 47 25 82t61 35q21 0 42.5 -21t33.5 -53q12 -31 19 -42.5t16 -15t26 -3.5q30 0 57.5 21t44.5 56t17 68q0 41 -61 105q-80 80 -86 80q-7 0 -19 -9l-149 -100l-4 6l129 107q16 14 16 20q0 2 -10 17q-4 4 -4 14q0 8 11 19.5t32 31.5l117 94q28 23 43 23 q12 0 21 -8.5t9 -18.5q0 -14 -16 -41q-16 -24 -16 -32q0 -17 28 -39q37 -26 59.5 -67.5t22.5 -82.5q0 -57 -48.5 -136t-115.5 -134q-43 -34 -104.5 -62t-93.5 -28q-42 0 -72.5 34t-30.5 80z" />
<glyph unicode="t" horiz-adv-x="553" d="M78 475q0 11 10 33t21 33q12 12 34 12q15 0 50 -6l43 -8l26 -4l17 24l65 117q62 107 106 145.5t101 38.5q53 0 53 -31q0 -19 -16.5 -49t-40.5 -55q-39 -45 -67.5 -76.5t-86.5 -97.5l-28 -41q51 -2 98 -2q36 0 160 10q-109 -89 -322 -92q-57 -107 -57 -160q0 -46 54.5 -79 t133.5 -33q41 0 67.5 8.5t94.5 44.5q17 14 43 24q-31 -37 -69.5 -68t-129.5 -93q-64 -46 -108.5 -65t-85.5 -19q-58 0 -102 46.5t-44 110.5q0 42 19 93.5t88 193.5h-23q-104 0 -104 45z" />
<glyph unicode="u" horiz-adv-x="915" d="M41 139q0 94 82 213q128 187 201 187q24 0 38.5 -13.5t14.5 -38.5q0 -51 -90 -116q-76 -57 -91.5 -74t-15.5 -41q0 -22 14 -37t52 -33q71 -28 116 -28q49 0 87.5 20.5t87 73t122.5 154.5q66 88 111 88q25 0 41 -14t16 -36q0 -25 -23.5 -54t-92.5 -87q-47 -41 -47 -70 q0 -26 38.5 -50.5t77.5 -24.5q86 0 197 88l8 -6q-110 -107 -218 -179.5t-159 -72.5q-46 0 -81 49.5t-35 118.5v30q-204 -200 -310 -200q-39 0 -71.5 20.5t-51 55.5t-18.5 77z" />
<glyph unicode="v" horiz-adv-x="768" d="M55 266l131 140q40 41 65.5 60t45.5 19q15 0 28 -10t13 -24q0 -7 -4 -23q-17 -73 -17 -109q0 -82 21 -125.5t59 -43.5q89 0 221 147q-43 47 -43 86q0 33 29.5 75.5t70.5 71.5t73 29q20 0 33.5 -17t13.5 -42q0 -41 -56 -111q-32 -42 -32 -55q0 -24 25 -39t85 -27 q-43 -14 -69 -14q-52 0 -121 35q-66 -86 -142.5 -159.5t-144 -118t-104.5 -44.5q-50 0 -74.5 75t-24.5 218q0 47 -14 47t-35 -18q-5 -3 -13 -9t-20 -14z" />
<glyph unicode="w" horiz-adv-x="1018" d="M76 195q0 32 9 90.5t17 76.5q17 36 82 93q51 45 207 166q24 16 35 16q23 0 23 -23q0 -15 -21 -36q-73 -88 -106 -132q-50 -66 -50 -102q0 -57 62 -57q21 0 69 14q83 23 103 23q24 0 40 -14t68 -79q68 -81 144 -81q58 0 93.5 50t35.5 132q0 20 -2 43q-89 5 -153 34.5 t-64 63.5q0 24 41.5 69.5t66.5 45.5q8 0 35 -25q110 -98 144 -119t120 -43q-63 -26 -135 -26q-16 0 -31 2v-47q0 -182 -78 -287q-34 -50 -77.5 -79.5t-85.5 -29.5q-31 0 -49.5 14.5t-33 49t-42.5 125.5q-21 82 -35 105.5t-41 23.5q-31 0 -84 -31q-96 -60 -129 -78.5 t-59 -28.5t-43 -10q-76 0 -76 91z" />
<glyph unicode="x" horiz-adv-x="739" d="M59 16q0 47 54 84q122 89 188 142l-18 127q-10 69 -47 69q-26 0 -48.5 -13.5t-81.5 -64.5q-16 -12 -26 -18q14 26 35 49.5t96 93.5q43 41 77.5 58.5t73.5 17.5q34 0 52.5 -17t25.5 -55q16 -72 21 -120q10 6 24 20l68 66q50 50 96 84t62 34q20 0 20 -30q0 -43 -35 -58 q-124 -46 -233 -139l16 -110q15 -117 84 -117q35 0 97.5 33.5t130.5 89.5l12 -4q-83 -85 -180 -162q-66 -52 -109.5 -72t-85.5 -20q-82 0 -102 90q-7 19 -23 149q-115 -115 -176 -196q-33 -39 -47 -39q-9 0 -15 7.5t-6 20.5z" />
<glyph unicode="y" horiz-adv-x="856" d="M53 -494q0 62 45.5 128t149 152t276.5 204l41 30q23 78 23 117q0 47 -15.5 74t-44.5 27q-30 0 -75 -45q-23 -21 -94.5 -80t-94.5 -74q-61 -41 -104 -41q-44 0 -73.5 36t-29.5 91q0 137 140 291q101 104 139 104q20 0 33.5 -13.5t13.5 -33.5q0 -16 -10.5 -29t-44.5 -43 q-65 -56 -86 -82.5t-21 -52.5q0 -22 20 -45t48 -38t55 -15q49 0 140.5 74.5t222.5 222.5q40 47 65 47q49 0 49 -57q0 -55 -31 -125t-112 -199q-26 -41 -41 -72q124 81 250 152l33 18l16 11l6 -7l-156 -131l-67 -53l-103 -82q-35 -29 -73 -55q-48 -89 -108.5 -175.5 t-125.5 -162.5q-121 -133 -194 -133q-62 0 -62 65z" />
<glyph unicode="z" horiz-adv-x="686" d="M55 270l80 76q15 12 15 19q0 3 -7 14q-6 9 -6 14q0 16 33 43l129 113q23 14 35 14q16 0 16 -16q0 -7 -6 -15q-10 -17 -10 -30q0 -16 45 -19l96 -4q59 -3 79.5 -15t20.5 -42q0 -25 -36 -68l-136 -137q65 -20 148 -20q72 0 116.5 8t88.5 26q-36 -48 -106.5 -76t-157.5 -28 q-35 0 -67.5 4t-84.5 16q-78 -66 -78 -114q0 -33 36 -70t90.5 -61.5t98.5 -24.5q41 0 66 20t25 52q0 28 -23 71q-2 3 -2 9q0 10 8 10q16 0 30.5 -30.5t14.5 -65.5q0 -83 -63 -145t-146 -62q-105 0 -235 102q-58 46 -58 92q0 36 28 72.5t126 126.5q20 25 31 33l-25 8 q-31 12 -31 27q0 18 16.5 33.5t35.5 15.5q32 0 73 -19q50 47 50 82q0 19 -7 26t-36 11t-103 10h-74z" />
<glyph unicode="{" horiz-adv-x="698" d="M-55 -416q0 81 94 322t127 315q43 88 43 123q0 17 -8 24t-27 7q-44 2 -62 14t-18 45q0 27 14.5 44.5t36.5 17.5q15 0 43 -15q31 -12 50 -12q30 0 56 23.5t54 78.5q33 56 54 92t54 91t66.5 111.5t89.5 148.5q130 213 211 291.5t170 78.5q47 0 76 -12.5t29 -30.5 q0 -10 -8 -26q-5 -13 -10 -24.5t-9 -22.5q-9 -26 -17.5 -34.5t-27.5 -8.5q-18 0 -29 2q-32 4 -36 4q-128 0 -299 -260q-48 -74 -108 -176t-151 -271q-28 -52 -53 -78.5t-67 -48.5q26 -23 26 -53q0 -40 -116 -326q-123 -297 -123 -364q0 -60 100 -78q25 -6 36 -14t11 -21 q0 -29 -24 -62.5t-46 -33.5q-11 0 -65 18.5t-80 32.5q-57 34 -57 88z" />
<glyph unicode="|" horiz-adv-x="1024" d="M557 -342v1708h121v-1708h-121z" />
<glyph unicode="}" horiz-adv-x="698" d="M-438 -512q0 10 8 27q2 9 6 19t12 28q10 26 18.5 34.5t26.5 8.5q19 0 29 -2q32 -4 37 -4q42 0 90 29.5t98.5 86t110.5 144.5q69 108 118 192.5t140 253.5q28 53 53.5 79.5t65.5 47.5q-25 25 -25 53q0 42 117 326q123 297 123 365q0 27 -25.5 47.5t-75.5 29.5 q-49 12 -49 35q0 29 24.5 62.5t45.5 33.5q15 0 72 -20t75 -31q58 -33 58 -88q0 -78 -94 -321q-107 -269 -127 -316q-43 -87 -43 -123q0 -15 8 -22.5t26 -7.5q45 -2 62.5 -15t17.5 -45q0 -27 -14.5 -44t-36.5 -17q-14 0 -43 14q-30 12 -49 12q-31 0 -55.5 -22t-55.5 -80 q-20 -36 -112.5 -191.5t-151.5 -250.5q-88 -143 -150.5 -223.5t-115.5 -114t-115 -33.5q-42 0 -73 12.5t-31 30.5z" />
<glyph unicode="~" horiz-adv-x="1366" d="M362 1274q57 96 130.5 148.5t150.5 52.5q31 0 67.5 -8.5t116.5 -34.5q107 -37 162 -37q109 0 197 108l31 -20q-50 -88 -127.5 -143.5t-151.5 -55.5q-23 0 -36.5 2t-53 14t-96.5 31q-116 37 -177 37q-51 0 -85.5 -21.5t-96.5 -93.5z" />
<glyph horiz-adv-x="1714" d="M20 96q0 69 51 137.5t138 121.5t197 83.5t227 30.5q121 0 325 -27q153 134 207 201q-25 10 -62.5 26t-45.5 23t-8 15q0 26 40 84.5t56 58.5q8 0 47 -19q63 -26 104 -40q181 212 181 286q0 35 -27 52.5t-92.5 24.5t-186.5 7q-191 0 -359 -21t-269 -59 q-66 -24 -122.5 -77.5t-88.5 -122.5q-8 -21 -21 -21q-10 0 -10 17v18q0 112 21 209q19 87 114.5 143.5t271 83.5t437.5 27q92 0 163 -4.5t136 -12t114 -18.5t80 -25q28 -10 43 -29t15 -44q0 -35 -52 -109.5t-186 -230.5q-41 -47 -94 -111q19 -5 102 -8h9q5 0 7.5 -3t2.5 -7 q0 -11 -35 -54q-80 -92 -147 -92q-15 0 -74 15l-10 4q-55 -55 -96 -93.5t-70 -65t-39 -36.5q269 -44 408 -78.5t208 -76.5q25 -14 32 -29.5t7 -59.5q0 -47 -7 -131t-15 -118q-3 -17 -17 -17q-12 0 -12 19q-7 53 -32.5 84t-92.5 67q-102 51 -278 102t-384 93 q-76 -67 -167.5 -131t-186.5 -113q-93 -50 -155 -70t-125 -20q-80 0 -128.5 39.5t-48.5 101.5zM57 94q0 -43 40 -70.5t104 -27.5q51 0 111 19.5t151 64.5q102 52 165 96t150 125q-201 41 -299 41q-152 0 -266 -51q-44 -21 -79.5 -53t-56 -69.5t-20.5 -74.5zM901 1595 q0 13 30.5 43.5t41.5 30.5q7 0 78 -65q26 -27 47 -27t40.5 8t116.5 55q47 25 58 25q10 0 10 -6q0 -7 -14 -17l-15 -10q-23 -20 -49 -37q-124 -89 -166 -131q-22 -22 -32 -22q-7 0 -21 18q-19 24 -56 61.5t-44 41.5q-25 21 -25 32z" />
<glyph horiz-adv-x="1024" d="M485 -186q0 56 45.5 105t128.5 81h66q-69 -30 -101 -60t-32 -67q0 -32 19 -52t51 -20q67 0 159 60l10 -15q-172 -135 -256 -135q-39 0 -64.5 29.5t-25.5 73.5z" />
<glyph horiz-adv-x="1024" d="M502 813q0 13 29.5 43.5t41.5 30.5q6 0 78 -66q27 -26 47 -26q22 0 41.5 8t116.5 55q47 25 57 25q11 0 11 -6q0 -9 -15 -17l-14 -10q-25 -22 -49 -37q-120 -85 -166 -131q-23 -23 -33 -23q-6 0 -20 19q-9 11 -50 54t-51 48q-24 23 -24 33z" />
<glyph horiz-adv-x="1628" d="M63 274q0 59 36 109t97.5 78t137.5 28q111 0 258 -77q67 65 135 147l-188 -31q-7 -2 -27 -2q-25 0 -25 33q0 17 29 23l275 55l12 16q44 54 58.5 75.5t31.5 55.5q-107 13 -170 115q114 0 205.5 33t166 101t136.5 173q32 49 50 62.5t50 13.5q33 0 59.5 -23t41 -61.5 t14.5 -87.5q0 -176 -229 -281q-106 -46 -218 -49q-24 -34 -102 -123l387 80q25 6 31 6q21 0 44 -21.5t23 -39.5q0 -10 -5.5 -14t-26.5 -9l-537 -86q-136 -130 -190 -178q41 -20 97 -50t144 -75q113 -59 218 -88.5t202 -29.5q95 0 174 39t123.5 105.5t44.5 147.5q0 31 -2 52 q-2 6 -2 18q0 16 12 16q27 0 27 -86q0 -57 -23.5 -117t-66 -114t-98.5 -94q-55 -38 -121 -67t-137.5 -45.5t-131.5 -16.5q-55 0 -114.5 14.5t-142.5 50t-179 84.5q-29 15 -94 51q-20 12 -47.5 27.5t-42.5 24.5q-76 -63 -135.5 -91t-114.5 -28q-62 0 -106 44t-44 107zM96 260 q0 -45 32.5 -76.5t78.5 -31.5q50 0 100 25.5t117 86.5q-150 98 -227 98q-28 0 -51 -14t-36.5 -37t-13.5 -51z" />
<glyph horiz-adv-x="514" d="M104 649q0 2 11 19q8 12 14 22q7 16 14 20.5t23 4.5q8 0 43 -10q30 -8 114 -14.5t136 -6.5q24 0 78 4q34 4 38 4q13 0 13 -10l-4 -8l-6 -10q-16 -29 -27 -39t-30.5 -12.5t-74.5 -2.5q-128 0 -235 12t-107 27zM209 893q0 52 44.5 104t119.5 86q22 12 55.5 24.5t42.5 12.5 q10 0 10 -8q0 -7 -18 -16q-56 -19 -90.5 -50t-34.5 -63q0 -37 35.5 -64.5t87.5 -27.5q49 0 82.5 26t40.5 66q-17 -2 -47 -2q-70 0 -70 35q0 14 20 71q9 31 33 31q15 0 37 -22q54 -54 117 -54q18 0 45 7q-33 -44 -107 -60q-7 -54 -46.5 -103t-98.5 -78.5t-121 -29.5 q-59 0 -98 32t-39 83z" />
<glyph horiz-adv-x="143" d="M-199 -6q0 2 4 10l5 10l421 813q24 45 35.5 59t34.5 25q15 8 52.5 18.5t47.5 10.5q15 0 15 -14q0 -9 -29 -56l-493 -815q-29 -48 -41.5 -59.5t-36.5 -11.5q-15 0 -15 10z" />
<glyph horiz-adv-x="1024" d="M467 793q0 12 35.5 44.5t48.5 32.5q10 0 31 -20q70 -76 120 -76q38 0 116 27.5t122 56.5q9 6 18 6t9 -8q0 -11 -72 -65q-142 -111 -227 -111q-34 0 -82.5 19.5t-83.5 46t-35 47.5z" />
<glyph horiz-adv-x="686" d="M55 270l80 76q15 12 15 19q0 3 -7 14q-6 9 -6 14q0 16 33 43l129 113q23 14 35 14q16 0 16 -16q0 -7 -6 -15q-10 -17 -10 -30q0 -16 45 -19l96 -4q59 -3 79.5 -15t20.5 -42q0 -25 -36 -68l-136 -137q65 -20 148 -20q72 0 116.5 8t88.5 26q-36 -48 -106.5 -76t-157.5 -28 q-35 0 -67.5 4t-84.5 16q-78 -66 -78 -114q0 -33 36 -70t90.5 -61.5t98.5 -24.5q41 0 66 20t25 52q0 28 -23 71q-2 3 -2 9q0 10 8 10q16 0 30.5 -30.5t14.5 -65.5q0 -83 -63 -145t-146 -62q-105 0 -235 102q-58 46 -58 92q0 36 28 72.5t126 126.5q20 25 31 33l-25 8 q-31 12 -31 27q0 18 16.5 33.5t35.5 15.5q32 0 73 -19q50 47 50 82q0 19 -7 26t-36 11t-103 10h-74zM260 770q0 13 30.5 43.5t41.5 30.5q4 0 78 -66q26 -26 47 -26t40.5 8t116.5 55q47 25 58 25q10 0 10 -6q0 -9 -14 -17l-15 -10q-29 -25 -49 -37q-120 -85 -166 -131 q-23 -23 -32 -23q-8 0 -21 19q-20 24 -55.5 60t-44.5 42q-25 22 -25 33z" />
<glyph unicode="&#xa1;" horiz-adv-x="541" d="M-123 -399q0 12 20 59.5t40 85.5q98 189 264 420q6 8 61 102l72 21q-74 -170 -123 -295q-140 -364 -164 -379q-13 -9 -65 -21t-82 -12q-23 0 -23 19zM244 463q0 15 47 57q6 4 45 41q10 12 18 12q10 0 15 -4t20 -28q28 -39 32 -43.5t30 -24.5q8 -12 8 -16q0 -14 -52.5 -46 t-72.5 -32q-24 0 -57 31t-33 53z" />
<glyph unicode="&#xa2;" d="M184 356q0 61 45.5 126t124.5 116q44 28 76 43.5t75.5 29.5t96.5 27l78 158q9 20 16 28t27 15l45 16q21 9 29 9q6 0 6 -6q0 -7 -17 -31l-96 -174h15q28 -1 46.5 -16t18.5 -38q0 -24 -19.5 -39.5t-48.5 -15.5q-20 0 -63 14l-166 -286q35 -13 55 -13q40 0 117 31t172 86 l8 -6q-89 -81 -239 -169t-203 -91l-74 -131q-11 -19 -20 -19q-10 0 -10 11q0 8 8 24l53 111q-45 5 -80 30.5t-55.5 67.5t-20.5 92zM371 467q0 -35 11.5 -60.5t45.5 -56.5l145 291q-16 2 -41 2q-65 0 -113 -52t-48 -124z" />
<glyph unicode="&#xa3;" d="M-6 193q0 82 55 145t129 63q56 0 125 -51q49 53 98 129l-204 21q-19 3 -19 18q0 19 35 19l223 -2q23 34 43 73q7 14 15 23q-62 15 -80 104q12 -2 24 -2q53 0 100 25t91.5 79t91.5 140q34 63 72 63q25 0 39 -29t14 -81q0 -158 -139 -250q-75 -50 -140 -53q-18 -27 -49 -68 q-4 -7 -9.5 -14.5t-8.5 -12.5l188 -2q19 0 24 -2.5t13 -15.5q8 -16 14 -25q9 -12 9 -22q0 -14 -19 -14h-12l-258 22q-20 -25 -29 -36t-24.5 -28.5t-26.5 -31.5q-36 -41 -45 -51q125 -105 166 -136t71 -42t78 -11q87 0 146.5 74t62.5 184q1 25 5.5 35t17.5 10q18 0 18 -26 q0 -75 -32 -151t-86 -136.5t-123.5 -97.5t-139.5 -37q-35 0 -73.5 18.5t-90.5 61.5q-10 8 -50 43.5t-85 74.5q-97 -94 -149 -94q-30 0 -53 29t-23 68zM33 201q0 -25 12.5 -44.5t30.5 -19.5q41 0 114 82q-66 72 -102 72q-21 0 -38 -28t-17 -62z" />
<glyph unicode="&#xa4;" d="M92 147q0 43 53 84q11 9 41 29q-57 65 -57 150q0 123 100 227q-33 24 -63 45q-53 41 -53 84q0 29 20 29q15 0 45 -39q43 -56 78 -92q106 90 201 90q29 0 50 -10.5t42 -36.5q49 6 84 6q28 0 59 -13q77 66 98 81.5t35 15.5q21 0 21 -31q0 -29 -9.5 -39.5t-45.5 -26.5 q-29 -11 -56 -24q36 -35 51 -66t15 -75q0 -128 -123 -248q47 -30 125 -62q35 -15 35 -57q0 -31 -21 -31q-28 0 -166 125q-63 -46 -119.5 -66t-121.5 -20q-104 0 -191 55q-12 -13 -29 -34t-32 -39q-30 -39 -45 -39q-21 0 -21 28zM250 455q0 -88 49 -127q66 -56 158 -56 q60 0 112 20t86 56q70 70 70 135q0 42 -21.5 73t-59.5 48t-87 17q-126 0 -215 -119q15 62 52.5 112t88.5 72q-14 12 -32 12q-30 0 -66 -18.5t-68 -50.5q-67 -73 -67 -174z" />
<glyph unicode="&#xa5;" d="M49 535q0 8 14 8h19l270 2q-56 100 -102.5 228.5t-46.5 184.5q0 18 9 29t38 29q79 57 96 57q29 0 29 -57q3 -152 30.5 -262t83.5 -201q44 55 103 117.5t120 119t132 115.5q139 115 219 115q33 0 54.5 -19t21.5 -47q0 -40 -37 -75t-92 -50q-36 -8 -109 -8q-30 0 -77 -32 t-108 -97.5t-122 -144.5l299 2q25 0 25 -12q0 -15 -27 -17l-328 -24q-13 -29 -49 -127l365 4q24 0 24 -15q0 -14 -26 -16l-381 -31q-31 -100 -45.5 -154.5t-26.5 -133.5q-7 -49 -14 -56q-9 -6 -189 -39q-35 0 -35 27q0 11 11.5 41t34 80t102.5 223l-129 -10l-23 -2 q-15 0 -37 18l-24 21l-15 10q-16 16 -16 22q0 9 14 9l19 -2l244 4q31 59 45 80q-9 11 -23 34l-225 -16q-12 -2 -23 -2q-18 0 -37 18q-15 11 -38 31q-17 12 -17 21z" />
<glyph unicode="&#xa6;" horiz-adv-x="1024" d="M557 313h121v-655h-121v655zM557 676v690h121v-690h-121z" />
<glyph unicode="&#xa7;" horiz-adv-x="1163" d="M12 -2q0 78 43 150.5t109 105.5l16 -39q-40 -21 -66 -62t-26 -85q0 -88 103.5 -150.5t246.5 -62.5q118 0 230.5 40t193.5 109q109 94 109 168q0 104 -142 104q-6 0 -91.5 -3t-102.5 -5q-35 -2 -96 -2q-179 0 -250 56q-37 30 -62.5 86t-25.5 112q0 84 42 154.5t130 140.5 q-36 42 -51 83t-15 95q0 108 67 198t183 141.5t254 51.5q61 0 93 -10t61 -39q21 8 26 8q27 0 53 -51q37 -62 37 -78q0 -13 -26 -34q-15 -13 -45 -54q-19 -26 -41 -26q-13 0 -19 2l-53 4q-68 6 -68 41q0 17 17 41q49 73 49 104q0 47 -98 47q-141 0 -244 -69 q-58 -37 -97.5 -94.5t-39.5 -108.5q0 -54 45.5 -87.5t118.5 -33.5q87 0 186 6q98 4 119 4q115 0 181.5 -51t66.5 -139q0 -76 -41.5 -156.5t-120.5 -154.5q102 -46 102 -158q0 -61 -31 -131.5t-90.5 -140.5t-136.5 -129q-99 -79 -218 -123.5t-232 -44.5q-160 0 -256.5 74 t-96.5 196zM313 598q0 -61 46.5 -95t129.5 -34q12 0 156 6q93 6 150 6q62 0 118 -10q117 88 117 176q0 52 -37.5 74t-130.5 22q-57 0 -108 -4q-49 -4 -109 -4q-81 0 -129 8.5t-92 32.5q-64 -59 -87.5 -96.5t-23.5 -81.5z" />
<glyph unicode="&#xa8;" horiz-adv-x="1024" d="M420 760q0 13 5.5 20.5t33.5 32.5q28 22 39 39q7 12 18 12q9 0 16 -16q16 -26 39 -41.5t74 -36.5q-25 -34 -64.5 -55t-82.5 -21q-32 0 -55 20t-23 46zM737 760q0 12 4.5 19.5t32.5 33.5q31 26 41 39q7 12 16 12q12 0 19 -16q14 -25 38 -41.5t75 -36.5 q-24 -33 -64.5 -54.5t-83.5 -21.5q-32 0 -55 20t-23 46z" />
<glyph unicode="&#xa9;" horiz-adv-x="1655" d="M137 504q0 155 69.5 303.5t201.5 275.5q84 81 166 134t165 80.5t164 27.5q62 0 98 -17t60 -61q111 27 196 27q99 0 182 -32.5t145 -94.5t94 -143.5t32 -182.5q0 -95 -36 -197.5t-103 -200.5t-158 -183q-63 -59 -140 -106.5t-159 -80t-170 -50t-172 -17.5q-140 0 -257 38 t-201 107t-130.5 165t-46.5 208zM254 580q0 -85 17 -148.5t51 -115t88 -91.5q85 -65 203.5 -103t238.5 -38q84 0 178.5 21t173.5 55q54 23 109 64t107.5 93.5t97.5 112.5q56 75 81 146.5t25 154.5q0 89 -26.5 174t-73.5 146q-112 145 -367 145q-102 0 -221 -31l-12 35 q40 16 108 37q-17 27 -46.5 39t-82.5 12q-104 0 -219 -56t-215 -157q-73 -73 -120 -151t-71 -165.5t-24 -178.5zM502 596q0 93 61.5 173t181.5 144q45 25 105 47.5t112.5 34t96.5 11.5q42 0 66 -13t24 -37q0 -12 -10 -30q73 -9 73 -39q0 -15 -45 -49l-47 -39l-135 -133 q-41 -41 -84 -41q-29 0 -47 18t-18 47q0 35 31.5 77.5t85 82t106.5 57.5l14 21q6 12 6 20q0 15 -35 15q-26 0 -74.5 -13.5t-95.5 -34.5t-92 -49q-147 -91 -147 -219q0 -90 96 -139t273 -49q89 0 163 16.5t107 44.5q33 25 33 74v12q-2 6 -2 12q0 23 22 23q23 0 23 -47 q0 -77 -60.5 -139t-166 -96.5t-240.5 -34.5q-176 0 -278.5 73t-102.5 199z" />
<glyph unicode="&#xaa;" horiz-adv-x="633" d="M123 649q0 2 10 21q6 6 14 22q11 17 17 21t22 4q11 0 56 -10q2 -5 98 -13l90 -4q82 -6 121 -6q51 0 119 8h6q12 0 12 -10l-4 -8l-6 -10q-16 -29 -27 -39t-31 -12.5t-79 -2.5q-156 0 -287 12t-131 27zM203 854q0 52 42 102.5t110 82.5t137 32q12 0 40 -2q34 51 70 51 q17 0 28 -11t11 -30q0 -15 -16 -41l-4 -8q63 -31 63 -88q0 -3 -4 -33q-2 -12 -2 -20q0 -15 16 -15q6 0 103 23q-36 -28 -66 -45q-93 -61 -116 -72.5t-52 -11.5q-18 0 -32.5 12.5t-14.5 28.5q0 23 37 76q22 32 22 49q0 16 -18 27q-82 -86 -155.5 -136.5t-116.5 -50.5 q-82 0 -82 80zM365 940q0 -20 16 -33.5t39 -13.5q25 0 52.5 18.5t64.5 63.5q-21 20 -21 43q0 14 4 29h-10h-12q-53 0 -93 -32.5t-40 -74.5z" />
<glyph unicode="&#xab;" horiz-adv-x="729" d="M82 299l194 186q10 10 15 12.5t14 2.5q10 0 29.5 -20.5t19.5 -30.5q0 -12 -18 -27l-143 -127l231 -184q20 -16 20 -27q0 -9 -19 -29t-30 -20q-16 0 -33 16zM373 299l237 221q13 17 21 17q11 0 30 -21t19 -33q0 -10 -16 -26l-166 -162l172 -127q24 -20 24 -29 q0 -12 -19.5 -33.5t-31.5 -21.5q-6 0 -9.5 2t-15.5 12z" />
<glyph unicode="&#xac;" horiz-adv-x="1024" d="M178 457v90h881v-547h-209v457h-672z" />
<glyph unicode="&#xad;" d="M117 442q0 13 14 41l12 29q8 19 29 23q14 0 25 -3q16 -3 87.5 -9t123 -10t134 -8.5t93.5 -4.5q107 0 143 12q6 2 17 2q14 0 14 -6q0 -8 -24.5 -34.5t-41.5 -39.5q-30 -21 -66.5 -29t-115.5 -8q-64 0 -192.5 8t-165.5 13q-60 7 -73 10.5t-13 13.5z" />
<glyph unicode="&#xae;" horiz-adv-x="1655" d="M137 504q0 155 69.5 303.5t201.5 275.5q84 81 166 134t165 80.5t164 27.5q62 0 98 -17t60 -61q111 27 196 27q99 0 182 -32.5t145 -94.5t94 -143.5t32 -182.5q0 -95 -36 -197.5t-103 -200.5t-158 -183q-63 -59 -140 -106.5t-159 -80t-170 -50t-172 -17.5q-140 0 -257 38 t-201 107t-130.5 165t-46.5 208zM254 580q0 -85 17 -148.5t51 -115t88 -91.5q85 -65 203.5 -103t238.5 -38q84 0 178.5 21t173.5 55q54 23 109 64t107.5 93.5t97.5 112.5q56 75 81 146.5t25 154.5q0 89 -26.5 174t-73.5 146q-112 145 -367 145q-102 0 -221 -31l-12 35 q40 16 108 37q-17 27 -46.5 39t-82.5 12q-104 0 -219 -56t-215 -157q-73 -73 -120 -151t-71 -165.5t-24 -178.5zM362 410q0 23 50 104t157 231q-22 3 -34.5 9t-30.5 26q-37 43 -37 64q0 12 8 19t21 7q6 0 26 -6q4 -2 17 -2q28 0 96 53t143 136q23 -35 23 -70q0 -41 -15 -77 t-50 -73t-89 -75q-27 -21 -58.5 -61t-103.5 -148l-10 -12q8 4 35 22l68 47l137 103q198 146 356 233.5t227 87.5q39 0 65 -27t26 -67q0 -45 -28.5 -93.5t-78.5 -86.5q-62 -46 -144 -72.5t-153 -26.5h-20q84 -120 164.5 -180.5t150.5 -60.5q52 0 86.5 31t34.5 77q0 14 -6 35 q-2 6 -2 14q0 25 22 25q31 0 31 -70q0 -85 -65 -136.5t-171 -51.5q-147 0 -260 100q-47 44 -92 106t-45 81t27 30l53 31q25 14 47 14q4 0 23 -2h20q74 0 133.5 20t93 55.5t33.5 78.5q0 34 -18 53t-49 19q-42 0 -110.5 -36t-150.5 -100q-70 -52 -118 -98.5t-166 -173.5 q-69 -73 -126.5 -114.5t-88.5 -41.5q-23 0 -38.5 14.5t-15.5 35.5z" />
<glyph unicode="&#xaf;" horiz-adv-x="1024" d="M467 721q0 9 12 29l37 57q15 26 31 29h16q42 4 68 4q65 0 142 -10t128 -25l14 -4q21 -6 21 -17q0 -13 -8.5 -27t-16.5 -14q-4 0 -8 2l-149 3q-46 0 -131.5 -10.5t-116.5 -20.5q-15 -6 -27 -6t-12 10z" />
<glyph unicode="&#xb0;" horiz-adv-x="1024" d="M479 748q0 62 59 117t126 55q33 0 45 -27q36 4 45 4q44 0 75 -26t31 -64q0 -42 -32 -82t-84.5 -65t-108.5 -25q-67 0 -111.5 32.5t-44.5 80.5zM557 770q0 -37 28.5 -57.5t80.5 -20.5q56 0 101.5 29t45.5 63q0 22 -23 36t-63 14q-84 0 -143 -62q4 37 28 68.5t60 44.5h-13 q-39 0 -70.5 -36.5t-31.5 -78.5z" />
<glyph unicode="&#xb1;" d="M117 129q0 9 14 41l12 27q6 12 11.5 16t17.5 6q14 0 25 -2q27 -6 212.5 -18.5t225.5 -12.5q105 0 143 11q6 2 17 2q14 0 14 -6q0 -8 -23.5 -34t-42.5 -38q-31 -23 -68 -30t-114 -7q-47 0 -179 6.5t-179 13.5q-21 3 -37 5t-30.5 5.5t-16.5 6t-2 8.5zM125 539q0 9 14 41 q5 10 11 26q10 23 28 23q17 0 27 -2q48 -5 196 -17v35q0 45 -6 92q-4 38 -4 47q0 21 7.5 31t31.5 21q42 16 49 16q15 0 22 -49t15 -201q99 -6 129 -6q105 0 141 12q7 2 17 2q14 0 14 -6q0 -7 -22.5 -32.5t-42.5 -41.5q-30 -21 -67.5 -28.5t-115.5 -7.5h-49v-17v-45l6 -102 q2 -8 2 -21q0 -17 -22 -28l-29 -11q-33 -14 -37 -14q-20 0 -28 57q-3 46 -7 97.5t-4 62.5v27q-150 8 -190 14q-60 7 -73 10.5t-13 14.5z" />
<glyph unicode="&#xb2;" horiz-adv-x="575" d="M96 385q0 35 33 70q21 21 46 29.5t73 9.5q194 154 194 256q0 47 -34.5 77.5t-83.5 30.5q-77 0 -86 -61q30 -5 30 -47q0 -82 -55 -82q-24 0 -38.5 17t-14.5 42q0 53 35 100.5t93.5 76t121.5 28.5q70 0 115.5 -33.5t45.5 -83.5q0 -43 -25 -86.5t-79 -98.5t-150 -134 q33 0 129 -17q74 -8 105 -8h20q-17 -50 -42 -81.5t-48 -31.5q-5 0 -45 9q-79 18 -145 18q-70 0 -129 -12q-38 -6 -43 -6q-23 0 -23 18z" />
<glyph unicode="&#xb3;" horiz-adv-x="575" d="M106 469q0 33 15.5 58.5t34.5 25.5q20 0 20 -18q0 -8 -6 -23q-6 -18 -6 -27q0 -34 33 -53.5t90 -19.5q56 0 97.5 27t41.5 61q0 18 -7.5 28t-56.5 58q-30 30 -30 55q0 23 12.5 35t83.5 55q43 26 43 53q0 25 -20.5 42.5t-49.5 17.5q-34 0 -55.5 -16.5t-54.5 -65.5 q-13 -19 -29 -19q-18 0 -18 19q0 10 13.5 34t35.5 46q35 35 84 55.5t92 20.5q51 0 87 -28.5t36 -66.5q0 -32 -17 -51.5t-73 -52.5q-33 -20 -33 -35q0 -5 3 -8t15.5 -12.5t28.5 -22.5q55 -38 55 -88q0 -47 -40.5 -92.5t-105 -74t-130.5 -28.5q-81 0 -135 32.5t-54 78.5z" />
<glyph unicode="&#xb4;" horiz-adv-x="1024" d="M580 657q0 8 18 17q46 16 79.5 57t33.5 80q0 10 -2 16q-2 9 -2 17q0 22 20.5 38.5t52.5 16.5q29 0 51.5 -20t22.5 -45q0 -41 -44.5 -84.5t-111.5 -73.5q-32 -14 -60 -21.5t-44 -7.5q-14 0 -14 10z" />
<glyph unicode="&#xb5;" horiz-adv-x="920" d="M-150 -332q0 18 10 40t62 124q58 107 107 205t85.5 177t69.5 157t76 190l143 375h162l-225 -586q-49 -124 -49 -180q0 -47 30 -74.5t80 -27.5q72 0 144.5 37.5t161.5 119.5l272 711h160l-267 -692q-32 -85 -32 -117q0 -43 51 -43q27 0 72 22l-13 -32l-215 -94 q-2 -3 -10 -3q-23 0 -40 20t-17 46q0 20 10 63l6 39q-60 -42 -119 -80.5t-101 -58.5t-79.5 -28.5t-79.5 -8.5q-72 0 -112.5 38.5t-40.5 109.5q0 18 2 33q-51 -132 -62 -170q-12 -50 -16 -74l-21 -94q-14 -67 -28.5 -101t-40.5 -65q-34 -37 -72 -37q-25 0 -44.5 17t-19.5 42z " />
<glyph unicode="&#xb6;" d="M119 -242q0 42 26 162.5t56 226.5q33 110 56 174.5t59.5 145t87 176.5t182.5 344q-144 -160 -252 -160q-59 0 -104.5 43t-45.5 99q0 78 64 161.5t170 145.5q93 54 162 74t155 20q29 0 60 -8q3 28 16.5 43t48.5 29l14 4q48 -75 130 -119q26 -12 32 -18t6 -17 q0 -19 -32 -55.5t-52 -36.5q-27 0 -68.5 30.5t-86.5 84.5q-16 19 -32.5 24.5t-57.5 5.5q-78 0 -156 -34t-127 -88t-49 -107q0 -48 34.5 -83.5t78.5 -35.5q99 0 159 129q25 55 32.5 62.5t33.5 7.5q22 0 22 -14q0 -9 -24 -66q-32 -66 -37 -78q-32 -72 -76 -162 q-6 -12 -12 -23.5t-11.5 -23t-11.5 -22.5l-12 -27q-3 -6 -16 -33q-68 -135 -122.5 -257.5t-91.5 -230.5t-54 -189t-17 -142q0 -44 8 -72q6 -15 6 -24q0 -23 -55 -57q-58 -35 -74 -35q-22 0 -22 26zM319 -236q0 42 27.5 167t69.5 262q58 187 101.5 288.5t170.5 349.5 q10 22 37 72q73 151 96 166q20 12 68 12q16 0 16 -10q0 -7 -6 -16q-32 -51 -111 -205l-30 -64q-98 -193 -145 -301.5t-85 -230.5q-11 -36 -30.5 -112t-33 -133t-13.5 -66q0 -13 6 -43l4 -21l4 -20q6 -25 6 -37q0 -15 -8 -24.5t-33 -24.5q-70 -45 -82 -45t-20.5 10.5 t-8.5 25.5z" />
<glyph unicode="&#xb7;" horiz-adv-x="471" d="M158 350q0 16 47 58q37 32 45 41q10 12 20 12q9 0 13.5 -4.5t19.5 -28.5q14 -21 23.5 -33.5t15.5 -18t20 -16.5q11 -6 11 -16q0 -13 -52.5 -45.5t-74.5 -32.5t-55 31t-33 53z" />
<glyph unicode="&#xb8;" horiz-adv-x="1024" d="M211 -248q0 20 20.5 34.5t47.5 14.5t53 -28q10 -12 13 -15t10 -6t14.5 -3.5t17.5 -0.5q29 0 48.5 14.5t19.5 36.5q0 19 -18 31t-107 51q-13 3 -13 10t19 23l80 74q18 18 33 18q20 0 20 -16q0 -5 -10 -19l-10 -16q-13 -14 -13 -21q0 -9 23 -14q32 -10 50.5 -28.5 t18.5 -38.5q0 -32 -35 -67.5t-85.5 -60t-98.5 -24.5q-42 0 -70 14.5t-28 36.5z" />
<glyph unicode="&#xb9;" horiz-adv-x="575" d="M227 377q0 52 230 465l-35 -21q-75 -48 -87.5 -54.5t-25.5 -6.5q-20 0 -20 28q0 39 67 64q52 18 89.5 36.5t74.5 41.5q11 8 19 8q9 0 14.5 -3.5t5.5 -10.5q0 -5 -6 -17q-90 -217 -122 -312.5t-44 -178.5q-3 -25 -9.5 -33t-25.5 -12q-5 -1 -52 -7t-52 -6q-21 0 -21 19z " />
<glyph unicode="&#xba;" horiz-adv-x="612" d="M240 874q0 87 77.5 166.5t163.5 79.5q26 0 40 -9t22 -30q22 4 57 4q53 0 91 -35.5t38 -88.5q0 -63 -40.5 -121t-108 -93.5t-136.5 -35.5q-61 0 -106.5 20.5t-71.5 57.5t-26 85zM336 905q0 -55 38 -87t103 -32q76 0 135.5 42.5t59.5 95.5q0 35 -29 56t-82 21 q-111 0 -184 -92q6 55 37.5 97.5t81.5 62.5q-13 6 -21 6q-18 0 -46.5 -15t-45.5 -34q-47 -53 -47 -121z" />
<glyph unicode="&#xbb;" horiz-adv-x="727" d="M82 141q0 6 16 19l148 127l-148 125q-16 12 -16 20q0 9 20 31t29 22q8 0 27 -14l223 -184l-223 -185q-16 -16 -27 -16q-9 0 -29 22t-20 33zM299 88q0 9 23 23l233 176l-233 174q-17 12 -20 15.5t-3 8.5q0 11 20.5 37.5t30.5 26.5q15 0 27 -12l295 -250l-295 -250 q-17 -14 -27 -14t-30.5 27.5t-20.5 37.5z" />
<glyph unicode="&#xbc;" horiz-adv-x="1294" d="M227 377q0 52 230 465l-35 -21q-75 -48 -87.5 -54.5t-25.5 -6.5q-20 0 -20 28q0 39 67 64q52 18 89.5 36.5t74.5 41.5q11 8 19 8q9 0 14.5 -3.5t5.5 -10.5q0 -5 -6 -17q-90 -217 -122 -312.5t-44 -178.5q-3 -25 -9.5 -33t-25.5 -12q-5 -1 -52 -7t-52 -6q-21 0 -21 19z M377 -6q0 2 4 10l6 10l420 813q23 45 34.5 58.5t35.5 25.5q13 7 51.5 18t48.5 11q14 0 14 -14q0 -11 -26 -56l-496 -815q-29 -48 -41 -59.5t-37 -11.5q-14 0 -14 10zM666 180q0 14 20.5 38.5t81.5 82.5q110 104 219 183t146 79q20 0 31.5 -12t11.5 -33q0 -6 -23 -80 l-76 -205h17q28 0 53 3h47l39 2q-60 -84 -176 -84h-10l-37 -99q-15 -40 -39 -52.5t-84 -12.5q-17 0 -17 14q0 10 15 43l43 103h-27l-90 -5h-43q-60 0 -81 7.5t-21 27.5zM811 252q0 -19 70 -19h80l73 191q13 32 13 39q0 6 -7 6l-1.5 -0.5l-4.5 -1.5l-14 -10 q-24 -13 -87.5 -69.5t-96.5 -92.5q-25 -27 -25 -43z" />
<glyph unicode="&#xbd;" horiz-adv-x="1294" d="M227 377q0 52 230 465l-35 -21q-75 -48 -87.5 -54.5t-25.5 -6.5q-20 0 -20 28q0 39 67 64q52 18 89.5 36.5t74.5 41.5q11 8 19 8q9 0 14.5 -3.5t5.5 -10.5q0 -5 -6 -17q-90 -217 -122 -312.5t-44 -178.5q-3 -25 -9.5 -33t-25.5 -12q-5 -1 -52 -7t-52 -6q-21 0 -21 19z M377 -6q0 2 4 10l6 10l420 813q23 45 34.5 58.5t35.5 25.5q13 7 51.5 18t48.5 11q14 0 14 -14q0 -11 -26 -56l-496 -815q-29 -48 -41 -59.5t-37 -11.5q-14 0 -14 10zM672 16q0 14 9 34.5t24 35.5q19 22 43 29.5t75 9.5q195 155 195 258q0 45 -34 77t-83 32q-76 0 -88 -64 q31 -5 31 -47q0 -37 -14.5 -58.5t-38.5 -21.5q-25 0 -39.5 16t-14.5 43q0 53 35 100.5t93.5 76t121.5 28.5q69 0 114.5 -33.5t45.5 -85.5q0 -60 -56.5 -131t-197.5 -188q35 0 129 -16q53 -9 104 -9h21q-18 -51 -43 -81.5t-47 -30.5q-5 0 -45 8q-81 18 -146 18 q-70 0 -129 -12q-36 -6 -43 -6q-22 0 -22 18z" />
<glyph unicode="&#xbe;" horiz-adv-x="1294" d="M106 469q0 33 15.5 58.5t34.5 25.5q20 0 20 -18q0 -8 -6 -23q-6 -18 -6 -27q0 -34 33 -53.5t90 -19.5q56 0 97.5 27t41.5 61q0 18 -7.5 28t-56.5 58q-30 30 -30 55q0 23 12.5 35t83.5 55q43 26 43 53q0 25 -20.5 42.5t-49.5 17.5q-34 0 -55.5 -16.5t-54.5 -65.5 q-13 -19 -29 -19q-18 0 -18 19q0 10 13.5 34t35.5 46q35 35 84 55.5t92 20.5q51 0 87 -28.5t36 -66.5q0 -32 -17 -51.5t-73 -52.5q-33 -20 -33 -35q0 -5 3 -8t15.5 -12.5t28.5 -22.5q55 -38 55 -88q0 -47 -40.5 -92.5t-105 -74t-130.5 -28.5q-81 0 -135 32.5t-54 78.5z M379 -6q0 2 4 10l4 10l422 813q24 45 35.5 59t34.5 25q13 7 51.5 18t48.5 11q14 0 14 -14q0 -8 -28 -56l-494 -815q-29 -48 -41 -59.5t-37 -11.5q-14 0 -14 10zM668 180q0 14 20.5 38.5t81.5 82.5q110 104 219 183t146 79q20 0 31.5 -12t11.5 -33q0 -6 -23 -80l-76 -205h17 q26 0 53 3h45l39 2q-57 -84 -176 -84h-8l-39 -99q-15 -40 -38.5 -52.5t-82.5 -12.5q-17 0 -17 14q0 2 15 43l43 103h-27l-90 -5h-43q-60 0 -81 7.5t-21 27.5zM813 252q0 -19 70 -19h80l71 191q15 30 15 39q0 6 -7 6l-1.5 -0.5l-4.5 -1.5l-14 -10q-24 -13 -87.5 -69.5 t-96.5 -92.5q-25 -27 -25 -43z" />
<glyph unicode="&#xbf;" horiz-adv-x="676" d="M-98 -279q0 108 104 187q15 13 27 21.5t37.5 24t58 35t80.5 46.5q104 61 104 127q0 24 -24 59l119 82q22 -35 22 -72q0 -46 -24 -96q-17 -30 -32 -45.5t-83 -71.5q-96 -78 -139 -146.5t-43 -141.5q0 -51 30 -83t76 -32q39 0 70.5 24.5t31.5 55.5q0 33 -47 47l76 119 q40 -6 60 -26t20 -54q0 -50 -51 -117q-42 -54 -110 -86.5t-134 -32.5q-61 0 -114 24t-84 64t-31 88zM236 463q0 15 47 57q36 34 45 41q10 12 18 12q10 0 15.5 -5t19.5 -27q28 -39 33.5 -44.5t27.5 -23.5q9 -14 9 -16q0 -14 -52.5 -46t-74.5 -32q-21 0 -54.5 31.5t-33.5 52.5 z" />
<glyph unicode="&#xc0;" horiz-adv-x="2003" d="M-96 96q0 25 13 45t46 47l78 64q32 29 86 72q60 48 72 59l215 182q-95 38 -95 74q0 11 3 15.5t22 23.5l72 65q10 12 16 17.5t10 5.5q6 0 25 -12q50 -30 106 -47q31 26 162 133q127 105 246 190t266 178q149 95 221 95q57 0 95.5 -44t72 -155t66.5 -297q36 -200 51 -275.5 t29.5 -115t30 -48t51.5 -8.5q31 0 108 39q20 12 41 21q12 6 17.5 8.5t15.5 7.5q12 6 16 6q9 0 9 -6q0 -11 -97 -92q-206 -182 -309 -182q-39 0 -63 17.5t-40 62t-28 123.5q-12 80 -43 407q-19 191 -66 281t-127 90q-39 0 -107.5 -35t-153 -94.5t-182 -141t-204.5 -184.5 q236 -53 627 -53q44 0 152 6q-102 -71 -250 -108t-336 -37q-182 0 -348 45q-33 -45 -213 -267q-93 -114 -174.5 -173.5t-141.5 -59.5q-27 0 -45 15.5t-18 39.5zM1280 1559q0 27 23 47t53 20q29 0 50 -16t21 -39q0 -8 -2 -17v-14q0 -39 33 -80t78 -59q18 -9 18 -17 q0 -10 -14 -10q-20 0 -59.5 12.5t-73.5 30.5q-58 31 -92.5 70.5t-34.5 71.5z" />
<glyph unicode="&#xc1;" horiz-adv-x="2003" d="M-96 96q0 25 13 45t46 47l78 64q32 29 86 72q60 48 72 59l215 182q-95 38 -95 74q0 11 3 15.5t22 23.5l72 65q10 12 16 17.5t10 5.5q6 0 25 -12q50 -30 106 -47q31 26 162 133q127 105 246 190t266 178q149 95 221 95q57 0 95.5 -44t72 -155t66.5 -297q36 -200 51 -275.5 t29.5 -115t30 -48t51.5 -8.5q31 0 108 39q20 12 41 21q12 6 17.5 8.5t15.5 7.5q12 6 16 6q9 0 9 -6q0 -11 -97 -92q-206 -182 -309 -182q-39 0 -63 17.5t-40 62t-28 123.5q-12 80 -43 407q-19 191 -66 281t-127 90q-39 0 -107.5 -35t-153 -94.5t-182 -141t-204.5 -184.5 q236 -53 627 -53q44 0 152 6q-102 -71 -250 -108t-336 -37q-182 0 -348 45q-33 -45 -213 -267q-93 -114 -174.5 -173.5t-141.5 -59.5q-27 0 -45 15.5t-18 39.5zM1311 1395q0 7 18 16q46 18 79.5 58.5t33.5 78.5q0 11 -2 17q-2 8 -2 16q0 22 20.5 38.5t52.5 16.5 q30 0 52 -19.5t22 -45.5q0 -40 -43 -83.5t-112 -74.5q-67 -29 -105 -29q-14 0 -14 11z" />
<glyph unicode="&#xc2;" horiz-adv-x="2003" d="M-96 96q0 25 13 45t46 47l78 64q32 29 86 72q60 48 72 59l215 182q-95 38 -95 74q0 11 3 15.5t22 23.5l72 65q10 12 16 17.5t10 5.5q6 0 25 -12q50 -30 106 -47q31 26 162 133q127 105 246 190t266 178q149 95 221 95q57 0 95.5 -44t72 -155t66.5 -297q36 -200 51 -275.5 t29.5 -115t30 -48t51.5 -8.5q31 0 108 39q20 12 41 21q12 6 17.5 8.5t15.5 7.5q12 6 16 6q9 0 9 -6q0 -11 -97 -92q-206 -182 -309 -182q-39 0 -63 17.5t-40 62t-28 123.5q-12 80 -43 407q-19 191 -66 281t-127 90q-39 0 -107.5 -35t-153 -94.5t-182 -141t-204.5 -184.5 q236 -53 627 -53q44 0 152 6q-102 -71 -250 -108t-336 -37q-182 0 -348 45q-33 -45 -213 -267q-93 -114 -174.5 -173.5t-141.5 -59.5q-27 0 -45 15.5t-18 39.5zM1313 1403q0 8 14 16l14 11q7 6 50 36q107 73 165 131q24 21 33 21q3 0 56 -55q14 -17 20 -23q24 -27 45 -43 q25 -21 25 -33q0 -8 -17 -24l-12 -15q-30 -34 -43 -34q-10 0 -47 39q-55 51 -78 53q-19 0 -34.5 -6t-123.5 -56q-49 -24 -57 -24q-10 0 -10 6z" />
<glyph unicode="&#xc3;" horiz-adv-x="2003" d="M-96 96q0 25 13 45t46 47l78 64q32 29 86 72q60 48 72 59l215 182q-95 38 -95 74q0 11 3 15.5t22 23.5l72 65q10 12 16 17.5t10 5.5q6 0 25 -12q50 -30 106 -47q31 26 162 133q127 105 246 190t266 178q149 95 221 95q57 0 95.5 -44t72 -155t66.5 -297q36 -200 51 -275.5 t29.5 -115t30 -48t51.5 -8.5q31 0 108 39q20 12 41 21q12 6 17.5 8.5t15.5 7.5q12 6 16 6q9 0 9 -6q0 -11 -97 -92q-206 -182 -309 -182q-39 0 -63 17.5t-40 62t-28 123.5q-12 80 -43 407q-19 191 -66 281t-127 90q-39 0 -107.5 -35t-153 -94.5t-182 -141t-204.5 -184.5 q236 -53 627 -53q44 0 152 6q-102 -71 -250 -108t-336 -37q-182 0 -348 45q-33 -45 -213 -267q-93 -114 -174.5 -173.5t-141.5 -59.5q-27 0 -45 15.5t-18 39.5zM1210 1432q0 6 27 47q61 88 139 88q32 0 99 -31q75 -33 106 -33q38 0 70 43q12 21 24 21q11 0 11 -11 q0 -8 -12.5 -32.5t-24.5 -38.5q-28 -37 -65 -58.5t-75 -21.5q-18 0 -26.5 3t-91.5 38q-67 29 -88 29q-43 0 -68 -45q-3 -11 -14 -11t-11 13z" />
<glyph unicode="&#xc4;" horiz-adv-x="2003" d="M-96 96q0 25 13 45t46 47l78 64q32 29 86 72q60 48 72 59l215 182q-95 38 -95 74q0 11 3 15.5t22 23.5l72 65q10 12 16 17.5t10 5.5q6 0 25 -12q50 -30 106 -47q31 26 162 133q127 105 246 190t266 178q149 95 221 95q57 0 95.5 -44t72 -155t66.5 -297q36 -200 51 -275.5 t29.5 -115t30 -48t51.5 -8.5q31 0 108 39q20 12 41 21q12 6 17.5 8.5t15.5 7.5q12 6 16 6q9 0 9 -6q0 -11 -97 -92q-206 -182 -309 -182q-39 0 -63 17.5t-40 62t-28 123.5q-12 80 -43 407q-19 191 -66 281t-127 90q-39 0 -107.5 -35t-153 -94.5t-182 -141t-204.5 -184.5 q236 -53 627 -53q44 0 152 6q-102 -71 -250 -108t-336 -37q-182 0 -348 45q-33 -45 -213 -267q-93 -114 -174.5 -173.5t-141.5 -59.5q-27 0 -45 15.5t-18 39.5zM1214 1450q0 13 5.5 20.5t33.5 32.5q25 18 39 39q7 12 19 12q9 0 16 -16q26 -45 113 -78q-25 -34 -65.5 -55 t-82.5 -21q-32 0 -55 20t-23 46zM1532 1450q0 12 4.5 19.5t32.5 33.5q31 26 41 39q7 12 16 12q11 0 19 -16q14 -25 37.5 -41t74.5 -37q-25 -34 -64.5 -55t-82.5 -21q-32 0 -55 20t-23 46z" />
<glyph unicode="&#xc5;" horiz-adv-x="2003" d="M-96 96q0 25 13 45t46 47l78 64q32 29 86 72q60 48 72 59l215 182q-95 38 -95 74q0 11 3 15.5t22 23.5l72 65q10 12 16 17.5t10 5.5q6 0 25 -12q50 -30 106 -47q31 26 162 133q127 105 246 190t266 178q149 95 221 95q57 0 95.5 -44t72 -155t66.5 -297q36 -200 51 -275.5 t29.5 -115t30 -48t51.5 -8.5q31 0 108 39q20 12 41 21q12 6 17.5 8.5t15.5 7.5q12 6 16 6q9 0 9 -6q0 -11 -97 -92q-206 -182 -309 -182q-39 0 -63 17.5t-40 62t-28 123.5q-12 80 -43 407q-19 191 -66 281t-127 90q-39 0 -107.5 -35t-153 -94.5t-182 -141t-204.5 -184.5 q236 -53 627 -53q44 0 152 6q-102 -71 -250 -108t-336 -37q-182 0 -348 45q-33 -45 -213 -267q-93 -114 -174.5 -173.5t-141.5 -59.5q-27 0 -45 15.5t-18 39.5zM1284 1530q0 51 32.5 102.5t83.5 84t99 32.5q40 0 53 -33h4q19 2 50 2q47 0 80.5 -32.5t33.5 -77.5 q0 -55 -36.5 -107t-95.5 -84.5t-122 -32.5q-81 0 -131.5 41t-50.5 105zM1370 1559q0 -49 34 -77t91 -28q70 0 122 36.5t52 84.5q0 21 -12 36t-33.5 23t-50.5 8q-99 0 -164 -79h-8q4 49 32 86.5t70 54.5q-6 2 -14 2q-16 0 -39.5 -12t-38.5 -29q-41 -47 -41 -106z" />
<glyph unicode="&#xc6;" horiz-adv-x="2626" d="M-98 100q0 27 28 60q11 10 256 215l201 170l19 20q-57 24 -76 38t-19 32q0 12 8.5 22t47.5 43q21 25 47 48q14 14 22 14t84 -39q31 -13 47 -16q321 263 475 372q118 83 192 127.5t129.5 68t92.5 23.5q50 0 84 -31.5t62 -99.5q16 -37 31 -93.5t36 -160.5 q144 215 311.5 329.5t348.5 123.5l6 -23q-127 -29 -214 -84t-184 -165q-71 -85 -116 -161t-67.5 -150t-24.5 -148q237 0 534 76q-86 -57 -156.5 -91t-153 -58t-214.5 -48q19 -118 63 -188q59 -92 166.5 -142.5t243.5 -50.5q106 0 187.5 31.5t128 87.5t46.5 127q0 25 4 33 t15 8q18 0 18 -33q0 -48 -22.5 -103.5t-59.5 -99.5q-46 -54 -101.5 -96t-118 -71.5t-128.5 -44.5t-137 -15q-152 0 -265.5 58.5t-181.5 168.5q-36 60 -55 129t-31 181q-197 -17 -378 -17q-147 0 -257.5 6.5t-206.5 20.5t-182 37q-186 -258 -312 -379t-210 -121q-63 0 -63 59 zM643 688q83 -18 159.5 -29t195 -19t228.5 -10.5t267 -2.5q-5 129 -37 297q-43 217 -170 217q-53 0 -141.5 -50.5t-213 -150.5t-288.5 -252zM2318 1112q0 51 11.5 100.5t30 85t38.5 45.5q7 5 99 5q26 2 47 2h8q19 -31 43 -62l-8 -22q-37 -107 -37 -144q0 -23 15 -37t61 -30 q-85 -29 -213 -29q-95 0 -95 86z" />
<glyph unicode="&#xc7;" horiz-adv-x="1630" d="M117 500q0 177 116 332t340 280q144 80 307.5 129t282.5 49q152 0 152 -73q0 -14 -7.5 -30.5t-31.5 -58.5h31q42 0 84.5 -17t42.5 -36q0 -5 -3.5 -10t-9.5 -11.5t-22.5 -20.5t-38.5 -32t-96 -81q-88 -86 -265 -263q-68 -71 -139 -71q-46 0 -74 30t-28 78q0 30 11.5 61 t37 67.5t57.5 66.5q86 83 161 132.5t155 76.5l32 53q23 38 23 57q0 49 -78 49q-62 0 -157 -27t-192 -70t-183 -99q-148 -96 -225.5 -213.5t-77.5 -249.5q0 -90 48 -167.5t130 -119.5q68 -35 153 -59t181 -35.5t208 -11.5q175 0 325 35.5t218 93.5q34 29 54 76.5t20 99.5 q0 16 -2 22q-4 22 -4 21q0 16 12 16q23 0 23 -67q0 -146 -112 -263.5t-311.5 -184t-447.5 -66.5q-162 0 -293 35.5t-221 102t-138 162.5t-48 212zM496 -272q0 19 21 34t46 15q29 0 53 -29q17 -18 23.5 -21t32.5 -3q28 0 47.5 14.5t19.5 36.5q0 18 -15 28t-110 54 q-12 3 -12 10t19 22l79 74q19 19 33 19q7 0 14 -5t7 -12q0 -6 -11 -18l-10 -17q-12 -14 -12 -20q0 -8 22 -14q31 -10 50.5 -28.5t19.5 -39.5q0 -32 -35 -67.5t-85.5 -60t-98.5 -24.5q-42 0 -70 15.5t-28 36.5z" />
<glyph unicode="&#xc8;" horiz-adv-x="1538" d="M121 838q0 33 45 135q62 -26 127 -47t132.5 -38.5t119.5 -25.5q85 148 197 259t238.5 174.5t254.5 72.5l4 -25q-108 -16 -213.5 -84t-194 -175t-153.5 -246q103 -23 291.5 -38t412.5 -16q-90 -70 -202.5 -99.5t-282.5 -29.5q-142 0 -291 21q-18 -75 -18 -123 q0 -75 39.5 -147t107.5 -123q88 -66 205.5 -106t230.5 -40q85 0 155.5 32.5t112 90t46.5 129.5q3 29 16 29q17 0 17 -39q0 -37 -18.5 -88t-47.5 -90q-82 -110 -222.5 -178t-287.5 -68q-225 0 -371 139q-50 47 -79.5 97.5t-44.5 114t-15 134.5q0 128 45 256q-208 28 -299 72 q-38 20 -47.5 32.5t-9.5 37.5zM1122 1675q0 28 23 48t53 20t51 -16t21 -39q0 -9 -2 -17v-14q0 -40 32.5 -80.5t77.5 -58.5q19 -10 19 -17q0 -10 -15 -10q-20 0 -59.5 12.5t-73.5 30.5q-57 31 -92 70t-35 71zM1231 1112q0 51 11.5 100.5t30 85t38.5 45.5q7 5 98 5q27 2 47 2 h10q16 -28 41 -62l-8 -22q-37 -102 -37 -144q0 -18 5.5 -27t25.5 -19.5t45 -20.5q-84 -29 -213 -29q-94 0 -94 86z" />
<glyph unicode="&#xc9;" horiz-adv-x="1538" d="M121 838q0 33 45 135q62 -26 127 -47t132.5 -38.5t119.5 -25.5q85 148 197 259t238.5 174.5t254.5 72.5l4 -25q-108 -16 -213.5 -84t-194 -175t-153.5 -246q103 -23 291.5 -38t412.5 -16q-90 -70 -202.5 -99.5t-282.5 -29.5q-142 0 -291 21q-18 -75 -18 -123 q0 -75 39.5 -147t107.5 -123q88 -66 205.5 -106t230.5 -40q85 0 155.5 32.5t112 90t46.5 129.5q3 29 16 29q17 0 17 -39q0 -37 -18.5 -88t-47.5 -90q-82 -110 -222.5 -178t-287.5 -68q-225 0 -371 139q-50 47 -79.5 97.5t-44.5 114t-15 134.5q0 128 45 256q-208 28 -299 72 q-38 20 -47.5 32.5t-9.5 37.5zM1133 1470q0 8 18 17q46 16 79.5 57t33.5 80q0 10 -2 16q-2 9 -2 17q0 22 20.5 38.5t52.5 16.5q29 0 51.5 -20t22.5 -45q0 -41 -44.5 -84.5t-111.5 -73.5q-67 -29 -104 -29q-14 0 -14 10zM1231 1112q0 51 11.5 100.5t30 85t38.5 45.5q7 5 98 5 q27 2 47 2h10q16 -28 41 -62l-8 -22q-37 -102 -37 -144q0 -18 5.5 -27t25.5 -19.5t45 -20.5q-84 -29 -213 -29q-94 0 -94 86z" />
<glyph unicode="&#xca;" horiz-adv-x="1538" d="M121 838q0 33 45 135q62 -26 127 -47t132.5 -38.5t119.5 -25.5q85 148 197 259t238.5 174.5t254.5 72.5l4 -25q-108 -16 -213.5 -84t-194 -175t-153.5 -246q103 -23 291.5 -38t412.5 -16q-90 -70 -202.5 -99.5t-282.5 -29.5q-142 0 -291 21q-18 -75 -18 -123 q0 -75 39.5 -147t107.5 -123q88 -66 205.5 -106t230.5 -40q85 0 155.5 32.5t112 90t46.5 129.5q3 29 16 29q17 0 17 -39q0 -37 -18.5 -88t-47.5 -90q-82 -110 -222.5 -178t-287.5 -68q-225 0 -371 139q-50 47 -79.5 97.5t-44.5 114t-15 134.5q0 128 45 256q-208 28 -299 72 q-38 20 -47.5 32.5t-9.5 37.5zM932 1454q0 8 14 16l15 11q7 6 18 14t31 23q110 75 166 131q23 20 32 20q4 0 56 -55q11 -13 20 -23q19 -22 44.5 -43t25.5 -32q0 -9 -17 -25l-12 -14q-29 -35 -43 -35q-10 0 -47 39q-53 51 -78 53q-18 0 -41.5 -9t-116.5 -52q-49 -25 -57 -25 q-10 0 -10 6zM1231 1112q0 51 11.5 100.5t30 85t38.5 45.5q7 5 98 5q27 2 47 2h10q16 -28 41 -62l-8 -22q-37 -102 -37 -144q0 -18 5.5 -27t25.5 -19.5t45 -20.5q-84 -29 -213 -29q-94 0 -94 86z" />
<glyph unicode="&#xcb;" horiz-adv-x="1538" d="M121 838q0 33 45 135q62 -26 127 -47t132.5 -38.5t119.5 -25.5q85 148 197 259t238.5 174.5t254.5 72.5l4 -25q-108 -16 -213.5 -84t-194 -175t-153.5 -246q103 -23 291.5 -38t412.5 -16q-90 -70 -202.5 -99.5t-282.5 -29.5q-142 0 -291 21q-18 -75 -18 -123 q0 -75 39.5 -147t107.5 -123q88 -66 205.5 -106t230.5 -40q85 0 155.5 32.5t112 90t46.5 129.5q3 29 16 29q17 0 17 -39q0 -37 -18.5 -88t-47.5 -90q-82 -110 -222.5 -178t-287.5 -68q-225 0 -371 139q-50 47 -79.5 97.5t-44.5 114t-15 134.5q0 128 45 256q-208 28 -299 72 q-38 20 -47.5 32.5t-9.5 37.5zM874 1532q0 13 5.5 20.5t33.5 32.5q25 18 39 39q7 12 19 12q9 0 16 -16q26 -45 113 -78q-25 -34 -65.5 -55t-82.5 -21q-32 0 -55 20t-23 46zM1192 1532q0 12 4.5 19.5t32.5 33.5q31 26 41 39q7 12 16 12q11 0 19 -16q14 -25 37.5 -41t74.5 -37 q-25 -34 -64.5 -55t-82.5 -21q-32 0 -55 20t-23 46zM1231 1112q0 51 11.5 100.5t30 85t38.5 45.5q7 5 98 5q27 2 47 2h10q16 -28 41 -62l-8 -22q-37 -102 -37 -144q0 -18 5.5 -27t25.5 -19.5t45 -20.5q-84 -29 -213 -29q-94 0 -94 86z" />
<glyph unicode="&#xcc;" horiz-adv-x="1106" d="M178 872q0 88 26.5 178.5t67.5 137.5q45 51 109.5 81.5t165 45t231.5 14.5q251 0 362 -40.5t111 -135.5q0 -100 -141 -446q-46 -113 -88 -200.5t-94 -179t-117 -196.5q-62 -96 -117.5 -140t-115.5 -44q-75 0 -156 51q-49 33 -71.5 64.5t-22.5 72.5q0 93 106 197 q62 -81 104.5 -110t98.5 -29q57 0 105.5 27.5t93.5 85.5t96 155q135 264 135 477q0 67 -27 110t-75 56q-46 12 -185 12q-190 0 -303.5 -16.5t-171.5 -52.5q-27 -16 -43.5 -38t-26.5 -53.5t-16 -81.5q-6 -36 -20 -36q-21 0 -21 34zM629 1606q0 27 23 47t53 20q29 0 50 -16 t21 -39q0 -8 -2 -16v-15q0 -40 31.5 -79.5t79.5 -59.5q18 -9 18 -16q0 -11 -14 -11q-20 0 -59.5 12.5t-73.5 30.5q-58 31 -92.5 70.5t-34.5 71.5z" />
<glyph unicode="&#xcd;" horiz-adv-x="1106" d="M178 872q0 88 26.5 178.5t67.5 137.5q45 51 109.5 81.5t165 45t231.5 14.5q251 0 362 -40.5t111 -135.5q0 -100 -141 -446q-46 -113 -88 -200.5t-94 -179t-117 -196.5q-62 -96 -117.5 -140t-115.5 -44q-75 0 -156 51q-49 33 -71.5 64.5t-22.5 72.5q0 93 106 197 q62 -81 104.5 -110t98.5 -29q57 0 105.5 27.5t93.5 85.5t96 155q135 264 135 477q0 67 -27 110t-75 56q-46 12 -185 12q-190 0 -303.5 -16.5t-171.5 -52.5q-27 -16 -43.5 -38t-26.5 -53.5t-16 -81.5q-6 -36 -20 -36q-21 0 -21 34zM721 1442q0 7 18 16q46 18 79.5 58.5 t33.5 78.5q0 11 -2 17q-2 8 -2 16q0 23 21 39t53 16q30 0 51.5 -19t21.5 -46q0 -40 -43 -83.5t-112 -74.5q-65 -28 -105 -28q-14 0 -14 10z" />
<glyph unicode="&#xce;" horiz-adv-x="1106" d="M178 872q0 88 26.5 178.5t67.5 137.5q45 51 109.5 81.5t165 45t231.5 14.5q251 0 362 -40.5t111 -135.5q0 -100 -141 -446q-46 -113 -88 -200.5t-94 -179t-117 -196.5q-62 -96 -117.5 -140t-115.5 -44q-75 0 -156 51q-49 33 -71.5 64.5t-22.5 72.5q0 93 106 197 q62 -81 104.5 -110t98.5 -29q57 0 105.5 27.5t93.5 85.5t96 155q135 264 135 477q0 67 -27 110t-75 56q-46 12 -185 12q-190 0 -303.5 -16.5t-171.5 -52.5q-27 -16 -43.5 -38t-26.5 -53.5t-16 -81.5q-6 -36 -20 -36q-21 0 -21 34zM614 1442q0 8 15 16l14 10q9 9 23 18.5 t26 18.5q55 38 97.5 71.5t68.5 59.5q23 21 33 21q2 0 55 -55q17 -19 21 -23q26 -29 45 -43q24 -21 24 -33q0 -8 -16 -24l-12 -15q-30 -34 -43 -34q-7 0 -17 8.5t-30 29.5q-56 52 -78 54q-19 0 -34.5 -6t-123.5 -56q-49 -24 -57 -24q-11 0 -11 6z" />
<glyph unicode="&#xcf;" horiz-adv-x="1106" d="M178 872q0 88 26.5 178.5t67.5 137.5q45 51 109.5 81.5t165 45t231.5 14.5q251 0 362 -40.5t111 -135.5q0 -100 -141 -446q-46 -113 -88 -200.5t-94 -179t-117 -196.5q-62 -96 -117.5 -140t-115.5 -44q-75 0 -156 51q-49 33 -71.5 64.5t-22.5 72.5q0 93 106 197 q62 -81 104.5 -110t98.5 -29q57 0 105.5 27.5t93.5 85.5t96 155q135 264 135 477q0 67 -27 110t-75 56q-46 12 -185 12q-190 0 -303.5 -16.5t-171.5 -52.5q-27 -16 -43.5 -38t-26.5 -53.5t-16 -81.5q-6 -36 -20 -36q-21 0 -21 34zM526 1489q0 13 5.5 20.5t33.5 32.5 q28 22 39 39q7 12 19 12q9 0 16 -16q14 -25 38 -41.5t75 -36.5q-24 -33 -64.5 -54.5t-83.5 -21.5q-32 0 -55 20t-23 46zM844 1489q0 12 4.5 19.5t32.5 33.5q25 21 41 39q7 12 16 12q11 0 18 -16q16 -26 39 -41.5t74 -36.5q-25 -34 -64.5 -55t-82.5 -21q-32 0 -55 20t-23 46z " />
<glyph unicode="&#xd0;" horiz-adv-x="1989" d="M68 600q0 53 42 99.5t114.5 73t156.5 26.5q66 0 119.5 -14t107.5 -47t125 -95q41 -34 271 -244q182 -163 295.5 -226.5t216.5 -63.5q99 0 186.5 52t140.5 140t53 184q0 25 -2 45q-111 -55 -270 -55q-139 0 -270.5 51t-236.5 145.5t-167 217.5l-309 -12h-23q-20 0 -38 18 q-15 8 -27 20l-5.5 5.5t-6.5 5.5q-19 12 -19 20t15 8h18l371 -4q-15 56 -15 101q0 84 43.5 153.5t122.5 108.5t174 39q122 0 242.5 -54t224.5 -155q67 -65 105.5 -118.5t66.5 -123.5h19q48 0 79 -48t31 -120q0 -50 -14.5 -89t-50.5 -83q4 -48 4 -55q0 -78 -29.5 -160 t-79.5 -145q-77 -98 -196 -152.5t-260 -54.5q-276 0 -521 184q-68 51 -116.5 93.5t-155.5 142.5q-165 161 -247 218.5t-144 57.5q-43 0 -69.5 -27.5t-26.5 -70.5q0 -47 34.5 -95t121 -113.5t227.5 -154.5q26 -14 26 -30q0 -15 -12 -15q-21 0 -129 60q-163 96 -238 182 t-75 174zM1083 1112q0 -43 12.5 -77.5t45.5 -86.5l446 -4q27 0 27 -14q0 -15 -29 -15l-405 -16q63 -69 133.5 -122t150.5 -94t159 -62t146 -21q39 0 64 6t59 27q-18 88 -48 166t-73 145t-100 127q-57 62 -127.5 109t-142 73.5t-135.5 26.5q-75 0 -129 -50t-54 -118z" />
<glyph unicode="&#xd1;" horiz-adv-x="1796" d="M96 59q0 33 37 95.5t189 285.5q160 234 219 348t59 183q0 45 -37 73.5t-98 28.5q-58 0 -137 -22l39 94q24 59 53 83.5t74 24.5q34 0 74.5 -14t70.5 -39q84 -63 84 -162q0 -46 -24 -105t-101 -204q-100 -179 -192 -323h10q133 152 158 180.5t63 70.5t75 79t62 61 q104 98 199.5 166.5t176.5 102.5t144 34q53 0 96 -28.5t66 -76.5q12 -23 19 -50t12.5 -55t15.5 -91t27 -197q27 -199 37 -246t28 -71q21 -27 62 -27q23 0 41.5 7t89.5 46l22 13q-29 -51 -56 -80.5t-93 -85.5q-69 -58 -112 -81.5t-83 -23.5q-80 0 -104 94q-1 3 -10 80 t-25 197l-33 330q-12 131 -26 172q-12 40 -39 64t-58 24q-50 0 -114 -46.5t-157 -152t-203 -258.5t-257 -377q-51 -79 -83 -116t-62.5 -50.5t-75.5 -13.5q-123 0 -123 59zM866 1276q0 9 27 47q61 88 139 88q32 0 98 -31q76 -32 107 -32q39 0 70 43q12 20 24 20q10 0 10 -10 t-12 -33t-24 -39q-28 -37 -65 -58.5t-75 -21.5q-18 0 -26.5 3t-91.5 38q-63 29 -89 29q-42 0 -67 -45q-3 -10 -14 -10t-11 12z" />
<glyph unicode="&#xd2;" horiz-adv-x="1655" d="M137 504q0 155 69.5 303.5t201.5 277.5q121 115 248 177.5t239 62.5q74 0 110.5 -32t55.5 -113q112 24 199 24q99 0 182.5 -28t143 -80t92 -122.5t32.5 -158.5q0 -90 -36.5 -192t-103.5 -200.5t-157 -182.5q-61 -57 -139 -106t-161.5 -82t-170 -49.5t-170.5 -16.5 q-140 0 -257 38t-201 107t-130.5 165t-46.5 208zM362 625q0 -121 33.5 -203t106.5 -141q80 -65 186.5 -100.5t220.5 -35.5q160 0 324 62q83 31 159.5 91t135.5 138q94 127 94 250q0 100 -54.5 174.5t-154 115t-231.5 40.5q-171 0 -342 -71t-283 -189q-112 -120 -151 -271 l-21 4q1 45 19.5 102.5t51 119.5t76.5 125q94 129 210 205.5t292 129.5q-15 52 -33 74q-35 43 -112 43q-88 0 -184 -52t-175 -142q-81 -96 -124.5 -216.5t-43.5 -252.5zM1001 1612q0 27 22.5 47t53.5 20q30 0 51 -16t21 -39q0 -8 -2 -16v-15q0 -40 31.5 -79.5t78.5 -59.5 q19 -9 19 -16q0 -11 -14 -11q-21 0 -60.5 12.5t-73.5 30.5q-57 31 -92 70.5t-35 71.5z" />
<glyph unicode="&#xd3;" horiz-adv-x="1655" d="M137 504q0 155 69.5 303.5t201.5 277.5q121 115 248 177.5t239 62.5q74 0 110.5 -32t55.5 -113q112 24 199 24q99 0 182.5 -28t143 -80t92 -122.5t32.5 -158.5q0 -90 -36.5 -192t-103.5 -200.5t-157 -182.5q-61 -57 -139 -106t-161.5 -82t-170 -49.5t-170.5 -16.5 q-140 0 -257 38t-201 107t-130.5 165t-46.5 208zM362 625q0 -121 33.5 -203t106.5 -141q80 -65 186.5 -100.5t220.5 -35.5q160 0 324 62q83 31 159.5 91t135.5 138q94 127 94 250q0 100 -54.5 174.5t-154 115t-231.5 40.5q-171 0 -342 -71t-283 -189q-112 -120 -151 -271 l-21 4q1 45 19.5 102.5t51 119.5t76.5 125q94 129 210 205.5t292 129.5q-15 52 -33 74q-35 43 -112 43q-88 0 -184 -52t-175 -142q-81 -96 -124.5 -216.5t-43.5 -252.5zM1022 1407q0 7 18 16q46 18 79.5 58.5t33.5 79.5q0 10 -2 16q-2 8 -2 16q0 24 21 40t53 16 q29 0 51 -19.5t22 -46.5q0 -40 -43 -83.5t-112 -74.5q-65 -28 -105 -28q-14 0 -14 10z" />
<glyph unicode="&#xd4;" horiz-adv-x="1655" d="M137 504q0 155 69.5 303.5t201.5 277.5q121 115 248 177.5t239 62.5q74 0 110.5 -32t55.5 -113q112 24 199 24q99 0 182.5 -28t143 -80t92 -122.5t32.5 -158.5q0 -90 -36.5 -192t-103.5 -200.5t-157 -182.5q-61 -57 -139 -106t-161.5 -82t-170 -49.5t-170.5 -16.5 q-140 0 -257 38t-201 107t-130.5 165t-46.5 208zM362 625q0 -121 33.5 -203t106.5 -141q80 -65 186.5 -100.5t220.5 -35.5q160 0 324 62q83 31 159.5 91t135.5 138q94 127 94 250q0 100 -54.5 174.5t-154 115t-231.5 40.5q-171 0 -342 -71t-283 -189q-112 -120 -151 -271 l-21 4q1 45 19.5 102.5t51 119.5t76.5 125q94 129 210 205.5t292 129.5q-15 52 -33 74q-35 43 -112 43q-88 0 -184 -52t-175 -142q-81 -96 -124.5 -216.5t-43.5 -252.5zM913 1436q0 7 15 16l14 10q9 9 23 18.5t26 18.5q107 72 166 131q24 21 33 21q2 0 55 -56q6 -6 11 -11.5 t10 -10.5q22 -27 45 -43q24 -23 24 -33q0 -8 -16 -24l-12 -15q-31 -35 -43 -35q-7 0 -15 6.5t-32 32.5q-53 50 -78 54q-19 0 -34.5 -6t-123.5 -56q-49 -24 -57 -24q-11 0 -11 6z" />
<glyph unicode="&#xd5;" horiz-adv-x="1655" d="M137 504q0 155 69.5 303.5t201.5 277.5q121 115 248 177.5t239 62.5q74 0 110.5 -32t55.5 -113q112 24 199 24q99 0 182.5 -28t143 -80t92 -122.5t32.5 -158.5q0 -90 -36.5 -192t-103.5 -200.5t-157 -182.5q-61 -57 -139 -106t-161.5 -82t-170 -49.5t-170.5 -16.5 q-140 0 -257 38t-201 107t-130.5 165t-46.5 208zM362 625q0 -121 33.5 -203t106.5 -141q80 -65 186.5 -100.5t220.5 -35.5q160 0 324 62q83 31 159.5 91t135.5 138q94 127 94 250q0 100 -54.5 174.5t-154 115t-231.5 40.5q-171 0 -342 -71t-283 -189q-112 -120 -151 -271 l-21 4q1 45 19.5 102.5t51 119.5t76.5 125q94 129 210 205.5t292 129.5q-15 52 -33 74q-35 43 -112 43q-88 0 -184 -52t-175 -142q-81 -96 -124.5 -216.5t-43.5 -252.5zM942 1444q0 9 27 47q61 88 139 88q32 0 98 -31q76 -32 107 -32q39 0 69 43q14 20 25 20q10 0 10 -10 q0 -12 -11 -33t-26 -39q-28 -37 -64 -58.5t-75 -21.5q-24 0 -119 41q-63 29 -88 29q-42 0 -67 -45q-3 -10 -15 -10q-10 0 -10 12z" />
<glyph unicode="&#xd6;" horiz-adv-x="1655" d="M137 504q0 155 69.5 303.5t201.5 277.5q121 115 248 177.5t239 62.5q74 0 110.5 -32t55.5 -113q112 24 199 24q99 0 182.5 -28t143 -80t92 -122.5t32.5 -158.5q0 -90 -36.5 -192t-103.5 -200.5t-157 -182.5q-61 -57 -139 -106t-161.5 -82t-170 -49.5t-170.5 -16.5 q-140 0 -257 38t-201 107t-130.5 165t-46.5 208zM362 625q0 -121 33.5 -203t106.5 -141q80 -65 186.5 -100.5t220.5 -35.5q160 0 324 62q83 31 159.5 91t135.5 138q94 127 94 250q0 100 -54.5 174.5t-154 115t-231.5 40.5q-171 0 -342 -71t-283 -189q-112 -120 -151 -271 l-21 4q1 45 19.5 102.5t51 119.5t76.5 125q94 129 210 205.5t292 129.5q-15 52 -33 74q-35 43 -112 43q-88 0 -184 -52t-175 -142q-81 -96 -124.5 -216.5t-43.5 -252.5zM938 1513q0 14 5.5 21.5t33.5 32.5q31 25 39 39q7 12 18 12q9 0 17 -16q14 -25 38 -42t74 -36 q-25 -34 -64.5 -55t-82.5 -21q-32 0 -55 20t-23 45zM1255 1513q0 13 4.5 20.5t32.5 33.5q31 24 41 39q7 12 17 12q11 0 18 -16q14 -25 38 -42.5t75 -35.5q-25 -34 -65.5 -55t-82.5 -21q-32 0 -55 20t-23 45z" />
<glyph unicode="&#xd7;" horiz-adv-x="526" d="M0 643q0 4 4 16l12 29q14 41 25 41q8 0 25 -12q22 -22 40 -35q59 -48 156 -139q19 19 60 55q10 10 28 31q7 6 29 35q9 11 15 18t12 16q18 29 34 29q3 0 19 -4l26 -12q41 -13 41 -25q0 -9 -12 -24q-25 -27 -35 -41q-42 -55 -135 -154l21 -21l43 -40l30 -30t29 -28 q15 -13 33 -26q26 -22 26 -33q0 -7 -4 -19l-12 -26q-10 -39 -27 -39q-12 0 -69 46.5t-123 110.5l-25 23l-47 -49q-73 -73 -98 -107q-21 -28 -35 -28q-2 0 -18 4l-27 12q-28 10 -33.5 13.5t-5.5 11.5q0 19 45 69q115 131 139 156q-118 115 -153 139q-33 24 -33 37z" />
<glyph unicode="&#xd8;" horiz-adv-x="1655" d="M137 502q0 121 47.5 247.5t136 240.5t207.5 200q192 139 357 139q75 0 117 -32t69 -109q95 18 178 18q90 0 174 -22q65 68 98.5 85t98.5 17q94 0 94 -12q0 -4 -16 -19q-67 -59 -89 -78t-55 -49q150 -123 150 -313q0 -99 -39.5 -206t-113 -207.5t-173.5 -182.5 q-69 -56 -141.5 -98t-151 -71.5t-159.5 -45.5t-162 -16q-112 0 -215 26t-180 72l-119 -104l-8 -9q-11 -10 -17 -10q-14 0 -14 12q0 9 10 19l111 112q-72 62 -105 103q-90 126 -90 293zM362 610q0 -119 32.5 -198t107.5 -144l747 748q-88 10 -119 10q-50 0 -107.5 -12 t-123.5 -35.5t-125 -54t-115 -68.5q-74 -52 -119.5 -102t-77.5 -119.5t-56 -163.5l-15 6q15 163 101.5 307t227.5 247t312 143q-36 118 -151 118t-234 -86q-91 -65 -155 -156t-97 -202.5t-33 -237.5zM543 238q61 -31 118.5 -52t114.5 -30t119 -9q114 0 223 28.5t201.5 83 t157.5 126.5q63 70 102 157t39 156q0 66 -28 124.5t-79 99.5t-120 61z" />
<glyph unicode="&#xd9;" horiz-adv-x="2017" d="M170 315q0 76 64 218t169 301q-14 -3 -34 -3q-102 0 -154 113q46 0 99.5 25t113.5 72t135.5 121.5t165.5 180.5q10 17 21 17q13 0 24.5 -41t11.5 -92q0 -75 -34 -149t-95 -132q-32 -31 -57 -46.5t-102 -53.5q-54 -27 -82 -72q-117 -180 -117 -270q0 -103 86 -166 q46 -32 101 -45.5t141 -13.5q164 0 308.5 49t273 150t243.5 255q54 72 64.5 98t15.5 91q5 86 39 108q36 23 77.5 41.5t57.5 18.5q17 0 24.5 -19.5t10.5 -75.5l16 -327q8 -198 19 -238q8 -34 31.5 -56t52.5 -22q52 0 196 99l8 -11q-118 -111 -233.5 -189.5t-161.5 -78.5 q-69 0 -96 96q-26 95 -37 506q-88 -143 -328 -379q-102 -99 -221.5 -169.5t-245 -108t-245.5 -37.5q-97 0 -171.5 29.5t-114.5 83t-40 122.5zM1092 1616q0 27 22 47t53 20q30 0 51 -16t21 -39q0 -8 -2 -16v-15q0 -40 31.5 -79.5t79.5 -59.5q18 -9 18 -16q0 -10 -14 -10 q-20 0 -59.5 12.5t-73.5 30.5q-56 28 -91.5 68.5t-35.5 72.5z" />
<glyph unicode="&#xda;" horiz-adv-x="2017" d="M170 315q0 76 64 218t169 301q-14 -3 -34 -3q-102 0 -154 113q46 0 99.5 25t113.5 72t135.5 121.5t165.5 180.5q10 17 21 17q13 0 24.5 -41t11.5 -92q0 -75 -34 -149t-95 -132q-32 -31 -57 -46.5t-102 -53.5q-54 -27 -82 -72q-117 -180 -117 -270q0 -103 86 -166 q46 -32 101 -45.5t141 -13.5q164 0 308.5 49t273 150t243.5 255q54 72 64.5 98t15.5 91q5 86 39 108q36 23 77.5 41.5t57.5 18.5q17 0 24.5 -19.5t10.5 -75.5l16 -327q8 -198 19 -238q8 -34 31.5 -56t52.5 -22q52 0 196 99l8 -11q-118 -111 -233.5 -189.5t-161.5 -78.5 q-69 0 -96 96q-26 95 -37 506q-88 -143 -328 -379q-102 -99 -221.5 -169.5t-245 -108t-245.5 -37.5q-97 0 -171.5 29.5t-114.5 83t-40 122.5zM1174 1452q0 7 18 16q47 18 80 58t33 80q0 10 -2 16q-3 8 -3 16q0 24 21 40t53 16q29 0 51.5 -20t22.5 -46q0 -40 -44 -84 t-112 -74q-65 -28 -104 -28q-14 0 -14 10z" />
<glyph unicode="&#xdb;" horiz-adv-x="2017" d="M170 315q0 76 64 218t169 301q-14 -3 -34 -3q-102 0 -154 113q46 0 99.5 25t113.5 72t135.5 121.5t165.5 180.5q10 17 21 17q13 0 24.5 -41t11.5 -92q0 -75 -34 -149t-95 -132q-32 -31 -57 -46.5t-102 -53.5q-54 -27 -82 -72q-117 -180 -117 -270q0 -103 86 -166 q46 -32 101 -45.5t141 -13.5q164 0 308.5 49t273 150t243.5 255q54 72 64.5 98t15.5 91q5 86 39 108q36 23 77.5 41.5t57.5 18.5q17 0 24.5 -19.5t10.5 -75.5l16 -327q8 -198 19 -238q8 -34 31.5 -56t52.5 -22q52 0 196 99l8 -11q-118 -111 -233.5 -189.5t-161.5 -78.5 q-69 0 -96 96q-26 95 -37 506q-88 -143 -328 -379q-102 -99 -221.5 -169.5t-245 -108t-245.5 -37.5q-97 0 -171.5 29.5t-114.5 83t-40 122.5zM1036 1407q0 8 15 16l14 11q10 9 23.5 18t25.5 18q108 74 166 132q23 20 33 20q3 0 55 -55q9 -11 21 -23q26 -29 45 -43 q24 -21 24 -33q0 -8 -16 -24l-12 -14q-30 -35 -44 -35q-10 0 -47 39q-53 51 -77 53q-19 0 -34.5 -6t-123.5 -56q-49 -24 -57 -24q-11 0 -11 6z" />
<glyph unicode="&#xdc;" horiz-adv-x="2017" d="M170 315q0 76 64 218t169 301q-14 -3 -34 -3q-102 0 -154 113q46 0 99.5 25t113.5 72t135.5 121.5t165.5 180.5q10 17 21 17q13 0 24.5 -41t11.5 -92q0 -75 -34 -149t-95 -132q-32 -31 -57 -46.5t-102 -53.5q-54 -27 -82 -72q-117 -180 -117 -270q0 -103 86 -166 q46 -32 101 -45.5t141 -13.5q164 0 308.5 49t273 150t243.5 255q54 72 64.5 98t15.5 91q5 86 39 108q36 23 77.5 41.5t57.5 18.5q17 0 24.5 -19.5t10.5 -75.5l16 -327q8 -198 19 -238q8 -34 31.5 -56t52.5 -22q52 0 196 99l8 -11q-118 -111 -233.5 -189.5t-161.5 -78.5 q-69 0 -96 96q-26 95 -37 506q-88 -143 -328 -379q-102 -99 -221.5 -169.5t-245 -108t-245.5 -37.5q-97 0 -171.5 29.5t-114.5 83t-40 122.5zM969 1413q0 14 4.5 20.5t34.5 32.5q26 23 39 39q7 13 18 13q9 0 16 -17q26 -45 113 -78q-56 -75 -147 -75q-31 0 -54.5 19.5 t-23.5 45.5zM1286 1413q0 13 3.5 19t33.5 34q38 34 41 39q7 13 16 13q12 0 19 -17q14 -25 37.5 -41t74.5 -37q-54 -75 -147 -75q-31 0 -54.5 19.5t-23.5 45.5z" />
<glyph unicode="&#xdd;" horiz-adv-x="1495" d="M0 -74q0 60 45 118.5t131.5 108.5t202.5 85q151 47 324 72.5t333 25.5q58 0 107 -2q48 103 89 211t60 187t19 128q0 51 -41 51q-23 0 -47 -22q-105 -84 -238 -176q-149 -100 -262.5 -144.5t-210.5 -44.5q-77 0 -139 33t-96.5 91.5t-34.5 135.5q0 92 53.5 212.5 t148.5 240.5q47 58 81.5 85.5t64.5 27.5q22 0 38.5 -15.5t16.5 -38.5q0 -26 -17.5 -54.5t-45.5 -48t-54 -22.5q-28 -3 -38 -7.5t-29 -20.5q-45 -40 -65.5 -82t-20.5 -96q0 -76 43 -140t120 -99.5t171 -35.5q70 0 140.5 21t148.5 67.5t171 125.5t191 177q67 68 106.5 104.5 t57.5 45t43 8.5q55 0 55 -65q0 -62 -59 -232q-103 -281 -324 -612q118 -7 151 -12t33 -21q0 -18 -20 -18q-7 0 -31 4q-123 9 -153 12q-107 -171 -330 -344q-136 -103 -288.5 -160t-291.5 -57q-87 0 -158 25t-111 68.5t-40 98.5zM133 -14q0 -72 71 -115t191 -43 q60 0 122 10.5t123 32t119 53t107 68.5q75 56 130.5 121.5t131.5 185.5h-51q-324 0 -614 -84q-175 -47 -252.5 -101.5t-77.5 -127.5zM1022 1432q0 7 18 16q45 16 79 57.5t34 79.5q0 10 -2 17q-2 8 -2 16q0 23 21 39t53 16q29 0 51 -19.5t22 -45.5q0 -41 -43.5 -84.5 t-111.5 -73.5q-67 -29 -105 -29q-14 0 -14 11z" />
<glyph unicode="&#xde;" horiz-adv-x="1757" d="M-102 -264q0 34 20.5 78.5t63.5 101.5t130 156t212 231l282 701q-52 -33 -94.5 -47.5t-89.5 -14.5q-61 0 -104 38.5t-76 121.5q36 -12 63 -12q55 0 136.5 46t163 121t145.5 166q51 -116 51 -213q0 -56 -27.5 -96t-91.5 -80l-264 -626q25 19 47 38l129 113 q115 102 240 187t239.5 140.5t225 85t206.5 29.5q109 0 202.5 -46t147.5 -125.5t54 -174.5q0 -132 -79.5 -258t-217 -226t-313 -158t-353.5 -58q-259 0 -426 135q-65 52 -65 103q0 28 23.5 53.5t51.5 25.5q40 0 105 -65q19 -20 24 -72q5 -37 15 -56.5t35 -35.5 q72 -43 221 -43q266 0 502 156q270 177 270 387q0 78 -47.5 143t-128.5 103t-176 38q-138 0 -296.5 -57t-291.5 -156q-252 -186 -393 -331q-112 -370 -197 -519q-42 -80 -73 -109.5t-72 -29.5q-51 0 -90 33t-39 78z" />
<glyph unicode="&#xdf;" horiz-adv-x="1016" d="M18 -444q0 99 123 354q27 56 43.5 109t23.5 107.5t7 127.5q0 52 -16 80t-43 28q-28 0 -107 -55l-6 8q63 67 123 111.5t86 44.5q45 0 45 -47q0 -23 -18 -111l-62 -254q9 22 17 40t20 48q61 150 109.5 256.5t93.5 182t96 145.5q100 135 218.5 218t209.5 83q39 0 70.5 -26.5 t31.5 -61.5q0 -26 -18.5 -63.5t-46.5 -67.5q-33 -33 -96 -92q-40 -36 -52 -54.5t-12 -39.5q0 -17 8.5 -28.5t98.5 -113.5q51 -57 51 -116q0 -32 -27.5 -88t-66.5 -103q-77 -94 -170 -149.5t-170 -55.5q-37 0 -58.5 18t-21.5 46q0 36 29 68t61 32q27 0 55 -18q51 -29 82 -29 q35 0 68.5 20.5t54 52.5t20.5 66q0 28 -16.5 54.5t-71.5 85.5l-53 63q-6 6 -18 19.5t-23 25.5q-18 15 -18 33q0 17 5.5 29t17 23.5t57.5 51.5q91 81 128.5 128.5t37.5 84.5q0 39 -26 65t-65 26q-71 0 -155 -109q-46 -61 -86.5 -142.5t-93.5 -215.5q-20 -52 -36 -95t-41 -116 t-51 -157t-53 -171q-57 -184 -92.5 -272t-68.5 -127t-72 -39q-24 0 -42 24.5t-18 57.5z" />
<glyph unicode="&#xe0;" horiz-adv-x="967" d="M47 121q0 63 40.5 129t106.5 117t146 81.5t162 30.5q20 0 78 -2q52 86 104 86q24 0 38.5 -16t14.5 -43q0 -20 -3 -28t-21 -40l-13 -22q105 -52 105 -144q0 -26 -6 -59q-6 -35 -6 -37q0 -33 30 -33q16 0 53.5 15.5t174.5 79.5q-67 -63 -164 -127q-113 -72 -168 -97.5 t-96 -25.5q-27 0 -48.5 19.5t-21.5 43.5q1 21 8 35t49 86q41 64 41 94q0 33 -37 55q-132 -145 -253.5 -233t-192.5 -88q-58 0 -89.5 32.5t-31.5 90.5zM287 266q0 -39 26.5 -64.5t67.5 -25.5q31 0 63.5 15t68 48.5t83.5 92.5q-37 36 -37 69q0 16 8 60q-22 2 -45 2 q-58 0 -113 -28t-88.5 -74t-33.5 -95zM391 829q0 28 23 48t53 20t51 -16t21 -39q0 -8 -2 -17v-14q0 -40 32.5 -80.5t77.5 -58.5q19 -9 19 -17q0 -10 -15 -10q-20 0 -59.5 12.5t-73.5 30.5q-58 31 -92.5 70t-34.5 71z" />
<glyph unicode="&#xe1;" horiz-adv-x="967" d="M47 121q0 63 40.5 129t106.5 117t146 81.5t162 30.5q20 0 78 -2q52 86 104 86q24 0 38.5 -16t14.5 -43q0 -20 -3 -28t-21 -40l-13 -22q105 -52 105 -144q0 -26 -6 -59q-6 -35 -6 -37q0 -33 30 -33q16 0 53.5 15.5t174.5 79.5q-67 -63 -164 -127q-113 -72 -168 -97.5 t-96 -25.5q-27 0 -48.5 19.5t-21.5 43.5q1 21 8 35t49 86q41 64 41 94q0 33 -37 55q-132 -145 -253.5 -233t-192.5 -88q-58 0 -89.5 32.5t-31.5 90.5zM287 266q0 -39 26.5 -64.5t67.5 -25.5q31 0 63.5 15t68 48.5t83.5 92.5q-37 36 -37 69q0 16 8 60q-22 2 -45 2 q-58 0 -113 -28t-88.5 -74t-33.5 -95zM442 645q0 6 19 17q46 16 79 57.5t33 79.5q0 10 -2 16q-2 8 -2 16q0 24 21 40t53 16q29 0 51.5 -20t22.5 -46q0 -40 -44 -84t-112 -73q-63 -29 -104 -29q-15 0 -15 10z" />
<glyph unicode="&#xe2;" horiz-adv-x="967" d="M47 121q0 63 40.5 129t106.5 117t146 81.5t162 30.5q20 0 78 -2q52 86 104 86q24 0 38.5 -16t14.5 -43q0 -20 -3 -28t-21 -40l-13 -22q105 -52 105 -144q0 -26 -6 -59q-6 -35 -6 -37q0 -33 30 -33q16 0 53.5 15.5t174.5 79.5q-67 -63 -164 -127q-113 -72 -168 -97.5 t-96 -25.5q-27 0 -48.5 19.5t-21.5 43.5q1 21 8 35t49 86q41 64 41 94q0 33 -37 55q-132 -145 -253.5 -233t-192.5 -88q-58 0 -89.5 32.5t-31.5 90.5zM287 266q0 -39 26.5 -64.5t67.5 -25.5q31 0 63.5 15t68 48.5t83.5 92.5q-37 36 -37 69q0 16 8 60q-22 2 -45 2 q-58 0 -113 -28t-88.5 -74t-33.5 -95zM389 629q0 8 14 16l15 10q9 9 23 18.5t26 18.5q55 38 97.5 71.5t68.5 59.5q23 21 33 21q2 0 55 -56q14 -16 20 -22q29 -31 45 -43q25 -21 25 -33q0 -8 -16 -24l-13 -15q-30 -35 -43 -35q-10 0 -47 39q-54 52 -78 54q-18 0 -33.5 -6 t-123.5 -56q-49 -24 -58 -24q-10 0 -10 6z" />
<glyph unicode="&#xe3;" horiz-adv-x="967" d="M47 121q0 63 40.5 129t106.5 117t146 81.5t162 30.5q20 0 78 -2q52 86 104 86q24 0 38.5 -16t14.5 -43q0 -20 -3 -28t-21 -40l-13 -22q105 -52 105 -144q0 -26 -6 -59q-6 -35 -6 -37q0 -33 30 -33q16 0 53.5 15.5t174.5 79.5q-67 -63 -164 -127q-113 -72 -168 -97.5 t-96 -25.5q-27 0 -48.5 19.5t-21.5 43.5q1 21 8 35t49 86q41 64 41 94q0 33 -37 55q-132 -145 -253.5 -233t-192.5 -88q-58 0 -89.5 32.5t-31.5 90.5zM287 266q0 -39 26.5 -64.5t67.5 -25.5q31 0 63.5 15t68 48.5t83.5 92.5q-37 36 -37 69q0 16 8 60q-22 2 -45 2 q-58 0 -113 -28t-88.5 -74t-33.5 -95zM311 662q0 9 27 47q61 88 139 88q29 0 98 -31q76 -33 107 -33q38 0 70 43q12 21 24 21q10 0 10 -11q0 -10 -12 -33.5t-24 -37.5q-28 -37 -65 -58.5t-75 -21.5q-18 0 -26.5 3t-91.5 38q-67 29 -89 29q-42 0 -67 -46q-3 -10 -14 -10 t-11 13z" />
<glyph unicode="&#xe4;" horiz-adv-x="967" d="M47 121q0 63 40.5 129t106.5 117t146 81.5t162 30.5q20 0 78 -2q52 86 104 86q24 0 38.5 -16t14.5 -43q0 -20 -3 -28t-21 -40l-13 -22q105 -52 105 -144q0 -26 -6 -59q-6 -35 -6 -37q0 -33 30 -33q16 0 53.5 15.5t174.5 79.5q-67 -63 -164 -127q-113 -72 -168 -97.5 t-96 -25.5q-27 0 -48.5 19.5t-21.5 43.5q1 21 8 35t49 86q41 64 41 94q0 33 -37 55q-132 -145 -253.5 -233t-192.5 -88q-58 0 -89.5 32.5t-31.5 90.5zM287 266q0 -39 26.5 -64.5t67.5 -25.5q31 0 63.5 15t68 48.5t83.5 92.5q-37 36 -37 69q0 16 8 60q-22 2 -45 2 q-58 0 -113 -28t-88.5 -74t-33.5 -95zM291 727q0 13 5.5 20.5t33.5 32.5q28 22 39 39q7 12 18 12q9 0 16 -16q16 -26 39 -41.5t74 -36.5q-56 -75 -147 -75q-31 0 -54.5 19.5t-23.5 45.5zM608 727q0 12 4.5 19.5t32.5 33.5q38 34 41 39q7 12 16 12q12 0 19 -16 q14 -25 38 -41.5t75 -36.5q-56 -75 -148 -75q-31 0 -54.5 19.5t-23.5 45.5z" />
<glyph unicode="&#xe5;" horiz-adv-x="967" d="M47 121q0 63 40.5 129t106.5 117t146 81.5t162 30.5q20 0 78 -2q52 86 104 86q24 0 38.5 -16t14.5 -43q0 -20 -3 -28t-21 -40l-13 -22q105 -52 105 -144q0 -26 -6 -59q-6 -35 -6 -37q0 -33 30 -33q16 0 53.5 15.5t174.5 79.5q-67 -63 -164 -127q-113 -72 -168 -97.5 t-96 -25.5q-27 0 -48.5 19.5t-21.5 43.5q1 21 8 35t49 86q41 64 41 94q0 33 -37 55q-132 -145 -253.5 -233t-192.5 -88q-58 0 -89.5 32.5t-31.5 90.5zM287 266q0 -39 26.5 -64.5t67.5 -25.5q31 0 63.5 15t68 48.5t83.5 92.5q-37 36 -37 69q0 16 8 60q-22 2 -45 2 q-58 0 -113 -28t-88.5 -74t-33.5 -95zM371 807q0 51 32 102t83.5 84t99.5 33q40 0 53 -33h4q19 2 49 2q49 0 82 -32t33 -78q0 -55 -36.5 -107t-96 -84t-121.5 -32q-81 0 -131.5 40.5t-50.5 104.5zM457 836q0 -49 34 -77t91 -28q70 0 122 36.5t52 84.5q0 32 -26.5 50 t-70.5 18q-98 0 -163 -80h-9q6 49 33 87t70 54q-6 2 -15 2q-16 0 -39.5 -12t-37.5 -29q-41 -47 -41 -106z" />
<glyph unicode="&#xe6;" horiz-adv-x="1372" d="M45 106q0 97 67.5 181t183 134t243.5 50h41q49 82 106 82q47 0 47 -55q0 -40 -37 -95q107 -40 107 -143q0 -24 -12 -80q-3 -8 -3 -18q0 -9 7 -16t14 -7q11 0 20 11t9 28q7 103 75 184q35 40 83 78.5t101 68.5t100.5 47t84.5 17q34 0 55 -19.5t21 -49.5q0 -55 -55.5 -111 t-148.5 -95t-212 -56q22 -36 43.5 -52.5t71.5 -31.5q85 -25 168 -25q53 0 100.5 23t132.5 88l8 -11q-106 -113 -224.5 -188.5t-194.5 -75.5q-148 0 -207 158q-54 -71 -109.5 -110.5t-103.5 -39.5q-37 0 -59.5 17t-22.5 45q0 23 6 36t47 72q51 76 51 115q0 33 -39 47 q-82 -90 -168 -164.5t-155.5 -114.5t-114.5 -40q-65 0 -96 29t-31 87zM289 254q0 -39 24.5 -65.5t61.5 -26.5q49 0 101 36t118 117q-39 39 -39 78q0 20 14 51q-18 2 -41 2q-96 0 -167.5 -57.5t-71.5 -134.5zM940 264q115 17 183.5 57.5t68.5 92.5q0 15 -8.5 28.5t-21.5 22 t-29 8.5q-38 0 -80.5 -32t-73.5 -80t-39 -97z" />
<glyph unicode="&#xe7;" horiz-adv-x="606" d="M-10 -268q0 19 20.5 34t46.5 15q28 0 54 -29q15 -18 22 -21t33 -3q28 0 47.5 14.5t19.5 36.5q0 13 -5.5 20t-27.5 18.5t-91 43.5q-13 3 -13 10t19 23l80 73q18 19 32 19q21 0 21 -17q0 -5 -10 -18l-11 -17q-12 -14 -12 -20q0 -9 23 -14q69 -24 69 -68q0 -30 -34.5 -66 t-85.5 -60.5t-99 -24.5q-42 0 -70 14.5t-28 36.5zM63 164q0 91 70.5 167.5t208.5 135.5q134 57 225 57q35 0 55.5 -15t20.5 -38q0 -47 -61 -47q-40 0 -82 16q-51 21 -82 21q-44 0 -84 -24t-64 -64t-24 -84q0 -68 39 -109t106 -41q60 0 146.5 32t154.5 79l6 -8 q-149 -119 -278 -189.5t-195 -70.5q-65 0 -113.5 55t-48.5 127z" />
<glyph unicode="&#xe8;" horiz-adv-x="586" d="M55 172q0 73 43.5 146.5t118.5 132.5q62 49 145 85.5t132 36.5q32 0 52.5 -19.5t20.5 -49.5q0 -54 -60.5 -112t-146.5 -89q-52 -19 -208 -37q1 -40 24 -62t86 -42q47 -13 95.5 -22t70.5 -9q56 0 110 25.5t132 87.5l6 -11q-88 -87 -165.5 -146t-140.5 -87.5t-114 -28.5 q-54 0 -100 27t-73.5 73.5t-27.5 100.5zM158 297q243 15 243 117q0 63 -59 63q-34 0 -71.5 -24t-68 -66t-44.5 -90zM268 840q0 27 22.5 47t53.5 20q30 0 51 -16t21 -39q0 -8 -2 -16v-15q0 -40 31.5 -79.5t78.5 -59.5q19 -9 19 -16q0 -11 -15 -11q-20 0 -59.5 12.5 t-73.5 30.5q-58 31 -92.5 70.5t-34.5 71.5z" />
<glyph unicode="&#xe9;" horiz-adv-x="586" d="M55 172q0 73 43.5 146.5t118.5 132.5q62 49 145 85.5t132 36.5q32 0 52.5 -19.5t20.5 -49.5q0 -54 -60.5 -112t-146.5 -89q-52 -19 -208 -37q1 -40 24 -62t86 -42q47 -13 95.5 -22t70.5 -9q56 0 110 25.5t132 87.5l6 -11q-88 -87 -165.5 -146t-140.5 -87.5t-114 -28.5 q-54 0 -100 27t-73.5 73.5t-27.5 100.5zM158 297q243 15 243 117q0 63 -59 63q-34 0 -71.5 -24t-68 -66t-44.5 -90zM289 666q0 7 18 16q46 18 79.5 58.5t33.5 78.5q0 10 -2 17q-2 8 -2 16q0 22 20.5 38.5t52.5 16.5q30 0 52 -19.5t22 -45.5q0 -41 -43.5 -84.5t-111.5 -73.5 q-67 -29 -105 -29q-14 0 -14 11z" />
<glyph unicode="&#xea;" horiz-adv-x="586" d="M55 172q0 73 43.5 146.5t118.5 132.5q62 49 145 85.5t132 36.5q32 0 52.5 -19.5t20.5 -49.5q0 -54 -60.5 -112t-146.5 -89q-52 -19 -208 -37q1 -40 24 -62t86 -42q47 -13 95.5 -22t70.5 -9q56 0 110 25.5t132 87.5l6 -11q-88 -87 -165.5 -146t-140.5 -87.5t-114 -28.5 q-54 0 -100 27t-73.5 73.5t-27.5 100.5zM154 639q0 8 14 16l14 11q12 9 22.5 16.5t26.5 19.5q113 78 166 132q25 20 33 20q4 0 55 -55q8 -9 21 -23q24 -27 45 -43q24 -21 24 -33q0 -8 -16 -24l-12 -14q-30 -35 -43 -35q-10 0 -47 39q-27 27 -44.5 39t-33.5 14 q-19 0 -34.5 -6t-123.5 -56q-49 -24 -57 -24q-10 0 -10 6zM158 297q243 15 243 117q0 63 -59 63q-34 0 -71.5 -24t-68 -66t-44.5 -90z" />
<glyph unicode="&#xeb;" horiz-adv-x="586" d="M55 172q0 73 43.5 146.5t118.5 132.5q62 49 145 85.5t132 36.5q32 0 52.5 -19.5t20.5 -49.5q0 -54 -60.5 -112t-146.5 -89q-52 -19 -208 -37q1 -40 24 -62t86 -42q47 -13 95.5 -22t70.5 -9q56 0 110 25.5t132 87.5l6 -11q-88 -87 -165.5 -146t-140.5 -87.5t-114 -28.5 q-54 0 -100 27t-73.5 73.5t-27.5 100.5zM137 727q0 13 5.5 20.5t33.5 32.5q28 22 39 39q7 12 18 12q10 0 17 -16q14 -25 37.5 -41t74.5 -37q-54 -75 -147 -75q-31 0 -54.5 19.5t-23.5 45.5zM158 297q243 15 243 117q0 63 -59 63q-34 0 -71.5 -24t-68 -66t-44.5 -90zM455 727 q0 12 4.5 19.5t32.5 33.5q34 32 40 39q8 12 17 12q11 0 18 -16q26 -45 113 -78q-56 -75 -148 -75q-31 0 -54 19.5t-23 45.5z" />
<glyph unicode="&#xec;" horiz-adv-x="500" d="M66 154q0 50 25 112t71 117q35 42 71.5 86t53.5 60t26.5 19t26.5 3q23 0 39 -13.5t16 -33.5q0 -47 -116 -137q-47 -37 -64.5 -60.5t-17.5 -48.5q0 -43 51.5 -73.5t124.5 -30.5q65 0 117.5 19t113.5 65l4 -7q-118 -97 -188 -148t-116 -72t-83 -21q-65 0 -110 48t-45 116z M227 817q0 28 23 48t53 20t51 -16t21 -40q0 -8 -2 -16v-14q0 -41 31.5 -80.5t78.5 -59.5q19 -9 19 -16q0 -10 -15 -10q-20 0 -59.5 12.5t-73.5 30.5q-57 31 -92 70t-35 71z" />
<glyph unicode="&#xed;" horiz-adv-x="500" d="M66 154q0 50 25 112t71 117q35 42 71.5 86t53.5 60t26.5 19t26.5 3q23 0 39 -13.5t16 -33.5q0 -47 -116 -137q-47 -37 -64.5 -60.5t-17.5 -48.5q0 -43 51.5 -73.5t124.5 -30.5q65 0 117.5 19t113.5 65l4 -7q-118 -97 -188 -148t-116 -72t-83 -21q-65 0 -110 48t-45 116z M299 684q0 7 18 16q46 18 79.5 58.5t33.5 79.5q0 10 -2 16q-2 8 -2 16q0 24 21 40t53 16q29 0 51 -19.5t22 -46.5q0 -40 -43 -83.5t-112 -74.5q-65 -28 -105 -28q-14 0 -14 10z" />
<glyph unicode="&#xee;" horiz-adv-x="500" d="M66 154q0 50 25 112t71 117q35 42 71.5 86t53.5 60t26.5 19t26.5 3q23 0 39 -13.5t16 -33.5q0 -47 -116 -137q-47 -37 -64.5 -60.5t-17.5 -48.5q0 -43 51.5 -73.5t124.5 -30.5q65 0 117.5 19t113.5 65l4 -7q-118 -97 -188 -148t-116 -72t-83 -21q-65 0 -110 48t-45 116z M123 666q0 8 14 16l15 10q11 10 49 37q110 75 166 131q24 21 32 21q3 0 56 -56q14 -16 20 -22q20 -24 45 -43q25 -22 25 -33q0 -8 -17 -25l-12 -14q-30 -35 -43 -35q-10 0 -47 39q-53 51 -78 53q-18 0 -41.5 -9t-116.5 -52q-50 -25 -57 -25q-10 0 -10 7z" />
<glyph unicode="&#xef;" horiz-adv-x="500" d="M66 154q0 50 25 112t71 117q35 42 71.5 86t53.5 60t26.5 19t26.5 3q23 0 39 -13.5t16 -33.5q0 -47 -116 -137q-47 -37 -64.5 -60.5t-17.5 -48.5q0 -43 51.5 -73.5t124.5 -30.5q65 0 117.5 19t113.5 65l4 -7q-118 -97 -188 -148t-116 -72t-83 -21q-65 0 -110 48t-45 116z M137 713q0 13 5.5 20.5t33.5 32.5q28 22 39 39q7 12 18 12q10 0 17 -16q14 -25 37.5 -41t74.5 -37q-25 -34 -64.5 -55t-82.5 -21q-32 0 -55 20t-23 46zM455 713q0 12 4.5 19.5t32.5 33.5q29 24 40 39q8 12 17 12q11 0 18 -16q26 -45 113 -78q-25 -34 -65.5 -55t-82.5 -21 q-32 0 -54.5 20t-22.5 46z" />
<glyph unicode="&#xf0;" horiz-adv-x="776" d="M68 160q0 68 42 136t118 123t180 93q36 12 51 20q10 5 16 5q12 0 12 -9q0 -6 -14 -10q-96 -29 -158.5 -87t-62.5 -122q0 -42 26 -80t70 -60t94 -22q83 0 137 75.5t54 189.5q0 100 -45 207.5t-125 199.5q-81 -72 -121 -127q-27 -39 -47 -39q-11 0 -20 9t-9 20 q0 18 13 35.5t45 44.5q69 59 100 94q-118 101 -219 129q-15 6 -15 14q0 11 43 58q40 39 72 39q33 0 78.5 -40.5t116.5 -131.5q4 4 19 16.5t32 28.5q55 49 80.5 67.5t38.5 18.5q20 0 20 -31q0 -24 -3 -34t-11.5 -17t-32.5 -19q-65 -30 -115 -73q103 -143 142 -240t39 -211 q0 -123 -57.5 -226t-157 -162.5t-215.5 -59.5q-94 0 -152.5 49.5t-58.5 128.5z" />
<glyph unicode="&#xf1;" horiz-adv-x="934" d="M55 78q0 99 28.5 173.5t94.5 143.5q52 55 105.5 90t85.5 35q13 0 19.5 -6t6.5 -16q0 -20 -30 -74q-34 -59 -58 -122t-24 -89q0 -27 18 -27q12 0 26 10t50 44q83 83 192 176q62 53 111 53q51 0 68 -68q2 -8 4 -32q2 -20 16 -125q4 -48 18.5 -68t42.5 -20q27 0 54.5 10 t101.5 47q3 2 35 18q-118 -111 -212.5 -177t-133.5 -66q-50 0 -66 47q-9 27 -18 123q-12 106 -25 139q-14 31 -45 31q-23 0 -47 -19t-119 -112q-71 -72 -204 -193q-33 -29 -48 -29q-47 0 -47 103zM311 629q0 9 27 47q61 88 139 88q32 0 98 -31q79 -33 107 -33q38 0 70 43 q12 21 24 21q10 0 10 -10q0 -12 -10.5 -32t-25.5 -40q-28 -37 -65 -58.5t-75 -21.5q-18 0 -26.5 3t-91.5 38q-67 29 -89 29q-42 0 -67 -45q-4 -11 -14 -11q-11 0 -11 13z" />
<glyph unicode="&#xf2;" horiz-adv-x="776" d="M61 164q0 87 69.5 171.5t188.5 143.5q44 22 93.5 41t62.5 19q6 0 6 -4q0 -9 -16 -15q-44 -12 -121 -61q-96 -59 -96 -148q0 -66 60.5 -112.5t142.5 -46.5q87 0 147 50t72 130q-31 -4 -82 -4q-107 0 -107 49q0 3 33 123q11 37 39 37q21 0 55 -37q84 -90 191 -90q3 0 53 4 q-18 -24 -63 -45.5t-97 -30.5q-10 -92 -72 -174.5t-155.5 -131t-192.5 -48.5q-92 0 -151.5 51t-59.5 129zM319 825q0 28 23 48t53 20t51 -16t21 -39q0 -9 -2 -17v-14q0 -40 32.5 -80.5t77.5 -58.5q19 -9 19 -17q0 -10 -14 -10q-21 0 -60.5 12.5t-73.5 30.5q-57 31 -92 70 t-35 71z" />
<glyph unicode="&#xf3;" horiz-adv-x="776" d="M61 164q0 87 69.5 171.5t188.5 143.5q44 22 93.5 41t62.5 19q6 0 6 -4q0 -9 -16 -15q-44 -12 -121 -61q-96 -59 -96 -148q0 -66 60.5 -112.5t142.5 -46.5q87 0 147 50t72 130q-31 -4 -82 -4q-107 0 -107 49q0 3 33 123q11 37 39 37q21 0 55 -37q84 -90 191 -90q3 0 53 4 q-18 -24 -63 -45.5t-97 -30.5q-10 -92 -72 -174.5t-155.5 -131t-192.5 -48.5q-92 0 -151.5 51t-59.5 129zM330 641q0 7 18 16q46 18 79.5 58.5t33.5 79.5q0 10 -2 16q-2 8 -2 16q0 23 20.5 39.5t52.5 16.5q29 0 51.5 -20t22.5 -46q0 -40 -43 -83.5t-112 -74.5 q-65 -28 -105 -28q-14 0 -14 10z" />
<glyph unicode="&#xf4;" horiz-adv-x="776" d="M61 164q0 87 69.5 171.5t188.5 143.5q44 22 93.5 41t62.5 19q6 0 6 -4q0 -9 -16 -15q-44 -12 -121 -61q-96 -59 -96 -148q0 -66 60.5 -112.5t142.5 -46.5q87 0 147 50t72 130q-31 -4 -82 -4q-107 0 -107 49q0 3 33 123q11 37 39 37q21 0 55 -37q84 -90 191 -90q3 0 53 4 q-18 -24 -63 -45.5t-97 -30.5q-10 -92 -72 -174.5t-155.5 -131t-192.5 -48.5q-92 0 -151.5 51t-59.5 129zM336 623q0 8 14 16l15 10q11 10 49 37q110 75 166 131q24 21 32 21q3 0 56 -56q14 -16 20 -22q20 -24 45 -43q25 -22 25 -33q0 -8 -17 -25l-12 -14q-29 -35 -43 -35 q-10 0 -47 39q-53 51 -78 53q-18 0 -41.5 -9t-116.5 -52q-51 -25 -57 -25q-10 0 -10 7z" />
<glyph unicode="&#xf5;" horiz-adv-x="776" d="M61 164q0 87 69.5 171.5t188.5 143.5q44 22 93.5 41t62.5 19q6 0 6 -4q0 -9 -16 -15q-44 -12 -121 -61q-96 -59 -96 -148q0 -66 60.5 -112.5t142.5 -46.5q87 0 147 50t72 130q-31 -4 -82 -4q-107 0 -107 49q0 3 33 123q11 37 39 37q21 0 55 -37q84 -90 191 -90q3 0 53 4 q-18 -24 -63 -45.5t-97 -30.5q-10 -92 -72 -174.5t-155.5 -131t-192.5 -48.5q-92 0 -151.5 51t-59.5 129zM219 668q0 9 27 47q61 88 139 88q32 0 98 -31q76 -33 107 -33q38 0 69 43q14 21 25 21q10 0 10 -10q0 -11 -12.5 -35t-24.5 -37q-28 -37 -64 -58.5t-75 -21.5 q-24 0 -119 41q-67 29 -88 29q-42 0 -67 -45q-3 -11 -15 -11q-10 0 -10 13z" />
<glyph unicode="&#xf6;" horiz-adv-x="776" d="M61 164q0 87 69.5 171.5t188.5 143.5q44 22 93.5 41t62.5 19q6 0 6 -4q0 -9 -16 -15q-44 -12 -121 -61q-96 -59 -96 -148q0 -66 60.5 -112.5t142.5 -46.5q87 0 147 50t72 130q-31 -4 -82 -4q-107 0 -107 49q0 3 33 123q11 37 39 37q21 0 55 -37q84 -90 191 -90q3 0 53 4 q-18 -24 -63 -45.5t-97 -30.5q-10 -92 -72 -174.5t-155.5 -131t-192.5 -48.5q-92 0 -151.5 51t-59.5 129zM268 690q0 14 4.5 20.5t34.5 32.5q32 29 39 39q7 13 19 13q9 0 16 -17q14 -25 38 -41.5t75 -36.5q-56 -75 -148 -75q-31 0 -54.5 19.5t-23.5 45.5zM586 690 q0 13 3.5 19t33.5 34q35 32 41 39q7 13 16 13q11 0 18 -17q26 -45 113 -78q-56 -75 -147 -75q-31 0 -54.5 19.5t-23.5 45.5z" />
<glyph unicode="&#xf7;" d="M117 442q0 13 14 41l12 29q8 19 29 23q14 0 25 -3q16 -3 87.5 -9t123 -10t134 -8.5t93.5 -4.5q107 0 143 12q6 2 17 2q14 0 14 -6q0 -8 -24.5 -34.5t-41.5 -39.5q-30 -21 -66.5 -29t-115.5 -8q-64 0 -192.5 8t-165.5 13q-60 7 -73 10.5t-13 13.5zM303 213q0 16 47 57 q7 8 31 27l7.5 7.5l6.5 6.5q9 13 21 13q11 0 33 -33q14 -21 22.5 -32.5t18 -20t18.5 -15.5q10 -7 10 -16q0 -14 -52.5 -46t-74.5 -32q-21 0 -54.5 31.5t-33.5 52.5zM385 698q0 16 47 58l31 26l14 15q10 12 21 12t32 -33q14 -21 23.5 -33.5t18 -19t18.5 -14.5q10 -7 10 -17 q0 -13 -52.5 -45.5t-74.5 -32.5t-55 31t-33 53z" />
<glyph unicode="&#xf8;" horiz-adv-x="780" d="M61 -61q0 6 13 18l61 68q-46 45 -60 72t-14 75q0 53 31.5 113t81.5 104q103 92 283 150l28 10l2 -12q-126 -51 -181.5 -103t-55.5 -121q0 -39 16 -67t51 -51l177 163q-13 13 -13 29q0 23 19 72q3 11 12 41q14 43 45 43q19 0 68 -51l65 61q61 55 133 55q15 0 15 -12 q0 -4 -13 -16l-147 -129q45 -35 115 -35q1 0 63 4q-25 -26 -70 -48.5t-94 -29.5q-9 -71 -45.5 -134t-95 -114t-130 -79.5t-140.5 -28.5q-55 0 -113 18l-70 -59q-18 -17 -26 -17q-11 0 -11 11zM358 174q39 -20 88 -20q90 0 151.5 49.5t72.5 132.5q-27 -6 -66 -6q-45 0 -69 4z " />
<glyph unicode="&#xf9;" horiz-adv-x="915" d="M41 139q0 94 82 213q128 187 201 187q24 0 38.5 -13.5t14.5 -38.5q0 -51 -90 -116q-76 -57 -91.5 -74t-15.5 -41q0 -22 14 -37t52 -33q71 -28 116 -28q49 0 87.5 20.5t87 73t122.5 154.5q66 88 111 88q25 0 41 -14t16 -36q0 -25 -23.5 -54t-92.5 -87q-47 -41 -47 -70 q0 -26 38.5 -50.5t77.5 -24.5q86 0 197 88l8 -6q-110 -107 -218 -179.5t-159 -72.5q-46 0 -81 49.5t-35 118.5v30q-204 -200 -310 -200q-39 0 -71.5 20.5t-51 55.5t-18.5 77zM436 795q0 27 23 47t53 20t51 -16t21 -39q0 -8 -2 -16v-15q0 -40 31.5 -79.5t78.5 -59.5 q19 -9 19 -16q0 -11 -15 -11q-20 0 -59.5 12.5t-73.5 30.5q-58 31 -92.5 70.5t-34.5 71.5z" />
<glyph unicode="&#xfa;" horiz-adv-x="915" d="M41 139q0 94 82 213q128 187 201 187q24 0 38.5 -13.5t14.5 -38.5q0 -51 -90 -116q-76 -57 -91.5 -74t-15.5 -41q0 -22 14 -37t52 -33q71 -28 116 -28q49 0 87.5 20.5t87 73t122.5 154.5q66 88 111 88q25 0 41 -14t16 -36q0 -25 -23.5 -54t-92.5 -87q-47 -41 -47 -70 q0 -26 38.5 -50.5t77.5 -24.5q86 0 197 88l8 -6q-110 -107 -218 -179.5t-159 -72.5q-46 0 -81 49.5t-35 118.5v30q-204 -200 -310 -200q-39 0 -71.5 20.5t-51 55.5t-18.5 77zM528 600q0 6 19 16q47 18 79.5 58.5t32.5 79.5q0 10 -2 16q-2 8 -2 16q0 24 21 40t53 16 q29 0 51.5 -20t22.5 -46q0 -40 -44 -84t-112 -74q-65 -28 -104 -28q-15 0 -15 10z" />
<glyph unicode="&#xfb;" horiz-adv-x="915" d="M41 139q0 94 82 213q128 187 201 187q24 0 38.5 -13.5t14.5 -38.5q0 -51 -90 -116q-76 -57 -91.5 -74t-15.5 -41q0 -22 14 -37t52 -33q71 -28 116 -28q49 0 87.5 20.5t87 73t122.5 154.5q66 88 111 88q25 0 41 -14t16 -36q0 -25 -23.5 -54t-92.5 -87q-47 -41 -47 -70 q0 -26 38.5 -50.5t77.5 -24.5q86 0 197 88l8 -6q-110 -107 -218 -179.5t-159 -72.5q-46 0 -81 49.5t-35 118.5v30q-204 -200 -310 -200q-39 0 -71.5 20.5t-51 55.5t-18.5 77zM377 612q0 9 14 17l15 10q16 14 49 37q110 75 166 131q23 20 32 20q4 0 56 -55q14 -16 20 -22 q20 -24 45 -43q25 -22 25 -33q0 -8 -17 -25l-12 -14q-29 -35 -43 -35q-10 0 -47 39q-53 51 -78 53q-18 0 -41.5 -9t-116.5 -52q-49 -25 -57 -25q-10 0 -10 6z" />
<glyph unicode="&#xfc;" horiz-adv-x="915" d="M41 139q0 94 82 213q128 187 201 187q24 0 38.5 -13.5t14.5 -38.5q0 -51 -90 -116q-76 -57 -91.5 -74t-15.5 -41q0 -22 14 -37t52 -33q71 -28 116 -28q49 0 87.5 20.5t87 73t122.5 154.5q66 88 111 88q25 0 41 -14t16 -36q0 -25 -23.5 -54t-92.5 -87q-47 -41 -47 -70 q0 -26 38.5 -50.5t77.5 -24.5q86 0 197 88l8 -6q-110 -107 -218 -179.5t-159 -72.5q-46 0 -81 49.5t-35 118.5v30q-204 -200 -310 -200q-39 0 -71.5 20.5t-51 55.5t-18.5 77zM371 690q0 14 4.5 20.5t34.5 32.5q26 23 39 39q7 13 18 13q9 0 16 -17q26 -45 113 -78 q-56 -75 -147 -75q-31 0 -54.5 19.5t-23.5 45.5zM688 690q0 13 3.5 19t33.5 34q38 34 41 39q7 13 16 13q12 0 19 -17q14 -25 37.5 -41t74.5 -37q-54 -75 -147 -75q-31 0 -54.5 19.5t-23.5 45.5z" />
<glyph unicode="&#xfd;" horiz-adv-x="856" d="M53 -494q0 62 45.5 128t149 152t276.5 204l41 30q23 78 23 117q0 47 -15.5 74t-44.5 27q-30 0 -75 -45q-23 -21 -94.5 -80t-94.5 -74q-61 -41 -104 -41q-44 0 -73.5 36t-29.5 91q0 137 140 291q101 104 139 104q20 0 33.5 -13.5t13.5 -33.5q0 -16 -10.5 -29t-44.5 -43 q-65 -56 -86 -82.5t-21 -52.5q0 -22 20 -45t48 -38t55 -15q49 0 140.5 74.5t222.5 222.5q40 47 65 47q49 0 49 -57q0 -55 -31 -125t-112 -199q-26 -41 -41 -72q124 81 250 152l33 18l16 11l6 -7l-156 -131l-67 -53l-103 -82q-35 -29 -73 -55q-48 -89 -108.5 -175.5 t-125.5 -162.5q-121 -133 -194 -133q-62 0 -62 65zM504 612q0 8 18 17q45 16 79 57.5t34 79.5q0 10 -2 16q-2 9 -2 17q0 23 21 39t53 16q28 0 50.5 -20t22.5 -46q0 -40 -43.5 -83.5t-111.5 -73.5q-63 -29 -105 -29q-14 0 -14 10z" />
<glyph unicode="&#xfe;" horiz-adv-x="932" d="M-33 -471q0 37 18.5 83.5t61.5 116.5t129 195q78 119 98 158q77 268 103 378t26 169q0 97 -35 179.5t-77 82.5q-19 0 -70 -25q-20 -12 -31 -16l-24 -12q46 45 115.5 104t124 97t67.5 38q23 0 37 -23t14 -61q0 -47 -9 -108t-32 -166t-64 -261t-93 -345q84 128 111.5 165 t74.5 91q148 157 272 157q56 0 89.5 -34.5t33.5 -92.5q0 -76 -59 -166t-160 -170q-60 -46 -116.5 -70t-98.5 -24q-59 0 -59 45q0 34 24 63t51 29q20 0 56 -14q44 -16 67 -16q55 0 93 51t38 123q0 53 -28 85t-76 32q-61 0 -117.5 -50t-113.5 -153q-48 -83 -75 -152.5 t-79 -240.5q-41 -142 -102.5 -233t-118.5 -91q-28 0 -47 24t-19 58z" />
<glyph unicode="&#xff;" horiz-adv-x="856" d="M53 -494q0 62 45.5 128t149 152t276.5 204l41 30q23 78 23 117q0 47 -15.5 74t-44.5 27q-30 0 -75 -45q-23 -21 -94.5 -80t-94.5 -74q-61 -41 -104 -41q-44 0 -73.5 36t-29.5 91q0 137 140 291q101 104 139 104q20 0 33.5 -13.5t13.5 -33.5q0 -16 -10.5 -29t-44.5 -43 q-65 -56 -86 -82.5t-21 -52.5q0 -22 20 -45t48 -38t55 -15q49 0 140.5 74.5t222.5 222.5q40 47 65 47q49 0 49 -57q0 -55 -31 -125t-112 -199q-26 -41 -41 -72q124 81 250 152l33 18l16 11l6 -7l-156 -131l-67 -53l-103 -82q-35 -29 -73 -55q-48 -89 -108.5 -175.5 t-125.5 -162.5q-121 -133 -194 -133q-62 0 -62 65zM346 676q0 13 5.5 20.5t33.5 32.5q28 22 39 39q7 12 18 12q10 0 17 -16q14 -25 37.5 -41t74.5 -37q-25 -34 -64.5 -55t-82.5 -21q-32 0 -55 20t-23 46zM664 676q0 12 5.5 21t30.5 32q28 21 41 39q8 12 17 12q11 0 18 -16 q26 -45 113 -78q-25 -34 -65.5 -55t-82.5 -21q-32 0 -54.5 20t-22.5 46z" />
<glyph unicode="&#x152;" horiz-adv-x="2644" d="M137 524q0 105 39.5 217.5t115.5 220t173 187.5q226 192 414 192q77 0 122 -35t68 -112q61 12 98.5 16t83.5 4q219 0 340 -112q39 -36 61 -78t38 -106q111 150 214.5 243t213.5 141.5t237 59.5l2 -25q-83 -14 -163.5 -54.5t-155.5 -107t-136 -151.5t-106 -184 q131 -32 295 -45t406 -13q-73 -67 -187.5 -98t-290.5 -31q-82 0 -140.5 6.5t-152.5 24.5q-22 -62 -22 -117q0 -224 254 -350q167 -82 321 -82q104 0 190.5 50.5t113.5 127.5q10 23 12 76q3 27 16 27q21 0 21 -41q0 -101 -85 -199t-219.5 -159.5t-273.5 -61.5 q-93 0 -181 28.5t-155.5 81t-111.5 125.5q-19 32 -31 63.5t-19 73t-8 85.5q-160 -200 -357 -303t-423 -103q-152 0 -281.5 45t-214.5 127q-63 63 -99 156t-36 190zM360 633q0 -109 36.5 -197t107.5 -149t173 -92t230 -31q298 0 498 170q100 87 150.5 177.5t50.5 184.5 q0 109 -46.5 179.5t-142.5 107.5q-115 45 -250 45q-86 0 -172.5 -19t-164.5 -51.5t-154.5 -83t-126.5 -104.5q-54 -55 -84.5 -118t-56.5 -169l-17 6q13 122 63.5 231.5t135 201.5t198.5 160.5t242 103.5q-17 64 -51 89t-100 25q-98 0 -191 -54.5t-168 -149.5t-117.5 -216.5 t-42.5 -246.5zM2339 1112q0 51 11.5 100.5t30 85t38.5 45.5q7 5 98 5q25 2 45 2h10q15 -23 41 -62l-8 -22q-37 -107 -37 -144q0 -17 5.5 -27t22 -19t48.5 -21q-84 -29 -211 -29q-94 0 -94 86z" />
<glyph unicode="&#x153;" horiz-adv-x="1229" d="M61 152q0 77 52.5 151.5t148 133.5t223.5 95l7 -12q-94 -43 -117 -55q-56 -28 -89.5 -74.5t-33.5 -91.5q0 -64 60 -111t143 -47q80 0 139 44t74 114q-107 15 -146 29.5t-39 40.5q0 18 35 118q14 39 37 39q30 0 49 -32q40 -62 73.5 -96t80.5 -60q43 51 74 79t73 56 q61 40 126 66t104 26q30 0 53.5 -22.5t23.5 -50.5q0 -37 -31 -81t-81 -77q-95 -58 -221 -58q-9 0 -31.5 2t-46.5 3q-4 -22 -4 -27q0 -53 82.5 -91t199.5 -38q89 0 236 113l10 -11q-106 -106 -264 -213q-79 -55 -150 -55q-88 0 -151.5 58.5t-63.5 140.5q0 48 33 133l-39 6 q-42 -144 -154 -234t-253 -90q-98 0 -160 50t-62 129zM811 311q30 -12 74 -12q47 0 85 13.5t58.5 37.5t20.5 56q0 26 -17 44.5t-43 18.5q-46 0 -92 -41t-86 -117z" />
<glyph unicode="&#x178;" horiz-adv-x="1495" d="M0 -74q0 60 45 118.5t131.5 108.5t202.5 85q151 47 324 72.5t333 25.5q58 0 107 -2q48 103 89 211t60 187t19 128q0 51 -41 51q-23 0 -47 -22q-105 -84 -238 -176q-149 -100 -262.5 -144.5t-210.5 -44.5q-77 0 -139 33t-96.5 91.5t-34.5 135.5q0 92 53.5 212.5 t148.5 240.5q47 58 81.5 85.5t64.5 27.5q22 0 38.5 -15.5t16.5 -38.5q0 -26 -17.5 -54.5t-45.5 -48t-54 -22.5q-28 -3 -38 -7.5t-29 -20.5q-45 -40 -65.5 -82t-20.5 -96q0 -76 43 -140t120 -99.5t171 -35.5q70 0 140.5 21t148.5 67.5t171 125.5t191 177q67 68 106.5 104.5 t57.5 45t43 8.5q55 0 55 -65q0 -62 -59 -232q-103 -281 -324 -612q118 -7 151 -12t33 -21q0 -18 -20 -18q-7 0 -31 4q-123 9 -153 12q-107 -171 -330 -344q-136 -103 -288.5 -160t-291.5 -57q-87 0 -158 25t-111 68.5t-40 98.5zM133 -14q0 -72 71 -115t191 -43 q60 0 122 10.5t123 32t119 53t107 68.5q75 56 130.5 121.5t131.5 185.5h-51q-324 0 -614 -84q-175 -47 -252.5 -101.5t-77.5 -127.5zM780 1466q0 14 5.5 21.5t33.5 32.5q31 25 39 39q7 12 19 12q9 0 16 -17q25 -45 113 -77q-24 -33 -64.5 -54.5t-83.5 -21.5q-32 0 -55 20 t-23 45zM1098 1466q0 13 4.5 20.5t32.5 33.5q30 25 41 39q7 12 16 12q11 0 18 -17q16 -25 41 -42.5t72 -34.5q-25 -34 -64.5 -55t-82.5 -21q-32 0 -55 20t-23 45z" />
<glyph unicode="&#x2c6;" horiz-adv-x="1024" d="M457 672q0 8 14 16l14 10q11 9 50 37q107 73 165 131q24 21 33 21q4 0 55 -56q15 -16 21 -22q24 -27 45 -43q25 -22 25 -33q0 -7 -17 -24l-12 -15q-31 -35 -43 -35q-6 0 -11 4t-36 35q-54 52 -78 54q-19 0 -34.5 -6t-123.5 -56q-49 -24 -57 -24q-10 0 -10 6z" />
<glyph unicode="&#x2dc;" horiz-adv-x="1024" d="M446 721q0 6 27 47q61 88 139 88q33 0 99 -31q75 -32 106 -32q39 0 70 43q12 20 24 20q11 0 11 -10q0 -8 -12.5 -32t-24.5 -40q-28 -37 -65 -58.5t-75 -21.5q-18 0 -26.5 3t-91.5 38q-63 29 -88 29q-43 0 -68 -45q-3 -10 -14 -10t-11 12z" />
<glyph unicode="&#x2000;" />
<glyph unicode="&#x2001;" horiz-adv-x="1749" />
<glyph unicode="&#x2002;" />
<glyph unicode="&#x2003;" horiz-adv-x="1749" />
<glyph unicode="&#x2004;" horiz-adv-x="583" />
<glyph unicode="&#x2005;" horiz-adv-x="437" />
<glyph unicode="&#x2006;" horiz-adv-x="291" />
<glyph unicode="&#x2007;" horiz-adv-x="291" />
<glyph unicode="&#x2008;" horiz-adv-x="218" />
<glyph unicode="&#x2009;" horiz-adv-x="349" />
<glyph unicode="&#x200a;" horiz-adv-x="97" />
<glyph unicode="&#x2010;" horiz-adv-x="379" d="M14 268q0 4 2 11q8 11 15 36q14 51 21.5 61.5t31.5 10.5q7 0 49 -14q16 -5 88 -12t105 -7q7 0 49 4h4q16 0 16 -10l-4 -8q-4 -6 -8.5 -12.5t-7.5 -10.5q-36 -57 -70 -74.5t-104 -17.5q-85 0 -136 11.5t-51 31.5z" />
<glyph unicode="&#x2011;" horiz-adv-x="379" d="M14 268q0 4 2 11q8 11 15 36q14 51 21.5 61.5t31.5 10.5q7 0 49 -14q16 -5 88 -12t105 -7q7 0 49 4h4q16 0 16 -10l-4 -8q-4 -6 -8.5 -12.5t-7.5 -10.5q-36 -57 -70 -74.5t-104 -17.5q-85 0 -136 11.5t-51 31.5z" />
<glyph unicode="&#x2012;" horiz-adv-x="379" d="M14 268q0 4 2 11q8 11 15 36q14 51 21.5 61.5t31.5 10.5q7 0 49 -14q16 -5 88 -12t105 -7q7 0 49 4h4q16 0 16 -10l-4 -8q-4 -6 -8.5 -12.5t-7.5 -10.5q-36 -57 -70 -74.5t-104 -17.5q-85 0 -136 11.5t-51 31.5z" />
<glyph unicode="&#x2013;" d="M117 270q0 16 14 54l12 32q5 26 29 29q14 0 25 -4q24 -5 204.5 -21t233.5 -16q99 0 143 12q12 4 17 4q14 0 14 -8l-4 -8l-12 -22q-11 -20 -36 -46t-46 -38q-42 -23 -150 -23q-69 0 -165.5 6.5t-192.5 18.5q-51 7 -68.5 12.5t-17.5 17.5z" />
<glyph unicode="&#x2014;" horiz-adv-x="1139" d="M14 272q0 7 8.5 34t14.5 40q11 25 18 32t23 7q4 0 20 -4q30 -8 166.5 -18t314.5 -17.5t298 -7.5q156 0 245 18q8 2 19 2q12 0 12 -8q0 -1 -19 -29.5t-28 -39.5q-29 -35 -61 -50.5t-91 -21.5t-184 -6q-113 0 -346 11t-318 19q-92 13 -92 39z" />
<glyph unicode="&#x2018;" horiz-adv-x="461" d="M279 831q0 22 30 73.5t70 99.5q34 38 70 71t45 33q6 0 6 -6q0 -2 -4 -10q-44 -67 -65.5 -125t-22.5 -115q-3 -24 -23 -29q-50 -12 -78 -12t-28 20z" />
<glyph unicode="&#x2019;" horiz-adv-x="461" d="M281 817q0 2 4 10q46 71 66.5 127t21.5 113q1 12 6 19t16 10q54 12 78 12q12 0 20.5 -5t8.5 -16q0 -21 -32 -75.5t-69 -96.5q-32 -37 -69 -70.5t-45 -33.5q-6 0 -6 6z" />
<glyph unicode="&#x201a;" horiz-adv-x="461" d="M53 -125q0 2 4 10q48 74 67 127t21 113q3 24 23 29q54 12 78 12q28 0 28 -21t-30.5 -74t-69.5 -98q-32 -37 -69 -70.5t-46 -33.5q-6 0 -6 6z" />
<glyph unicode="&#x201c;" horiz-adv-x="700" d="M279 831q0 6 13.5 41t20.5 46q29 48 98.5 120t82.5 72q6 0 6 -6q0 -2 -4 -10q-45 -70 -66 -127.5t-22 -114.5q-3 -24 -23 -29q-50 -12 -78 -12t-28 20zM518 831q0 22 30 73.5t70 99.5q36 41 71.5 72.5t43.5 31.5q6 0 6 -6q0 -2 -4 -10q-46 -73 -66.5 -128t-21.5 -112 q-2 -15 -6.5 -20.5t-15.5 -8.5q-50 -12 -78 -12q-29 0 -29 20z" />
<glyph unicode="&#x201d;" horiz-adv-x="700" d="M281 817q0 2 4 10q46 71 66.5 127t21.5 113q1 12 6 19t16 10q54 12 78 12q12 0 20.5 -5t8.5 -16q0 -21 -32 -75.5t-69 -96.5q-32 -37 -69 -70.5t-45 -33.5q-6 0 -6 6zM518 817q0 2 4 10q48 76 67 128.5t21 113.5q3 24 23 29q48 12 78 12q28 0 28 -20q0 -23 -30 -76 t-70 -99q-36 -39 -71 -71.5t-44 -32.5q-6 0 -6 6z" />
<glyph unicode="&#x201e;" horiz-adv-x="700" d="M53 -125q0 2 4 10q48 74 67 127t21 113q3 24 23 29q54 12 78 12q28 0 28 -21t-30.5 -74t-69.5 -98q-32 -37 -69 -70.5t-46 -33.5q-6 0 -6 6zM291 -125q0 2 4 10q46 73 66.5 128.5t21.5 113.5q3 24 23 29q48 12 77 12t29 -21q0 -22 -30 -75t-70 -99q-25 -27 -66 -65.5 t-49 -38.5q-6 0 -6 6z" />
<glyph unicode="&#x2022;" horiz-adv-x="1366" d="M508 692q0 78 38 143.5t104.5 103.5t146.5 38q75 0 138.5 -38.5t101.5 -103.5t38 -141t-37.5 -141.5t-103 -104t-141.5 -38.5t-141.5 37.5t-104.5 103t-39 141.5z" />
<glyph unicode="&#x2026;" horiz-adv-x="1413" d="M158 213q0 16 47 57q12 11 25.5 23t19.5 18q9 13 20 13q9 0 13.5 -4.5t19.5 -28.5q14 -21 23.5 -33.5t15.5 -18t20 -16.5q11 -6 11 -16q0 -14 -52.5 -46t-74.5 -32q-21 0 -54.5 31.5t-33.5 52.5zM629 213q0 16 47 57q12 13 31 27l7.5 7.5l6.5 6.5q9 13 20 13 q9 0 13.5 -4.5t19.5 -28.5q14 -21 23.5 -33.5t18.5 -20t18 -14.5q10 -7 10 -16q0 -14 -52.5 -46t-74.5 -32q-21 0 -54.5 31.5t-33.5 52.5zM1100 213q0 16 47 57q12 13 31 27l7.5 7.5l6.5 6.5q9 13 20 13q9 0 13.5 -4.5t19.5 -28.5q14 -21 23.5 -33.5t18.5 -20t18 -14.5 q10 -7 10 -16q0 -14 -52.5 -46t-74.5 -32q-21 0 -54.5 31.5t-33.5 52.5z" />
<glyph unicode="&#x202f;" horiz-adv-x="349" />
<glyph unicode="&#x2039;" horiz-adv-x="479" d="M82 299l194 186q10 10 15 12.5t14 2.5q10 0 29.5 -20.5t19.5 -30.5q0 -12 -18 -27l-143 -127l231 -184q20 -16 20 -27q0 -9 -19 -29t-30 -20q-16 0 -33 16z" />
<glyph unicode="&#x203a;" horiz-adv-x="479" d="M76 88q0 9 20 23l236 176l-236 174q-20 17 -20 24q0 11 20.5 37.5t30.5 26.5q11 0 25 -12l297 -250l-297 -250q-16 -14 -25 -14q-10 0 -30.5 27.5t-20.5 37.5z" />
<glyph unicode="&#x205f;" horiz-adv-x="437" />
<glyph unicode="&#x2122;" horiz-adv-x="2451" d="M295 1147q0 14 24 39l64 65q27 28 41 31q36 8 170 8q96 0 221 -8q34 44 57 70l72 12q-32 -34 -65 -88q126 -10 229 -31q29 -6 29 -18q0 -17 -16 -37.5t-29 -20.5h-11q-55 5 -182 5h-102q-144 -191 -144 -291q0 -68 58.5 -107t162.5 -39q76 0 124 16.5t85 53.5 q15 10 21 10q12 0 12 -12q0 -13 -31 -43q-84 -87 -151 -121.5t-154 -34.5q-115 0 -181.5 53.5t-66.5 147.5q0 65 43.5 145.5t153.5 221.5q-66 -1 -157.5 -9.5t-249.5 -29.5h-13q-14 0 -14 12zM1159 625q0 31 88 170q48 75 98.5 157.5t65 117t14.5 54.5q0 26 -22.5 41 t-59.5 15q-34 0 -88 -25l37 76q21 41 34 51t48 10q55 0 92 -35t37 -88q0 -34 -37.5 -113.5t-134.5 -246.5q82 111 185 211q121 122 205 176.5t153 54.5q44 0 69 -23.5t25 -64.5q0 -103 -147 -354q117 149 146.5 183t76.5 77q145 139 223 139q36 0 63 -27.5t40 -78.5 q19 -69 49 -279q8 -51 19.5 -70.5t35.5 -19.5q39 3 88 41l8 -12q-61 -71 -118.5 -112.5t-94.5 -41.5q-30 0 -46.5 22t-26.5 81t-21 192q-13 158 -35 193q-20 34 -51 34t-110 -92.5t-246 -322.5q-34 -50 -57 -67t-56 -17q-59 0 -59 39q0 18 7.5 33t65.5 110q160 257 160 338 q0 24 -15.5 38.5t-39.5 14.5q-79 0 -201.5 -137.5t-286.5 -409.5q-29 -46 -53.5 -64t-62.5 -18q-64 0 -64 50z" />
<glyph unicode="&#x25fc;" horiz-adv-x="575" d="M0 0v575h575v-575h-575z" />
<glyph unicode="&#xfb01;" horiz-adv-x="1042" d="M39 -360q0 84 21 186.5t62.5 217t102.5 237.5l-18 30q-154 3 -154 39q0 11 22 31t49.5 36.5t39.5 16.5q-6 0 94 -18l31 -6q30 52 55 108q33 75 78 182q54 128 102.5 226t93.5 168q27 43 48 43q22 0 31.5 -17.5t9.5 -62.5q0 -210 -11 -248q-13 -50 -47 -100 q-20 -31 -42 -53.5t-85 -80.5q-55 -52 -83.5 -81t-42.5 -49.5t-25 -47.5q68 -6 102 -6q92 0 149 7.5t92.5 25.5t67.5 53q46 50 62 62t39 12q22 0 38.5 -14t16.5 -33q0 -48 -119 -137q-50 -40 -66 -62t-16 -47q0 -42 52 -73t126 -31q118 0 230 84l4 -7q-115 -95 -186.5 -147 t-117 -73t-83.5 -21q-63 0 -109.5 49t-46.5 115q0 109 101 231q-48 -33 -140 -54.5t-190 -21.5q-37 0 -64 2l-18 -30q24 -93 24 -172q0 -101 -38.5 -244t-100.5 -268q-27 -55 -45.5 -77t-36.5 -22q-30 0 -44.5 35t-14.5 107zM946 735q0 22 39 58l21 20l10 12q19 23 31 23 q7 0 16 -12q27 -43 44 -61t56 -44q-43 -37 -66 -48t-59 -11q-37 0 -64.5 18.5t-27.5 44.5z" />
</font>
</defs>
</svg>
